solid OpenSCAD_Model
  facet normal 0.998795 0.0490679 0
    outer loop
      vertex 2.5 0 8
      vertex 2.48796 0.245043 0
      vertex 2.48796 0.245043 8
    endloop
  endfacet
  facet normal 0.998795 0.0490679 0
    outer loop
      vertex 2.48796 0.245043 0
      vertex 2.5 0 8
      vertex 2.5 0 0
    endloop
  endfacet
  facet normal -0.998795 0.0490679 0
    outer loop
      vertex -2.5 0 0
      vertex -2.48796 0.245043 8
      vertex -2.48796 0.245043 0
    endloop
  endfacet
  facet normal -0.998795 0.0490679 0
    outer loop
      vertex -2.48796 0.245043 8
      vertex -2.5 0 0
      vertex -2.5 0 8
    endloop
  endfacet
  facet normal 0.0490679 0.998795 -0
    outer loop
      vertex 0.245043 2.48796 0
      vertex 0 2.5 8
      vertex 0.245043 2.48796 8
    endloop
  endfacet
  facet normal 0.0490679 0.998795 0
    outer loop
      vertex 0 2.5 8
      vertex 0.245043 2.48796 0
      vertex 0 2.5 0
    endloop
  endfacet
  facet normal -0.0490679 -0.998795 0
    outer loop
      vertex -0.245043 -2.48796 0
      vertex 0 -2.5 8
      vertex -0.245043 -2.48796 8
    endloop
  endfacet
  facet normal -0.0490679 -0.998795 -0
    outer loop
      vertex 0 -2.5 8
      vertex -0.245043 -2.48796 0
      vertex 0 -2.5 0
    endloop
  endfacet
  facet normal 0.740954 0.671556 0
    outer loop
      vertex 1.93253 1.58598 8
      vertex 1.76777 1.76777 0
      vertex 1.76777 1.76777 8
    endloop
  endfacet
  facet normal 0.740954 0.671556 0
    outer loop
      vertex 1.76777 1.76777 0
      vertex 1.93253 1.58598 8
      vertex 1.93253 1.58598 0
    endloop
  endfacet
  facet normal -0.671556 0.740954 0
    outer loop
      vertex -1.58598 1.93253 0
      vertex -1.76777 1.76777 8
      vertex -1.58598 1.93253 8
    endloop
  endfacet
  facet normal -0.671556 0.740954 0
    outer loop
      vertex -1.76777 1.76777 8
      vertex -1.58598 1.93253 0
      vertex -1.76777 1.76777 0
    endloop
  endfacet
  facet normal -0.33689 0.941544 0
    outer loop
      vertex -0.725711 2.39235 0
      vertex -0.956708 2.3097 8
      vertex -0.725711 2.39235 8
    endloop
  endfacet
  facet normal -0.33689 0.941544 0
    outer loop
      vertex -0.956708 2.3097 8
      vertex -0.725711 2.39235 0
      vertex -0.956708 2.3097 0
    endloop
  endfacet
  facet normal 0.857729 -0.514102 0
    outer loop
      vertex 2.07867 -1.38893 8
      vertex 2.2048 -1.17849 0
      vertex 2.2048 -1.17849 8
    endloop
  endfacet
  facet normal 0.857729 -0.514102 0
    outer loop
      vertex 2.2048 -1.17849 0
      vertex 2.07867 -1.38893 8
      vertex 2.07867 -1.38893 0
    endloop
  endfacet
  facet normal -0.970031 -0.24298 0
    outer loop
      vertex -2.39235 -0.725711 0
      vertex -2.45196 -0.487725 8
      vertex -2.45196 -0.487725 0
    endloop
  endfacet
  facet normal -0.970031 -0.24298 0
    outer loop
      vertex -2.45196 -0.487725 8
      vertex -2.39235 -0.725711 0
      vertex -2.39235 -0.725711 8
    endloop
  endfacet
  facet normal 0.90399 0.427554 0
    outer loop
      vertex 2.3097 0.956708 8
      vertex 2.2048 1.17849 0
      vertex 2.2048 1.17849 8
    endloop
  endfacet
  facet normal 0.90399 0.427554 0
    outer loop
      vertex 2.2048 1.17849 0
      vertex 2.3097 0.956708 8
      vertex 2.3097 0.956708 0
    endloop
  endfacet
  facet normal 0.857729 0.514102 0
    outer loop
      vertex 2.2048 1.17849 8
      vertex 2.07867 1.38893 0
      vertex 2.07867 1.38893 8
    endloop
  endfacet
  facet normal 0.857729 0.514102 0
    outer loop
      vertex 2.07867 1.38893 0
      vertex 2.2048 1.17849 8
      vertex 2.2048 1.17849 0
    endloop
  endfacet
  facet normal 0.427554 0.90399 -0
    outer loop
      vertex 1.17849 2.2048 0
      vertex 0.956708 2.3097 8
      vertex 1.17849 2.2048 8
    endloop
  endfacet
  facet normal 0.427554 0.90399 0
    outer loop
      vertex 0.956708 2.3097 8
      vertex 1.17849 2.2048 0
      vertex 0.956708 2.3097 0
    endloop
  endfacet
  facet normal -0.857729 0.514102 0
    outer loop
      vertex -2.2048 1.17849 0
      vertex -2.07867 1.38893 8
      vertex -2.07867 1.38893 0
    endloop
  endfacet
  facet normal -0.857729 0.514102 0
    outer loop
      vertex -2.07867 1.38893 8
      vertex -2.2048 1.17849 0
      vertex -2.2048 1.17849 8
    endloop
  endfacet
  facet normal -0.803207 0.595701 0
    outer loop
      vertex -2.07867 1.38893 0
      vertex -1.93253 1.58598 8
      vertex -1.93253 1.58598 0
    endloop
  endfacet
  facet normal -0.803207 0.595701 0
    outer loop
      vertex -1.93253 1.58598 8
      vertex -2.07867 1.38893 0
      vertex -2.07867 1.38893 8
    endloop
  endfacet
  facet normal -0.146733 0.989176 0
    outer loop
      vertex -0.245043 2.48796 0
      vertex -0.487725 2.45196 8
      vertex -0.245043 2.48796 8
    endloop
  endfacet
  facet normal -0.146733 0.989176 0
    outer loop
      vertex -0.487725 2.45196 8
      vertex -0.245043 2.48796 0
      vertex -0.487725 2.45196 0
    endloop
  endfacet
  facet normal 0.24298 -0.970031 0
    outer loop
      vertex 0.487725 -2.45196 0
      vertex 0.725711 -2.39235 8
      vertex 0.487725 -2.45196 8
    endloop
  endfacet
  facet normal 0.24298 -0.970031 0
    outer loop
      vertex 0.725711 -2.39235 8
      vertex 0.487725 -2.45196 0
      vertex 0.725711 -2.39235 0
    endloop
  endfacet
  facet normal 0.671556 -0.740954 0
    outer loop
      vertex 1.58598 -1.93253 0
      vertex 1.76777 -1.76777 8
      vertex 1.58598 -1.93253 8
    endloop
  endfacet
  facet normal 0.671556 -0.740954 0
    outer loop
      vertex 1.76777 -1.76777 8
      vertex 1.58598 -1.93253 0
      vertex 1.76777 -1.76777 0
    endloop
  endfacet
  facet normal -0.33689 -0.941544 0
    outer loop
      vertex -0.956708 -2.3097 0
      vertex -0.725711 -2.39235 8
      vertex -0.956708 -2.3097 8
    endloop
  endfacet
  facet normal -0.33689 -0.941544 -0
    outer loop
      vertex -0.725711 -2.39235 8
      vertex -0.956708 -2.3097 0
      vertex -0.725711 -2.39235 0
    endloop
  endfacet
  facet normal -0.740954 -0.671556 0
    outer loop
      vertex -1.76777 -1.76777 0
      vertex -1.93253 -1.58598 8
      vertex -1.93253 -1.58598 0
    endloop
  endfacet
  facet normal -0.740954 -0.671556 0
    outer loop
      vertex -1.93253 -1.58598 8
      vertex -1.76777 -1.76777 0
      vertex -1.76777 -1.76777 8
    endloop
  endfacet
  facet normal -0.803207 -0.595701 0
    outer loop
      vertex -1.93253 -1.58598 0
      vertex -2.07867 -1.38893 8
      vertex -2.07867 -1.38893 0
    endloop
  endfacet
  facet normal -0.803207 -0.595701 0
    outer loop
      vertex -2.07867 -1.38893 8
      vertex -1.93253 -1.58598 0
      vertex -1.93253 -1.58598 8
    endloop
  endfacet
  facet normal 0 0 -1
    outer loop
      vertex 1.45 0 0
      vertex 2.5 0 0
      vertex 2.48796 -0.245043 0
    endloop
  endfacet
  facet normal 0 0 -1
    outer loop
      vertex 1.44302 -0.142124 0
      vertex 2.48796 -0.245043 0
      vertex 2.45196 -0.487725 0
    endloop
  endfacet
  facet normal 0 0 -1
    outer loop
      vertex 2.5 0 0
      vertex 1.45 0 0
      vertex 2.48796 0.245043 0
    endloop
  endfacet
  facet normal 0 0 -1
    outer loop
      vertex 1.42214 -0.282881 0
      vertex 2.45196 -0.487725 0
      vertex 2.39235 -0.725711 0
    endloop
  endfacet
  facet normal 0 0 -1
    outer loop
      vertex 1.44302 0.142124 0
      vertex 2.48796 0.245043 0
      vertex 1.45 0 0
    endloop
  endfacet
  facet normal 0 0 -1
    outer loop
      vertex 1.38756 -0.420913 0
      vertex 2.39235 -0.725711 0
      vertex 2.3097 -0.956708 0
    endloop
  endfacet
  facet normal -0 0 -1
    outer loop
      vertex 2.48796 0.245043 0
      vertex 1.44302 0.142124 0
      vertex 2.45196 0.487725 0
    endloop
  endfacet
  facet normal 0 0 -1
    outer loop
      vertex 1.33962 -0.554891 0
      vertex 2.3097 -0.956708 0
      vertex 2.2048 -1.17849 0
    endloop
  endfacet
  facet normal 0 0 -1
    outer loop
      vertex 1.42214 0.282881 0
      vertex 2.45196 0.487725 0
      vertex 1.44302 0.142124 0
    endloop
  endfacet
  facet normal 0 0 -1
    outer loop
      vertex 1.27879 -0.683525 0
      vertex 2.2048 -1.17849 0
      vertex 2.07867 -1.38893 0
    endloop
  endfacet
  facet normal -0 0 -1
    outer loop
      vertex 2.45196 0.487725 0
      vertex 1.42214 0.282881 0
      vertex 2.39235 0.725711 0
    endloop
  endfacet
  facet normal 0 0 -1
    outer loop
      vertex 1.20563 -0.805576 0
      vertex 2.07867 -1.38893 0
      vertex 1.93253 -1.58598 0
    endloop
  endfacet
  facet normal 0 0 -1
    outer loop
      vertex 1.38756 0.420913 0
      vertex 2.39235 0.725711 0
      vertex 1.42214 0.282881 0
    endloop
  endfacet
  facet normal 0 0 -1
    outer loop
      vertex 1.12086 -0.919869 0
      vertex 1.93253 -1.58598 0
      vertex 1.76777 -1.76777 0
    endloop
  endfacet
  facet normal -0 0 -1
    outer loop
      vertex 2.39235 0.725711 0
      vertex 1.38756 0.420913 0
      vertex 2.3097 0.956708 0
    endloop
  endfacet
  facet normal 0 0 -1
    outer loop
      vertex 1.0253 -1.0253 0
      vertex 1.76777 -1.76777 0
      vertex 1.58598 -1.93253 0
    endloop
  endfacet
  facet normal 0 0 -1
    outer loop
      vertex 1.33962 0.554891 0
      vertex 2.3097 0.956708 0
      vertex 1.38756 0.420913 0
    endloop
  endfacet
  facet normal -0 0 -1
    outer loop
      vertex 2.3097 0.956708 0
      vertex 1.33962 0.554891 0
      vertex 2.2048 1.17849 0
    endloop
  endfacet
  facet normal 0 0 -1
    outer loop
      vertex 2.48796 -0.245043 0
      vertex 1.44302 -0.142124 0
      vertex 1.45 0 0
    endloop
  endfacet
  facet normal 0 0 -1
    outer loop
      vertex 2.45196 -0.487725 0
      vertex 1.42214 -0.282881 0
      vertex 1.44302 -0.142124 0
    endloop
  endfacet
  facet normal 0 0 -1
    outer loop
      vertex 0.919869 -1.12086 0
      vertex 1.58598 -1.93253 0
      vertex 1.38893 -2.07867 0
    endloop
  endfacet
  facet normal 0 0 -1
    outer loop
      vertex 2.39235 -0.725711 0
      vertex 1.38756 -0.420913 0
      vertex 1.42214 -0.282881 0
    endloop
  endfacet
  facet normal 0 0 -1
    outer loop
      vertex 2.3097 -0.956708 0
      vertex 1.33962 -0.554891 0
      vertex 1.38756 -0.420913 0
    endloop
  endfacet
  facet normal 0 0 -1
    outer loop
      vertex 2.2048 -1.17849 0
      vertex 1.27879 -0.683525 0
      vertex 1.33962 -0.554891 0
    endloop
  endfacet
  facet normal 0 0 -1
    outer loop
      vertex 2.07867 -1.38893 0
      vertex 1.20563 -0.805576 0
      vertex 1.27879 -0.683525 0
    endloop
  endfacet
  facet normal 0 0 -1
    outer loop
      vertex 0.805576 -1.20563 0
      vertex 1.38893 -2.07867 0
      vertex 1.17849 -2.2048 0
    endloop
  endfacet
  facet normal 0 0 -1
    outer loop
      vertex 1.93253 -1.58598 0
      vertex 1.12086 -0.919869 0
      vertex 1.20563 -0.805576 0
    endloop
  endfacet
  facet normal 0 0 -1
    outer loop
      vertex 1.76777 -1.76777 0
      vertex 1.0253 -1.0253 0
      vertex 1.12086 -0.919869 0
    endloop
  endfacet
  facet normal 0 0 -1
    outer loop
      vertex 0.683525 -1.27879 0
      vertex 1.17849 -2.2048 0
      vertex 0.956708 -2.3097 0
    endloop
  endfacet
  facet normal 0 0 -1
    outer loop
      vertex 1.58598 -1.93253 0
      vertex 0.919869 -1.12086 0
      vertex 1.0253 -1.0253 0
    endloop
  endfacet
  facet normal 0 0 -1
    outer loop
      vertex 1.38893 -2.07867 0
      vertex 0.805576 -1.20563 0
      vertex 0.919869 -1.12086 0
    endloop
  endfacet
  facet normal 0 0 -1
    outer loop
      vertex 0.554891 -1.33962 0
      vertex 0.956708 -2.3097 0
      vertex 0.725711 -2.39235 0
    endloop
  endfacet
  facet normal 0 0 -1
    outer loop
      vertex 1.17849 -2.2048 0
      vertex 0.683525 -1.27879 0
      vertex 0.805576 -1.20563 0
    endloop
  endfacet
  facet normal 0 0 -1
    outer loop
      vertex 0.956708 -2.3097 0
      vertex 0.554891 -1.33962 0
      vertex 0.683525 -1.27879 0
    endloop
  endfacet
  facet normal 0 0 -1
    outer loop
      vertex 0.420913 -1.38756 0
      vertex 0.725711 -2.39235 0
      vertex 0.487725 -2.45196 0
    endloop
  endfacet
  facet normal 0 0 -1
    outer loop
      vertex 0.725711 -2.39235 0
      vertex 0.420913 -1.38756 0
      vertex 0.554891 -1.33962 0
    endloop
  endfacet
  facet normal 0 0 -1
    outer loop
      vertex 0.487725 -2.45196 0
      vertex 0.282881 -1.42214 0
      vertex 0.420913 -1.38756 0
    endloop
  endfacet
  facet normal 0 0 -1
    outer loop
      vertex 0.245043 -2.48796 0
      vertex 0.282881 -1.42214 0
      vertex 0.487725 -2.45196 0
    endloop
  endfacet
  facet normal 0 0 -1
    outer loop
      vertex 0.245043 -2.48796 0
      vertex 0.142124 -1.44302 0
      vertex 0.282881 -1.42214 0
    endloop
  endfacet
  facet normal 0 0 -1
    outer loop
      vertex 0 -2.5 0
      vertex 0.142124 -1.44302 0
      vertex 0.245043 -2.48796 0
    endloop
  endfacet
  facet normal 0 0 -1
    outer loop
      vertex 0 -2.5 0
      vertex 0 -1.45 0
      vertex 0.142124 -1.44302 0
    endloop
  endfacet
  facet normal 0 0 -1
    outer loop
      vertex 0 -2.5 0
      vertex -0.142124 -1.44302 0
      vertex 0 -1.45 0
    endloop
  endfacet
  facet normal 0 0 -1
    outer loop
      vertex -0.245043 -2.48796 0
      vertex -0.142124 -1.44302 0
      vertex 0 -2.5 0
    endloop
  endfacet
  facet normal 0 0 -1
    outer loop
      vertex -0.245043 -2.48796 0
      vertex -0.282881 -1.42214 0
      vertex -0.142124 -1.44302 0
    endloop
  endfacet
  facet normal 0 0 -1
    outer loop
      vertex -0.487725 -2.45196 0
      vertex -0.282881 -1.42214 0
      vertex -0.245043 -2.48796 0
    endloop
  endfacet
  facet normal -0 0 -1
    outer loop
      vertex -0.282881 -1.42214 0
      vertex -0.487725 -2.45196 0
      vertex -0.420913 -1.38756 0
    endloop
  endfacet
  facet normal 0 0 -1
    outer loop
      vertex -0.725711 -2.39235 0
      vertex -0.420913 -1.38756 0
      vertex -0.487725 -2.45196 0
    endloop
  endfacet
  facet normal -0 0 -1
    outer loop
      vertex -0.420913 -1.38756 0
      vertex -0.725711 -2.39235 0
      vertex -0.554891 -1.33962 0
    endloop
  endfacet
  facet normal 0 0 -1
    outer loop
      vertex -0.956708 -2.3097 0
      vertex -0.554891 -1.33962 0
      vertex -0.725711 -2.39235 0
    endloop
  endfacet
  facet normal -0 0 -1
    outer loop
      vertex -0.554891 -1.33962 0
      vertex -0.956708 -2.3097 0
      vertex -0.683525 -1.27879 0
    endloop
  endfacet
  facet normal 0 0 -1
    outer loop
      vertex -1.17849 -2.2048 0
      vertex -0.683525 -1.27879 0
      vertex -0.956708 -2.3097 0
    endloop
  endfacet
  facet normal -0 0 -1
    outer loop
      vertex -0.683525 -1.27879 0
      vertex -1.17849 -2.2048 0
      vertex -0.805576 -1.20563 0
    endloop
  endfacet
  facet normal 0 0 -1
    outer loop
      vertex -1.38893 -2.07867 0
      vertex -0.805576 -1.20563 0
      vertex -1.17849 -2.2048 0
    endloop
  endfacet
  facet normal -0 0 -1
    outer loop
      vertex -0.805576 -1.20563 0
      vertex -1.38893 -2.07867 0
      vertex -0.919869 -1.12086 0
    endloop
  endfacet
  facet normal 0 0 -1
    outer loop
      vertex -1.58598 -1.93253 0
      vertex -0.919869 -1.12086 0
      vertex -1.38893 -2.07867 0
    endloop
  endfacet
  facet normal -0 0 -1
    outer loop
      vertex -0.919869 -1.12086 0
      vertex -1.58598 -1.93253 0
      vertex -1.0253 -1.0253 0
    endloop
  endfacet
  facet normal 0 0 -1
    outer loop
      vertex -1.76777 -1.76777 0
      vertex -1.0253 -1.0253 0
      vertex -1.58598 -1.93253 0
    endloop
  endfacet
  facet normal -0 0 -1
    outer loop
      vertex -1.0253 -1.0253 0
      vertex -1.76777 -1.76777 0
      vertex -1.12086 -0.919869 0
    endloop
  endfacet
  facet normal 0 0 -1
    outer loop
      vertex -1.93253 -1.58598 0
      vertex -1.12086 -0.919869 0
      vertex -1.76777 -1.76777 0
    endloop
  endfacet
  facet normal -0 0 -1
    outer loop
      vertex -1.12086 -0.919869 0
      vertex -1.93253 -1.58598 0
      vertex -1.20563 -0.805576 0
    endloop
  endfacet
  facet normal 0 0 -1
    outer loop
      vertex -2.07867 -1.38893 0
      vertex -1.20563 -0.805576 0
      vertex -1.93253 -1.58598 0
    endloop
  endfacet
  facet normal -0 0 -1
    outer loop
      vertex -1.20563 -0.805576 0
      vertex -2.07867 -1.38893 0
      vertex -1.27879 -0.683525 0
    endloop
  endfacet
  facet normal 0 0 -1
    outer loop
      vertex -2.2048 -1.17849 0
      vertex -1.27879 -0.683525 0
      vertex -2.07867 -1.38893 0
    endloop
  endfacet
  facet normal -0 0 -1
    outer loop
      vertex -1.27879 -0.683525 0
      vertex -2.2048 -1.17849 0
      vertex -1.33962 -0.554891 0
    endloop
  endfacet
  facet normal 0 0 -1
    outer loop
      vertex 1.27879 0.683525 0
      vertex 2.2048 1.17849 0
      vertex 1.33962 0.554891 0
    endloop
  endfacet
  facet normal -0 0 -1
    outer loop
      vertex 2.2048 1.17849 0
      vertex 1.27879 0.683525 0
      vertex 2.07867 1.38893 0
    endloop
  endfacet
  facet normal 0 0 -1
    outer loop
      vertex 1.20563 0.805576 0
      vertex 2.07867 1.38893 0
      vertex 1.27879 0.683525 0
    endloop
  endfacet
  facet normal -0 0 -1
    outer loop
      vertex 2.07867 1.38893 0
      vertex 1.20563 0.805576 0
      vertex 1.93253 1.58598 0
    endloop
  endfacet
  facet normal 0 0 -1
    outer loop
      vertex 1.12086 0.919869 0
      vertex 1.93253 1.58598 0
      vertex 1.20563 0.805576 0
    endloop
  endfacet
  facet normal -0 0 -1
    outer loop
      vertex 1.93253 1.58598 0
      vertex 1.12086 0.919869 0
      vertex 1.76777 1.76777 0
    endloop
  endfacet
  facet normal 0 0 -1
    outer loop
      vertex 1.0253 1.0253 0
      vertex 1.76777 1.76777 0
      vertex 1.12086 0.919869 0
    endloop
  endfacet
  facet normal -0 0 -1
    outer loop
      vertex 1.76777 1.76777 0
      vertex 1.0253 1.0253 0
      vertex 1.58598 1.93253 0
    endloop
  endfacet
  facet normal 0 0 -1
    outer loop
      vertex 0.919869 1.12086 0
      vertex 1.58598 1.93253 0
      vertex 1.0253 1.0253 0
    endloop
  endfacet
  facet normal -0 0 -1
    outer loop
      vertex 1.58598 1.93253 0
      vertex 0.919869 1.12086 0
      vertex 1.38893 2.07867 0
    endloop
  endfacet
  facet normal 0 0 -1
    outer loop
      vertex 0.805576 1.20563 0
      vertex 1.38893 2.07867 0
      vertex 0.919869 1.12086 0
    endloop
  endfacet
  facet normal -0 0 -1
    outer loop
      vertex 1.38893 2.07867 0
      vertex 0.805576 1.20563 0
      vertex 1.17849 2.2048 0
    endloop
  endfacet
  facet normal 0 0 -1
    outer loop
      vertex 0.683525 1.27879 0
      vertex 1.17849 2.2048 0
      vertex 0.805576 1.20563 0
    endloop
  endfacet
  facet normal -0 0 -1
    outer loop
      vertex 1.17849 2.2048 0
      vertex 0.683525 1.27879 0
      vertex 0.956708 2.3097 0
    endloop
  endfacet
  facet normal 0 0 -1
    outer loop
      vertex 0.554891 1.33962 0
      vertex 0.956708 2.3097 0
      vertex 0.683525 1.27879 0
    endloop
  endfacet
  facet normal -0 0 -1
    outer loop
      vertex 0.956708 2.3097 0
      vertex 0.554891 1.33962 0
      vertex 0.725711 2.39235 0
    endloop
  endfacet
  facet normal 0 0 -1
    outer loop
      vertex 0.420913 1.38756 0
      vertex 0.725711 2.39235 0
      vertex 0.554891 1.33962 0
    endloop
  endfacet
  facet normal -0 0 -1
    outer loop
      vertex 0.725711 2.39235 0
      vertex 0.420913 1.38756 0
      vertex 0.487725 2.45196 0
    endloop
  endfacet
  facet normal 0 0 -1
    outer loop
      vertex 0.282881 1.42214 0
      vertex 0.487725 2.45196 0
      vertex 0.420913 1.38756 0
    endloop
  endfacet
  facet normal 0 0 -1
    outer loop
      vertex 0.282881 1.42214 0
      vertex 0.245043 2.48796 0
      vertex 0.487725 2.45196 0
    endloop
  endfacet
  facet normal 0 0 -1
    outer loop
      vertex 0.142124 1.44302 0
      vertex 0.245043 2.48796 0
      vertex 0.282881 1.42214 0
    endloop
  endfacet
  facet normal 0 0 -1
    outer loop
      vertex 0 1.45 0
      vertex 0.245043 2.48796 0
      vertex 0.142124 1.44302 0
    endloop
  endfacet
  facet normal 0 0 -1
    outer loop
      vertex 0 1.45 0
      vertex 0 2.5 0
      vertex 0.245043 2.48796 0
    endloop
  endfacet
  facet normal 0 0 -1
    outer loop
      vertex -0.142124 1.44302 0
      vertex 0 2.5 0
      vertex 0 1.45 0
    endloop
  endfacet
  facet normal 0 0 -1
    outer loop
      vertex -0.142124 1.44302 0
      vertex -0.245043 2.48796 0
      vertex 0 2.5 0
    endloop
  endfacet
  facet normal 0 0 -1
    outer loop
      vertex -0.282881 1.42214 0
      vertex -0.245043 2.48796 0
      vertex -0.142124 1.44302 0
    endloop
  endfacet
  facet normal 0 0 -1
    outer loop
      vertex -0.487725 2.45196 0
      vertex -0.282881 1.42214 0
      vertex -0.420913 1.38756 0
    endloop
  endfacet
  facet normal 0 0 -1
    outer loop
      vertex -0.282881 1.42214 0
      vertex -0.487725 2.45196 0
      vertex -0.245043 2.48796 0
    endloop
  endfacet
  facet normal 0 0 -1
    outer loop
      vertex -0.725711 2.39235 0
      vertex -0.420913 1.38756 0
      vertex -0.554891 1.33962 0
    endloop
  endfacet
  facet normal 0 0 -1
    outer loop
      vertex -0.956708 2.3097 0
      vertex -0.554891 1.33962 0
      vertex -0.683525 1.27879 0
    endloop
  endfacet
  facet normal 0 0 -1
    outer loop
      vertex -0.420913 1.38756 0
      vertex -0.725711 2.39235 0
      vertex -0.487725 2.45196 0
    endloop
  endfacet
  facet normal 0 0 -1
    outer loop
      vertex -1.17849 2.2048 0
      vertex -0.683525 1.27879 0
      vertex -0.805576 1.20563 0
    endloop
  endfacet
  facet normal 0 0 -1
    outer loop
      vertex -1.38893 2.07867 0
      vertex -0.805576 1.20563 0
      vertex -0.919869 1.12086 0
    endloop
  endfacet
  facet normal 0 0 -1
    outer loop
      vertex -0.554891 1.33962 0
      vertex -0.956708 2.3097 0
      vertex -0.725711 2.39235 0
    endloop
  endfacet
  facet normal 0 0 -1
    outer loop
      vertex -1.58598 1.93253 0
      vertex -0.919869 1.12086 0
      vertex -1.0253 1.0253 0
    endloop
  endfacet
  facet normal 0 0 -1
    outer loop
      vertex -1.76777 1.76777 0
      vertex -1.0253 1.0253 0
      vertex -1.12086 0.919869 0
    endloop
  endfacet
  facet normal 0 0 -1
    outer loop
      vertex -0.683525 1.27879 0
      vertex -1.17849 2.2048 0
      vertex -0.956708 2.3097 0
    endloop
  endfacet
  facet normal 0 0 -1
    outer loop
      vertex -1.93253 1.58598 0
      vertex -1.12086 0.919869 0
      vertex -1.20563 0.805576 0
    endloop
  endfacet
  facet normal 0 0 -1
    outer loop
      vertex -2.07867 1.38893 0
      vertex -1.20563 0.805576 0
      vertex -1.27879 0.683525 0
    endloop
  endfacet
  facet normal 0 0 -1
    outer loop
      vertex -2.2048 1.17849 0
      vertex -1.27879 0.683525 0
      vertex -1.33962 0.554891 0
    endloop
  endfacet
  facet normal 0 0 -1
    outer loop
      vertex -2.3097 0.956708 0
      vertex -1.33962 0.554891 0
      vertex -1.38756 0.420913 0
    endloop
  endfacet
  facet normal 0 0 -1
    outer loop
      vertex -0.805576 1.20563 0
      vertex -1.38893 2.07867 0
      vertex -1.17849 2.2048 0
    endloop
  endfacet
  facet normal 0 0 -1
    outer loop
      vertex -2.39235 0.725711 0
      vertex -1.38756 0.420913 0
      vertex -1.42214 0.282881 0
    endloop
  endfacet
  facet normal 0 0 -1
    outer loop
      vertex -2.45196 0.487725 0
      vertex -1.42214 0.282881 0
      vertex -1.44302 0.142124 0
    endloop
  endfacet
  facet normal 0 0 -1
    outer loop
      vertex -2.48796 0.245043 0
      vertex -1.44302 0.142124 0
      vertex -1.45 0 0
    endloop
  endfacet
  facet normal 0 0 -1
    outer loop
      vertex -2.3097 -0.956708 0
      vertex -1.33962 -0.554891 0
      vertex -2.2048 -1.17849 0
    endloop
  endfacet
  facet normal 0 0 -1
    outer loop
      vertex -0.919869 1.12086 0
      vertex -1.58598 1.93253 0
      vertex -1.38893 2.07867 0
    endloop
  endfacet
  facet normal -0 0 -1
    outer loop
      vertex -1.33962 -0.554891 0
      vertex -2.3097 -0.956708 0
      vertex -1.38756 -0.420913 0
    endloop
  endfacet
  facet normal 0 0 -1
    outer loop
      vertex -1.0253 1.0253 0
      vertex -1.76777 1.76777 0
      vertex -1.58598 1.93253 0
    endloop
  endfacet
  facet normal 0 0 -1
    outer loop
      vertex -2.39235 -0.725711 0
      vertex -1.38756 -0.420913 0
      vertex -2.3097 -0.956708 0
    endloop
  endfacet
  facet normal 0 0 -1
    outer loop
      vertex -1.12086 0.919869 0
      vertex -1.93253 1.58598 0
      vertex -1.76777 1.76777 0
    endloop
  endfacet
  facet normal -0 0 -1
    outer loop
      vertex -1.38756 -0.420913 0
      vertex -2.39235 -0.725711 0
      vertex -1.42214 -0.282881 0
    endloop
  endfacet
  facet normal 0 0 -1
    outer loop
      vertex -1.20563 0.805576 0
      vertex -2.07867 1.38893 0
      vertex -1.93253 1.58598 0
    endloop
  endfacet
  facet normal 0 0 -1
    outer loop
      vertex -2.45196 -0.487725 0
      vertex -1.42214 -0.282881 0
      vertex -2.39235 -0.725711 0
    endloop
  endfacet
  facet normal 0 0 -1
    outer loop
      vertex -1.27879 0.683525 0
      vertex -2.2048 1.17849 0
      vertex -2.07867 1.38893 0
    endloop
  endfacet
  facet normal -0 0 -1
    outer loop
      vertex -1.42214 -0.282881 0
      vertex -2.45196 -0.487725 0
      vertex -1.44302 -0.142124 0
    endloop
  endfacet
  facet normal 0 0 -1
    outer loop
      vertex -1.33962 0.554891 0
      vertex -2.3097 0.956708 0
      vertex -2.2048 1.17849 0
    endloop
  endfacet
  facet normal 0 0 -1
    outer loop
      vertex -2.48796 -0.245043 0
      vertex -1.44302 -0.142124 0
      vertex -2.45196 -0.487725 0
    endloop
  endfacet
  facet normal 0 0 -1
    outer loop
      vertex -1.38756 0.420913 0
      vertex -2.39235 0.725711 0
      vertex -2.3097 0.956708 0
    endloop
  endfacet
  facet normal -0 0 -1
    outer loop
      vertex -1.44302 -0.142124 0
      vertex -2.48796 -0.245043 0
      vertex -1.45 0 0
    endloop
  endfacet
  facet normal 0 0 -1
    outer loop
      vertex -1.42214 0.282881 0
      vertex -2.45196 0.487725 0
      vertex -2.39235 0.725711 0
    endloop
  endfacet
  facet normal 0 0 -1
    outer loop
      vertex -2.5 0 0
      vertex -1.45 0 0
      vertex -2.48796 -0.245043 0
    endloop
  endfacet
  facet normal 0 0 -1
    outer loop
      vertex -1.44302 0.142124 0
      vertex -2.48796 0.245043 0
      vertex -2.45196 0.487725 0
    endloop
  endfacet
  facet normal 0 0 -1
    outer loop
      vertex -1.45 0 0
      vertex -2.5 0 0
      vertex -2.48796 0.245043 0
    endloop
  endfacet
  facet normal 0.970031 0.24298 0
    outer loop
      vertex 2.45196 0.487725 8
      vertex 2.39235 0.725711 0
      vertex 2.39235 0.725711 8
    endloop
  endfacet
  facet normal 0.970031 0.24298 0
    outer loop
      vertex 2.39235 0.725711 0
      vertex 2.45196 0.487725 8
      vertex 2.45196 0.487725 0
    endloop
  endfacet
  facet normal 0.989176 0.146733 0
    outer loop
      vertex 2.48796 0.245043 8
      vertex 2.45196 0.487725 0
      vertex 2.45196 0.487725 8
    endloop
  endfacet
  facet normal 0.989176 0.146733 0
    outer loop
      vertex 2.45196 0.487725 0
      vertex 2.48796 0.245043 8
      vertex 2.48796 0.245043 0
    endloop
  endfacet
  facet normal 0.941544 0.33689 0
    outer loop
      vertex 2.39235 0.725711 8
      vertex 2.3097 0.956708 0
      vertex 2.3097 0.956708 8
    endloop
  endfacet
  facet normal 0.941544 0.33689 0
    outer loop
      vertex 2.3097 0.956708 0
      vertex 2.39235 0.725711 8
      vertex 2.39235 0.725711 0
    endloop
  endfacet
  facet normal 0.24298 0.970031 -0
    outer loop
      vertex 0.725711 2.39235 0
      vertex 0.487725 2.45196 8
      vertex 0.725711 2.39235 8
    endloop
  endfacet
  facet normal 0.24298 0.970031 0
    outer loop
      vertex 0.487725 2.45196 8
      vertex 0.725711 2.39235 0
      vertex 0.487725 2.45196 0
    endloop
  endfacet
  facet normal 0.33689 0.941544 -0
    outer loop
      vertex 0.956708 2.3097 0
      vertex 0.725711 2.39235 8
      vertex 0.956708 2.3097 8
    endloop
  endfacet
  facet normal 0.33689 0.941544 0
    outer loop
      vertex 0.725711 2.39235 8
      vertex 0.956708 2.3097 0
      vertex 0.725711 2.39235 0
    endloop
  endfacet
  facet normal 0.146733 0.989176 -0
    outer loop
      vertex 0.487725 2.45196 0
      vertex 0.245043 2.48796 8
      vertex 0.487725 2.45196 8
    endloop
  endfacet
  facet normal 0.146733 0.989176 0
    outer loop
      vertex 0.245043 2.48796 8
      vertex 0.487725 2.45196 0
      vertex 0.245043 2.48796 0
    endloop
  endfacet
  facet normal 0.595701 0.803207 -0
    outer loop
      vertex 1.58598 1.93253 0
      vertex 1.38893 2.07867 8
      vertex 1.58598 1.93253 8
    endloop
  endfacet
  facet normal 0.595701 0.803207 0
    outer loop
      vertex 1.38893 2.07867 8
      vertex 1.58598 1.93253 0
      vertex 1.38893 2.07867 0
    endloop
  endfacet
  facet normal 0.671556 0.740954 -0
    outer loop
      vertex 1.76777 1.76777 0
      vertex 1.58598 1.93253 8
      vertex 1.76777 1.76777 8
    endloop
  endfacet
  facet normal 0.671556 0.740954 0
    outer loop
      vertex 1.58598 1.93253 8
      vertex 1.76777 1.76777 0
      vertex 1.58598 1.93253 0
    endloop
  endfacet
  facet normal -0.970031 0.24298 0
    outer loop
      vertex -2.45196 0.487725 0
      vertex -2.39235 0.725711 8
      vertex -2.39235 0.725711 0
    endloop
  endfacet
  facet normal -0.970031 0.24298 0
    outer loop
      vertex -2.39235 0.725711 8
      vertex -2.45196 0.487725 0
      vertex -2.45196 0.487725 8
    endloop
  endfacet
  facet normal -0.740954 0.671556 0
    outer loop
      vertex -1.93253 1.58598 0
      vertex -1.76777 1.76777 8
      vertex -1.76777 1.76777 0
    endloop
  endfacet
  facet normal -0.740954 0.671556 0
    outer loop
      vertex -1.76777 1.76777 8
      vertex -1.93253 1.58598 0
      vertex -1.93253 1.58598 8
    endloop
  endfacet
  facet normal -0.90399 0.427554 0
    outer loop
      vertex -2.3097 0.956708 0
      vertex -2.2048 1.17849 8
      vertex -2.2048 1.17849 0
    endloop
  endfacet
  facet normal -0.90399 0.427554 0
    outer loop
      vertex -2.2048 1.17849 8
      vertex -2.3097 0.956708 0
      vertex -2.3097 0.956708 8
    endloop
  endfacet
  facet normal -0.989176 0.146733 0
    outer loop
      vertex -2.48796 0.245043 0
      vertex -2.45196 0.487725 8
      vertex -2.45196 0.487725 0
    endloop
  endfacet
  facet normal -0.989176 0.146733 0
    outer loop
      vertex -2.45196 0.487725 8
      vertex -2.48796 0.245043 0
      vertex -2.48796 0.245043 8
    endloop
  endfacet
  facet normal 0 0 1
    outer loop
      vertex 1.45 0 8
      vertex 2.5 0 8
      vertex 2.48796 0.245043 8
    endloop
  endfacet
  facet normal 0 0 1
    outer loop
      vertex 1.44302 0.142124 8
      vertex 2.48796 0.245043 8
      vertex 2.45196 0.487725 8
    endloop
  endfacet
  facet normal 0 0 1
    outer loop
      vertex 2.5 0 8
      vertex 1.45 0 8
      vertex 2.48796 -0.245043 8
    endloop
  endfacet
  facet normal 0 0 1
    outer loop
      vertex 1.42214 0.282881 8
      vertex 2.45196 0.487725 8
      vertex 2.39235 0.725711 8
    endloop
  endfacet
  facet normal -0 0 1
    outer loop
      vertex 1.44302 -0.142124 8
      vertex 2.48796 -0.245043 8
      vertex 1.45 0 8
    endloop
  endfacet
  facet normal 0 0 1
    outer loop
      vertex 1.38756 0.420913 8
      vertex 2.39235 0.725711 8
      vertex 2.3097 0.956708 8
    endloop
  endfacet
  facet normal 0 0 1
    outer loop
      vertex 2.48796 -0.245043 8
      vertex 1.44302 -0.142124 8
      vertex 2.45196 -0.487725 8
    endloop
  endfacet
  facet normal 0 0 1
    outer loop
      vertex 1.33962 0.554891 8
      vertex 2.3097 0.956708 8
      vertex 2.2048 1.17849 8
    endloop
  endfacet
  facet normal -0 0 1
    outer loop
      vertex 1.42214 -0.282881 8
      vertex 2.45196 -0.487725 8
      vertex 1.44302 -0.142124 8
    endloop
  endfacet
  facet normal 0 0 1
    outer loop
      vertex 1.27879 0.683525 8
      vertex 2.2048 1.17849 8
      vertex 2.07867 1.38893 8
    endloop
  endfacet
  facet normal 0 0 1
    outer loop
      vertex 2.45196 -0.487725 8
      vertex 1.42214 -0.282881 8
      vertex 2.39235 -0.725711 8
    endloop
  endfacet
  facet normal 0 0 1
    outer loop
      vertex 1.20563 0.805576 8
      vertex 2.07867 1.38893 8
      vertex 1.93253 1.58598 8
    endloop
  endfacet
  facet normal -0 0 1
    outer loop
      vertex 1.38756 -0.420913 8
      vertex 2.39235 -0.725711 8
      vertex 1.42214 -0.282881 8
    endloop
  endfacet
  facet normal 0 0 1
    outer loop
      vertex 1.12086 0.919869 8
      vertex 1.93253 1.58598 8
      vertex 1.76777 1.76777 8
    endloop
  endfacet
  facet normal 0 0 1
    outer loop
      vertex 2.39235 -0.725711 8
      vertex 1.38756 -0.420913 8
      vertex 2.3097 -0.956708 8
    endloop
  endfacet
  facet normal 0 0 1
    outer loop
      vertex 1.0253 1.0253 8
      vertex 1.76777 1.76777 8
      vertex 1.58598 1.93253 8
    endloop
  endfacet
  facet normal -0 0 1
    outer loop
      vertex 1.33962 -0.554891 8
      vertex 2.3097 -0.956708 8
      vertex 1.38756 -0.420913 8
    endloop
  endfacet
  facet normal 0 0 1
    outer loop
      vertex 2.3097 -0.956708 8
      vertex 1.33962 -0.554891 8
      vertex 2.2048 -1.17849 8
    endloop
  endfacet
  facet normal 0 0 1
    outer loop
      vertex 2.48796 0.245043 8
      vertex 1.44302 0.142124 8
      vertex 1.45 0 8
    endloop
  endfacet
  facet normal 0 0 1
    outer loop
      vertex 2.45196 0.487725 8
      vertex 1.42214 0.282881 8
      vertex 1.44302 0.142124 8
    endloop
  endfacet
  facet normal 0 0 1
    outer loop
      vertex 0.919869 1.12086 8
      vertex 1.58598 1.93253 8
      vertex 1.38893 2.07867 8
    endloop
  endfacet
  facet normal 0 0 1
    outer loop
      vertex 2.39235 0.725711 8
      vertex 1.38756 0.420913 8
      vertex 1.42214 0.282881 8
    endloop
  endfacet
  facet normal 0 0 1
    outer loop
      vertex 2.3097 0.956708 8
      vertex 1.33962 0.554891 8
      vertex 1.38756 0.420913 8
    endloop
  endfacet
  facet normal 0 0 1
    outer loop
      vertex 2.2048 1.17849 8
      vertex 1.27879 0.683525 8
      vertex 1.33962 0.554891 8
    endloop
  endfacet
  facet normal 0 0 1
    outer loop
      vertex 2.07867 1.38893 8
      vertex 1.20563 0.805576 8
      vertex 1.27879 0.683525 8
    endloop
  endfacet
  facet normal 0 0 1
    outer loop
      vertex 0.805576 1.20563 8
      vertex 1.38893 2.07867 8
      vertex 1.17849 2.2048 8
    endloop
  endfacet
  facet normal 0 0 1
    outer loop
      vertex 1.93253 1.58598 8
      vertex 1.12086 0.919869 8
      vertex 1.20563 0.805576 8
    endloop
  endfacet
  facet normal 0 0 1
    outer loop
      vertex 1.76777 1.76777 8
      vertex 1.0253 1.0253 8
      vertex 1.12086 0.919869 8
    endloop
  endfacet
  facet normal 0 0 1
    outer loop
      vertex 0.683525 1.27879 8
      vertex 1.17849 2.2048 8
      vertex 0.956708 2.3097 8
    endloop
  endfacet
  facet normal 0 0 1
    outer loop
      vertex 1.58598 1.93253 8
      vertex 0.919869 1.12086 8
      vertex 1.0253 1.0253 8
    endloop
  endfacet
  facet normal 0 0 1
    outer loop
      vertex 1.38893 2.07867 8
      vertex 0.805576 1.20563 8
      vertex 0.919869 1.12086 8
    endloop
  endfacet
  facet normal 0 0 1
    outer loop
      vertex 0.554891 1.33962 8
      vertex 0.956708 2.3097 8
      vertex 0.725711 2.39235 8
    endloop
  endfacet
  facet normal 0 0 1
    outer loop
      vertex 1.17849 2.2048 8
      vertex 0.683525 1.27879 8
      vertex 0.805576 1.20563 8
    endloop
  endfacet
  facet normal 0 0 1
    outer loop
      vertex 0.956708 2.3097 8
      vertex 0.554891 1.33962 8
      vertex 0.683525 1.27879 8
    endloop
  endfacet
  facet normal 0 0 1
    outer loop
      vertex 0.420913 1.38756 8
      vertex 0.725711 2.39235 8
      vertex 0.487725 2.45196 8
    endloop
  endfacet
  facet normal 0 0 1
    outer loop
      vertex 0.725711 2.39235 8
      vertex 0.420913 1.38756 8
      vertex 0.554891 1.33962 8
    endloop
  endfacet
  facet normal 0 0 1
    outer loop
      vertex 0.487725 2.45196 8
      vertex 0.282881 1.42214 8
      vertex 0.420913 1.38756 8
    endloop
  endfacet
  facet normal 0 0 1
    outer loop
      vertex 0.245043 2.48796 8
      vertex 0.282881 1.42214 8
      vertex 0.487725 2.45196 8
    endloop
  endfacet
  facet normal 0 0 1
    outer loop
      vertex 0.245043 2.48796 8
      vertex 0.142124 1.44302 8
      vertex 0.282881 1.42214 8
    endloop
  endfacet
  facet normal 0 0 1
    outer loop
      vertex 0 2.5 8
      vertex 0.142124 1.44302 8
      vertex 0.245043 2.48796 8
    endloop
  endfacet
  facet normal 0 0 1
    outer loop
      vertex 0 2.5 8
      vertex 0 1.45 8
      vertex 0.142124 1.44302 8
    endloop
  endfacet
  facet normal 0 0 1
    outer loop
      vertex 0 2.5 8
      vertex -0.142124 1.44302 8
      vertex 0 1.45 8
    endloop
  endfacet
  facet normal -0 0 1
    outer loop
      vertex -0.245043 2.48796 8
      vertex -0.142124 1.44302 8
      vertex 0 2.5 8
    endloop
  endfacet
  facet normal 0 0 1
    outer loop
      vertex -0.245043 2.48796 8
      vertex -0.282881 1.42214 8
      vertex -0.142124 1.44302 8
    endloop
  endfacet
  facet normal -0 0 1
    outer loop
      vertex -0.487725 2.45196 8
      vertex -0.282881 1.42214 8
      vertex -0.245043 2.48796 8
    endloop
  endfacet
  facet normal 0 0 1
    outer loop
      vertex -0.282881 1.42214 8
      vertex -0.487725 2.45196 8
      vertex -0.420913 1.38756 8
    endloop
  endfacet
  facet normal -0 0 1
    outer loop
      vertex -0.725711 2.39235 8
      vertex -0.420913 1.38756 8
      vertex -0.487725 2.45196 8
    endloop
  endfacet
  facet normal 0 0 1
    outer loop
      vertex -0.420913 1.38756 8
      vertex -0.725711 2.39235 8
      vertex -0.554891 1.33962 8
    endloop
  endfacet
  facet normal -0 0 1
    outer loop
      vertex -0.956708 2.3097 8
      vertex -0.554891 1.33962 8
      vertex -0.725711 2.39235 8
    endloop
  endfacet
  facet normal 0 0 1
    outer loop
      vertex -0.554891 1.33962 8
      vertex -0.956708 2.3097 8
      vertex -0.683525 1.27879 8
    endloop
  endfacet
  facet normal -0 0 1
    outer loop
      vertex -1.17849 2.2048 8
      vertex -0.683525 1.27879 8
      vertex -0.956708 2.3097 8
    endloop
  endfacet
  facet normal 0 0 1
    outer loop
      vertex -0.683525 1.27879 8
      vertex -1.17849 2.2048 8
      vertex -0.805576 1.20563 8
    endloop
  endfacet
  facet normal -0 0 1
    outer loop
      vertex -1.38893 2.07867 8
      vertex -0.805576 1.20563 8
      vertex -1.17849 2.2048 8
    endloop
  endfacet
  facet normal 0 0 1
    outer loop
      vertex -0.805576 1.20563 8
      vertex -1.38893 2.07867 8
      vertex -0.919869 1.12086 8
    endloop
  endfacet
  facet normal -0 0 1
    outer loop
      vertex -1.58598 1.93253 8
      vertex -0.919869 1.12086 8
      vertex -1.38893 2.07867 8
    endloop
  endfacet
  facet normal 0 0 1
    outer loop
      vertex -0.919869 1.12086 8
      vertex -1.58598 1.93253 8
      vertex -1.0253 1.0253 8
    endloop
  endfacet
  facet normal -0 0 1
    outer loop
      vertex -1.76777 1.76777 8
      vertex -1.0253 1.0253 8
      vertex -1.58598 1.93253 8
    endloop
  endfacet
  facet normal 0 0 1
    outer loop
      vertex -1.0253 1.0253 8
      vertex -1.76777 1.76777 8
      vertex -1.12086 0.919869 8
    endloop
  endfacet
  facet normal -0 0 1
    outer loop
      vertex -1.93253 1.58598 8
      vertex -1.12086 0.919869 8
      vertex -1.76777 1.76777 8
    endloop
  endfacet
  facet normal 0 0 1
    outer loop
      vertex -1.12086 0.919869 8
      vertex -1.93253 1.58598 8
      vertex -1.20563 0.805576 8
    endloop
  endfacet
  facet normal -0 0 1
    outer loop
      vertex -2.07867 1.38893 8
      vertex -1.20563 0.805576 8
      vertex -1.93253 1.58598 8
    endloop
  endfacet
  facet normal 0 0 1
    outer loop
      vertex -1.20563 0.805576 8
      vertex -2.07867 1.38893 8
      vertex -1.27879 0.683525 8
    endloop
  endfacet
  facet normal -0 0 1
    outer loop
      vertex -2.2048 1.17849 8
      vertex -1.27879 0.683525 8
      vertex -2.07867 1.38893 8
    endloop
  endfacet
  facet normal 0 0 1
    outer loop
      vertex -1.27879 0.683525 8
      vertex -2.2048 1.17849 8
      vertex -1.33962 0.554891 8
    endloop
  endfacet
  facet normal -0 0 1
    outer loop
      vertex 1.27879 -0.683525 8
      vertex 2.2048 -1.17849 8
      vertex 1.33962 -0.554891 8
    endloop
  endfacet
  facet normal 0 0 1
    outer loop
      vertex 2.2048 -1.17849 8
      vertex 1.27879 -0.683525 8
      vertex 2.07867 -1.38893 8
    endloop
  endfacet
  facet normal -0 0 1
    outer loop
      vertex 1.20563 -0.805576 8
      vertex 2.07867 -1.38893 8
      vertex 1.27879 -0.683525 8
    endloop
  endfacet
  facet normal 0 0 1
    outer loop
      vertex 2.07867 -1.38893 8
      vertex 1.20563 -0.805576 8
      vertex 1.93253 -1.58598 8
    endloop
  endfacet
  facet normal -0 0 1
    outer loop
      vertex 1.12086 -0.919869 8
      vertex 1.93253 -1.58598 8
      vertex 1.20563 -0.805576 8
    endloop
  endfacet
  facet normal 0 0 1
    outer loop
      vertex 1.93253 -1.58598 8
      vertex 1.12086 -0.919869 8
      vertex 1.76777 -1.76777 8
    endloop
  endfacet
  facet normal -0 0 1
    outer loop
      vertex 1.0253 -1.0253 8
      vertex 1.76777 -1.76777 8
      vertex 1.12086 -0.919869 8
    endloop
  endfacet
  facet normal 0 0 1
    outer loop
      vertex 1.76777 -1.76777 8
      vertex 1.0253 -1.0253 8
      vertex 1.58598 -1.93253 8
    endloop
  endfacet
  facet normal -0 0 1
    outer loop
      vertex 0.919869 -1.12086 8
      vertex 1.58598 -1.93253 8
      vertex 1.0253 -1.0253 8
    endloop
  endfacet
  facet normal 0 0 1
    outer loop
      vertex 1.58598 -1.93253 8
      vertex 0.919869 -1.12086 8
      vertex 1.38893 -2.07867 8
    endloop
  endfacet
  facet normal -0 0 1
    outer loop
      vertex 0.805576 -1.20563 8
      vertex 1.38893 -2.07867 8
      vertex 0.919869 -1.12086 8
    endloop
  endfacet
  facet normal 0 0 1
    outer loop
      vertex 1.38893 -2.07867 8
      vertex 0.805576 -1.20563 8
      vertex 1.17849 -2.2048 8
    endloop
  endfacet
  facet normal -0 0 1
    outer loop
      vertex 0.683525 -1.27879 8
      vertex 1.17849 -2.2048 8
      vertex 0.805576 -1.20563 8
    endloop
  endfacet
  facet normal 0 0 1
    outer loop
      vertex 1.17849 -2.2048 8
      vertex 0.683525 -1.27879 8
      vertex 0.956708 -2.3097 8
    endloop
  endfacet
  facet normal -0 0 1
    outer loop
      vertex 0.554891 -1.33962 8
      vertex 0.956708 -2.3097 8
      vertex 0.683525 -1.27879 8
    endloop
  endfacet
  facet normal 0 0 1
    outer loop
      vertex 0.956708 -2.3097 8
      vertex 0.554891 -1.33962 8
      vertex 0.725711 -2.39235 8
    endloop
  endfacet
  facet normal -0 0 1
    outer loop
      vertex 0.420913 -1.38756 8
      vertex 0.725711 -2.39235 8
      vertex 0.554891 -1.33962 8
    endloop
  endfacet
  facet normal 0 0 1
    outer loop
      vertex 0.725711 -2.39235 8
      vertex 0.420913 -1.38756 8
      vertex 0.487725 -2.45196 8
    endloop
  endfacet
  facet normal -0 0 1
    outer loop
      vertex 0.282881 -1.42214 8
      vertex 0.487725 -2.45196 8
      vertex 0.420913 -1.38756 8
    endloop
  endfacet
  facet normal 0 0 1
    outer loop
      vertex 0.282881 -1.42214 8
      vertex 0.245043 -2.48796 8
      vertex 0.487725 -2.45196 8
    endloop
  endfacet
  facet normal -0 0 1
    outer loop
      vertex 0.142124 -1.44302 8
      vertex 0.245043 -2.48796 8
      vertex 0.282881 -1.42214 8
    endloop
  endfacet
  facet normal -0 0 1
    outer loop
      vertex 0 -1.45 8
      vertex 0.245043 -2.48796 8
      vertex 0.142124 -1.44302 8
    endloop
  endfacet
  facet normal 0 0 1
    outer loop
      vertex 0 -1.45 8
      vertex 0 -2.5 8
      vertex 0.245043 -2.48796 8
    endloop
  endfacet
  facet normal 0 0 1
    outer loop
      vertex -0.142124 -1.44302 8
      vertex 0 -2.5 8
      vertex 0 -1.45 8
    endloop
  endfacet
  facet normal 0 0 1
    outer loop
      vertex -0.142124 -1.44302 8
      vertex -0.245043 -2.48796 8
      vertex 0 -2.5 8
    endloop
  endfacet
  facet normal 0 0 1
    outer loop
      vertex -0.282881 -1.42214 8
      vertex -0.245043 -2.48796 8
      vertex -0.142124 -1.44302 8
    endloop
  endfacet
  facet normal 0 0 1
    outer loop
      vertex -0.487725 -2.45196 8
      vertex -0.282881 -1.42214 8
      vertex -0.420913 -1.38756 8
    endloop
  endfacet
  facet normal 0 0 1
    outer loop
      vertex -0.282881 -1.42214 8
      vertex -0.487725 -2.45196 8
      vertex -0.245043 -2.48796 8
    endloop
  endfacet
  facet normal 0 0 1
    outer loop
      vertex -0.725711 -2.39235 8
      vertex -0.420913 -1.38756 8
      vertex -0.554891 -1.33962 8
    endloop
  endfacet
  facet normal 0 0 1
    outer loop
      vertex -0.956708 -2.3097 8
      vertex -0.554891 -1.33962 8
      vertex -0.683525 -1.27879 8
    endloop
  endfacet
  facet normal 0 0 1
    outer loop
      vertex -0.420913 -1.38756 8
      vertex -0.725711 -2.39235 8
      vertex -0.487725 -2.45196 8
    endloop
  endfacet
  facet normal 0 0 1
    outer loop
      vertex -1.17849 -2.2048 8
      vertex -0.683525 -1.27879 8
      vertex -0.805576 -1.20563 8
    endloop
  endfacet
  facet normal 0 0 1
    outer loop
      vertex -1.38893 -2.07867 8
      vertex -0.805576 -1.20563 8
      vertex -0.919869 -1.12086 8
    endloop
  endfacet
  facet normal 0 0 1
    outer loop
      vertex -0.554891 -1.33962 8
      vertex -0.956708 -2.3097 8
      vertex -0.725711 -2.39235 8
    endloop
  endfacet
  facet normal 0 0 1
    outer loop
      vertex -1.58598 -1.93253 8
      vertex -0.919869 -1.12086 8
      vertex -1.0253 -1.0253 8
    endloop
  endfacet
  facet normal 0 0 1
    outer loop
      vertex -1.76777 -1.76777 8
      vertex -1.0253 -1.0253 8
      vertex -1.12086 -0.919869 8
    endloop
  endfacet
  facet normal 0 0 1
    outer loop
      vertex -0.683525 -1.27879 8
      vertex -1.17849 -2.2048 8
      vertex -0.956708 -2.3097 8
    endloop
  endfacet
  facet normal 0 0 1
    outer loop
      vertex -1.93253 -1.58598 8
      vertex -1.12086 -0.919869 8
      vertex -1.20563 -0.805576 8
    endloop
  endfacet
  facet normal 0 0 1
    outer loop
      vertex -2.07867 -1.38893 8
      vertex -1.20563 -0.805576 8
      vertex -1.27879 -0.683525 8
    endloop
  endfacet
  facet normal 0 0 1
    outer loop
      vertex -2.2048 -1.17849 8
      vertex -1.27879 -0.683525 8
      vertex -1.33962 -0.554891 8
    endloop
  endfacet
  facet normal 0 0 1
    outer loop
      vertex -2.3097 -0.956708 8
      vertex -1.33962 -0.554891 8
      vertex -1.38756 -0.420913 8
    endloop
  endfacet
  facet normal 0 0 1
    outer loop
      vertex -0.805576 -1.20563 8
      vertex -1.38893 -2.07867 8
      vertex -1.17849 -2.2048 8
    endloop
  endfacet
  facet normal 0 0 1
    outer loop
      vertex -2.39235 -0.725711 8
      vertex -1.38756 -0.420913 8
      vertex -1.42214 -0.282881 8
    endloop
  endfacet
  facet normal 0 0 1
    outer loop
      vertex -2.45196 -0.487725 8
      vertex -1.42214 -0.282881 8
      vertex -1.44302 -0.142124 8
    endloop
  endfacet
  facet normal 0 0 1
    outer loop
      vertex -2.48796 -0.245043 8
      vertex -1.44302 -0.142124 8
      vertex -1.45 0 8
    endloop
  endfacet
  facet normal -0 0 1
    outer loop
      vertex -2.3097 0.956708 8
      vertex -1.33962 0.554891 8
      vertex -2.2048 1.17849 8
    endloop
  endfacet
  facet normal 0 0 1
    outer loop
      vertex -0.919869 -1.12086 8
      vertex -1.58598 -1.93253 8
      vertex -1.38893 -2.07867 8
    endloop
  endfacet
  facet normal 0 0 1
    outer loop
      vertex -1.33962 0.554891 8
      vertex -2.3097 0.956708 8
      vertex -1.38756 0.420913 8
    endloop
  endfacet
  facet normal 0 0 1
    outer loop
      vertex -1.0253 -1.0253 8
      vertex -1.76777 -1.76777 8
      vertex -1.58598 -1.93253 8
    endloop
  endfacet
  facet normal -0 0 1
    outer loop
      vertex -2.39235 0.725711 8
      vertex -1.38756 0.420913 8
      vertex -2.3097 0.956708 8
    endloop
  endfacet
  facet normal 0 0 1
    outer loop
      vertex -1.12086 -0.919869 8
      vertex -1.93253 -1.58598 8
      vertex -1.76777 -1.76777 8
    endloop
  endfacet
  facet normal 0 0 1
    outer loop
      vertex -1.38756 0.420913 8
      vertex -2.39235 0.725711 8
      vertex -1.42214 0.282881 8
    endloop
  endfacet
  facet normal 0 0 1
    outer loop
      vertex -1.20563 -0.805576 8
      vertex -2.07867 -1.38893 8
      vertex -1.93253 -1.58598 8
    endloop
  endfacet
  facet normal -0 0 1
    outer loop
      vertex -2.45196 0.487725 8
      vertex -1.42214 0.282881 8
      vertex -2.39235 0.725711 8
    endloop
  endfacet
  facet normal 0 0 1
    outer loop
      vertex -1.27879 -0.683525 8
      vertex -2.2048 -1.17849 8
      vertex -2.07867 -1.38893 8
    endloop
  endfacet
  facet normal 0 0 1
    outer loop
      vertex -1.42214 0.282881 8
      vertex -2.45196 0.487725 8
      vertex -1.44302 0.142124 8
    endloop
  endfacet
  facet normal 0 0 1
    outer loop
      vertex -1.33962 -0.554891 8
      vertex -2.3097 -0.956708 8
      vertex -2.2048 -1.17849 8
    endloop
  endfacet
  facet normal -0 0 1
    outer loop
      vertex -2.48796 0.245043 8
      vertex -1.44302 0.142124 8
      vertex -2.45196 0.487725 8
    endloop
  endfacet
  facet normal 0 0 1
    outer loop
      vertex -1.38756 -0.420913 8
      vertex -2.39235 -0.725711 8
      vertex -2.3097 -0.956708 8
    endloop
  endfacet
  facet normal 0 0 1
    outer loop
      vertex -1.44302 0.142124 8
      vertex -2.48796 0.245043 8
      vertex -1.45 0 8
    endloop
  endfacet
  facet normal 0 0 1
    outer loop
      vertex -1.42214 -0.282881 8
      vertex -2.45196 -0.487725 8
      vertex -2.39235 -0.725711 8
    endloop
  endfacet
  facet normal 0 0 1
    outer loop
      vertex -2.5 0 8
      vertex -1.45 0 8
      vertex -2.48796 0.245043 8
    endloop
  endfacet
  facet normal 0 0 1
    outer loop
      vertex -1.44302 -0.142124 8
      vertex -2.48796 -0.245043 8
      vertex -2.45196 -0.487725 8
    endloop
  endfacet
  facet normal 0 0 1
    outer loop
      vertex -1.45 0 8
      vertex -2.5 0 8
      vertex -2.48796 -0.245043 8
    endloop
  endfacet
  facet normal -0.514102 0.857729 0
    outer loop
      vertex -1.17849 2.2048 0
      vertex -1.38893 2.07867 8
      vertex -1.17849 2.2048 8
    endloop
  endfacet
  facet normal -0.514102 0.857729 0
    outer loop
      vertex -1.38893 2.07867 8
      vertex -1.17849 2.2048 0
      vertex -1.38893 2.07867 0
    endloop
  endfacet
  facet normal -0.24298 0.970031 0
    outer loop
      vertex -0.487725 2.45196 0
      vertex -0.725711 2.39235 8
      vertex -0.487725 2.45196 8
    endloop
  endfacet
  facet normal -0.24298 0.970031 0
    outer loop
      vertex -0.725711 2.39235 8
      vertex -0.487725 2.45196 0
      vertex -0.725711 2.39235 0
    endloop
  endfacet
  facet normal -0.0490679 0.998795 0
    outer loop
      vertex 0 2.5 0
      vertex -0.245043 2.48796 8
      vertex 0 2.5 8
    endloop
  endfacet
  facet normal -0.0490679 0.998795 0
    outer loop
      vertex -0.245043 2.48796 8
      vertex 0 2.5 0
      vertex -0.245043 2.48796 0
    endloop
  endfacet
  facet normal 0.998795 -0.0490679 0
    outer loop
      vertex 2.48796 -0.245043 8
      vertex 2.5 0 0
      vertex 2.5 0 8
    endloop
  endfacet
  facet normal 0.998795 -0.0490679 0
    outer loop
      vertex 2.5 0 0
      vertex 2.48796 -0.245043 8
      vertex 2.48796 -0.245043 0
    endloop
  endfacet
  facet normal 0.0490679 -0.998795 0
    outer loop
      vertex 0 -2.5 0
      vertex 0.245043 -2.48796 8
      vertex 0 -2.5 8
    endloop
  endfacet
  facet normal 0.0490679 -0.998795 0
    outer loop
      vertex 0.245043 -2.48796 8
      vertex 0 -2.5 0
      vertex 0.245043 -2.48796 0
    endloop
  endfacet
  facet normal 0.427554 -0.90399 0
    outer loop
      vertex 0.956708 -2.3097 0
      vertex 1.17849 -2.2048 8
      vertex 0.956708 -2.3097 8
    endloop
  endfacet
  facet normal 0.427554 -0.90399 0
    outer loop
      vertex 1.17849 -2.2048 8
      vertex 0.956708 -2.3097 0
      vertex 1.17849 -2.2048 0
    endloop
  endfacet
  facet normal 0.595701 -0.803207 0
    outer loop
      vertex 1.38893 -2.07867 0
      vertex 1.58598 -1.93253 8
      vertex 1.38893 -2.07867 8
    endloop
  endfacet
  facet normal 0.595701 -0.803207 0
    outer loop
      vertex 1.58598 -1.93253 8
      vertex 1.38893 -2.07867 0
      vertex 1.58598 -1.93253 0
    endloop
  endfacet
  facet normal 0.514102 -0.857729 0
    outer loop
      vertex 1.17849 -2.2048 0
      vertex 1.38893 -2.07867 8
      vertex 1.17849 -2.2048 8
    endloop
  endfacet
  facet normal 0.514102 -0.857729 0
    outer loop
      vertex 1.38893 -2.07867 8
      vertex 1.17849 -2.2048 0
      vertex 1.38893 -2.07867 0
    endloop
  endfacet
  facet normal -0.595701 -0.803207 0
    outer loop
      vertex -1.58598 -1.93253 0
      vertex -1.38893 -2.07867 8
      vertex -1.58598 -1.93253 8
    endloop
  endfacet
  facet normal -0.595701 -0.803207 -0
    outer loop
      vertex -1.38893 -2.07867 8
      vertex -1.58598 -1.93253 0
      vertex -1.38893 -2.07867 0
    endloop
  endfacet
  facet normal -0.671556 -0.740954 0
    outer loop
      vertex -1.76777 -1.76777 0
      vertex -1.58598 -1.93253 8
      vertex -1.76777 -1.76777 8
    endloop
  endfacet
  facet normal -0.671556 -0.740954 -0
    outer loop
      vertex -1.58598 -1.93253 8
      vertex -1.76777 -1.76777 0
      vertex -1.58598 -1.93253 0
    endloop
  endfacet
  facet normal -0.514102 -0.857729 0
    outer loop
      vertex -1.38893 -2.07867 0
      vertex -1.17849 -2.2048 8
      vertex -1.38893 -2.07867 8
    endloop
  endfacet
  facet normal -0.514102 -0.857729 -0
    outer loop
      vertex -1.17849 -2.2048 8
      vertex -1.38893 -2.07867 0
      vertex -1.17849 -2.2048 0
    endloop
  endfacet
  facet normal -0.146733 -0.989176 0
    outer loop
      vertex -0.487725 -2.45196 0
      vertex -0.245043 -2.48796 8
      vertex -0.487725 -2.45196 8
    endloop
  endfacet
  facet normal -0.146733 -0.989176 -0
    outer loop
      vertex -0.245043 -2.48796 8
      vertex -0.487725 -2.45196 0
      vertex -0.245043 -2.48796 0
    endloop
  endfacet
  facet normal -0.90399 -0.427554 0
    outer loop
      vertex -2.2048 -1.17849 0
      vertex -2.3097 -0.956708 8
      vertex -2.3097 -0.956708 0
    endloop
  endfacet
  facet normal -0.90399 -0.427554 0
    outer loop
      vertex -2.3097 -0.956708 8
      vertex -2.2048 -1.17849 0
      vertex -2.2048 -1.17849 8
    endloop
  endfacet
  facet normal -0.941544 -0.33689 0
    outer loop
      vertex -2.3097 -0.956708 0
      vertex -2.39235 -0.725711 8
      vertex -2.39235 -0.725711 0
    endloop
  endfacet
  facet normal -0.941544 -0.33689 0
    outer loop
      vertex -2.39235 -0.725711 8
      vertex -2.3097 -0.956708 0
      vertex -2.3097 -0.956708 8
    endloop
  endfacet
  facet normal -0.998795 -0.0490679 0
    outer loop
      vertex -2.48796 -0.245043 0
      vertex -2.5 0 8
      vertex -2.5 0 0
    endloop
  endfacet
  facet normal -0.998795 -0.0490679 0
    outer loop
      vertex -2.5 0 8
      vertex -2.48796 -0.245043 0
      vertex -2.48796 -0.245043 8
    endloop
  endfacet
  facet normal 0.803207 0.595701 0
    outer loop
      vertex 2.07867 1.38893 8
      vertex 1.93253 1.58598 0
      vertex 1.93253 1.58598 8
    endloop
  endfacet
  facet normal 0.803207 0.595701 0
    outer loop
      vertex 1.93253 1.58598 0
      vertex 2.07867 1.38893 8
      vertex 2.07867 1.38893 0
    endloop
  endfacet
  facet normal 0.514102 0.857729 -0
    outer loop
      vertex 1.38893 2.07867 0
      vertex 1.17849 2.2048 8
      vertex 1.38893 2.07867 8
    endloop
  endfacet
  facet normal 0.514102 0.857729 0
    outer loop
      vertex 1.17849 2.2048 8
      vertex 1.38893 2.07867 0
      vertex 1.17849 2.2048 0
    endloop
  endfacet
  facet normal -0.941544 0.33689 0
    outer loop
      vertex -2.39235 0.725711 0
      vertex -2.3097 0.956708 8
      vertex -2.3097 0.956708 0
    endloop
  endfacet
  facet normal -0.941544 0.33689 0
    outer loop
      vertex -2.3097 0.956708 8
      vertex -2.39235 0.725711 0
      vertex -2.39235 0.725711 8
    endloop
  endfacet
  facet normal -0.595701 0.803207 0
    outer loop
      vertex -1.38893 2.07867 0
      vertex -1.58598 1.93253 8
      vertex -1.38893 2.07867 8
    endloop
  endfacet
  facet normal -0.595701 0.803207 0
    outer loop
      vertex -1.58598 1.93253 8
      vertex -1.38893 2.07867 0
      vertex -1.58598 1.93253 0
    endloop
  endfacet
  facet normal -0.427554 0.90399 0
    outer loop
      vertex -0.956708 2.3097 0
      vertex -1.17849 2.2048 8
      vertex -0.956708 2.3097 8
    endloop
  endfacet
  facet normal -0.427554 0.90399 0
    outer loop
      vertex -1.17849 2.2048 8
      vertex -0.956708 2.3097 0
      vertex -1.17849 2.2048 0
    endloop
  endfacet
  facet normal 0.90399 -0.427554 0
    outer loop
      vertex 2.2048 -1.17849 8
      vertex 2.3097 -0.956708 0
      vertex 2.3097 -0.956708 8
    endloop
  endfacet
  facet normal 0.90399 -0.427554 0
    outer loop
      vertex 2.3097 -0.956708 0
      vertex 2.2048 -1.17849 8
      vertex 2.2048 -1.17849 0
    endloop
  endfacet
  facet normal 0.989176 -0.146733 0
    outer loop
      vertex 2.45196 -0.487725 8
      vertex 2.48796 -0.245043 0
      vertex 2.48796 -0.245043 8
    endloop
  endfacet
  facet normal 0.989176 -0.146733 0
    outer loop
      vertex 2.48796 -0.245043 0
      vertex 2.45196 -0.487725 8
      vertex 2.45196 -0.487725 0
    endloop
  endfacet
  facet normal 0.146733 -0.989176 0
    outer loop
      vertex 0.245043 -2.48796 0
      vertex 0.487725 -2.45196 8
      vertex 0.245043 -2.48796 8
    endloop
  endfacet
  facet normal 0.146733 -0.989176 0
    outer loop
      vertex 0.487725 -2.45196 8
      vertex 0.245043 -2.48796 0
      vertex 0.487725 -2.45196 0
    endloop
  endfacet
  facet normal 0.33689 -0.941544 0
    outer loop
      vertex 0.725711 -2.39235 0
      vertex 0.956708 -2.3097 8
      vertex 0.725711 -2.39235 8
    endloop
  endfacet
  facet normal 0.33689 -0.941544 0
    outer loop
      vertex 0.956708 -2.3097 8
      vertex 0.725711 -2.39235 0
      vertex 0.956708 -2.3097 0
    endloop
  endfacet
  facet normal 0.740954 -0.671556 0
    outer loop
      vertex 1.76777 -1.76777 8
      vertex 1.93253 -1.58598 0
      vertex 1.93253 -1.58598 8
    endloop
  endfacet
  facet normal 0.740954 -0.671556 0
    outer loop
      vertex 1.93253 -1.58598 0
      vertex 1.76777 -1.76777 8
      vertex 1.76777 -1.76777 0
    endloop
  endfacet
  facet normal -0.427554 -0.90399 0
    outer loop
      vertex -1.17849 -2.2048 0
      vertex -0.956708 -2.3097 8
      vertex -1.17849 -2.2048 8
    endloop
  endfacet
  facet normal -0.427554 -0.90399 -0
    outer loop
      vertex -0.956708 -2.3097 8
      vertex -1.17849 -2.2048 0
      vertex -0.956708 -2.3097 0
    endloop
  endfacet
  facet normal -0.24298 -0.970031 0
    outer loop
      vertex -0.725711 -2.39235 0
      vertex -0.487725 -2.45196 8
      vertex -0.725711 -2.39235 8
    endloop
  endfacet
  facet normal -0.24298 -0.970031 -0
    outer loop
      vertex -0.487725 -2.45196 8
      vertex -0.725711 -2.39235 0
      vertex -0.487725 -2.45196 0
    endloop
  endfacet
  facet normal -0.857729 -0.514102 0
    outer loop
      vertex -2.07867 -1.38893 0
      vertex -2.2048 -1.17849 8
      vertex -2.2048 -1.17849 0
    endloop
  endfacet
  facet normal -0.857729 -0.514102 0
    outer loop
      vertex -2.2048 -1.17849 8
      vertex -2.07867 -1.38893 0
      vertex -2.07867 -1.38893 8
    endloop
  endfacet
  facet normal -0.989176 -0.146733 0
    outer loop
      vertex -2.45196 -0.487725 0
      vertex -2.48796 -0.245043 8
      vertex -2.48796 -0.245043 0
    endloop
  endfacet
  facet normal -0.989176 -0.146733 0
    outer loop
      vertex -2.48796 -0.245043 8
      vertex -2.45196 -0.487725 0
      vertex -2.45196 -0.487725 8
    endloop
  endfacet
  facet normal 0.941544 -0.33689 0
    outer loop
      vertex 2.3097 -0.956708 8
      vertex 2.39235 -0.725711 0
      vertex 2.39235 -0.725711 8
    endloop
  endfacet
  facet normal 0.941544 -0.33689 0
    outer loop
      vertex 2.39235 -0.725711 0
      vertex 2.3097 -0.956708 8
      vertex 2.3097 -0.956708 0
    endloop
  endfacet
  facet normal 0.803207 -0.595701 0
    outer loop
      vertex 1.93253 -1.58598 8
      vertex 2.07867 -1.38893 0
      vertex 2.07867 -1.38893 8
    endloop
  endfacet
  facet normal 0.803207 -0.595701 0
    outer loop
      vertex 2.07867 -1.38893 0
      vertex 1.93253 -1.58598 8
      vertex 1.93253 -1.58598 0
    endloop
  endfacet
  facet normal 0.970031 -0.24298 0
    outer loop
      vertex 2.39235 -0.725711 8
      vertex 2.45196 -0.487725 0
      vertex 2.45196 -0.487725 8
    endloop
  endfacet
  facet normal 0.970031 -0.24298 0
    outer loop
      vertex 2.45196 -0.487725 0
      vertex 2.39235 -0.725711 8
      vertex 2.39235 -0.725711 0
    endloop
  endfacet
  facet normal -0.998795 -0.0490725 0
    outer loop
      vertex 1.45 0 0
      vertex 1.44302 0.142124 8
      vertex 1.44302 0.142124 0
    endloop
  endfacet
  facet normal -0.998795 -0.0490725 0
    outer loop
      vertex 1.44302 0.142124 8
      vertex 1.45 0 0
      vertex 1.45 0 8
    endloop
  endfacet
  facet normal 0.998795 -0.0490725 0
    outer loop
      vertex -1.45 0 8
      vertex -1.44302 0.142124 0
      vertex -1.44302 0.142124 8
    endloop
  endfacet
  facet normal 0.998795 -0.0490725 0
    outer loop
      vertex -1.44302 0.142124 0
      vertex -1.45 0 8
      vertex -1.45 0 0
    endloop
  endfacet
  facet normal -0.0490725 -0.998795 0
    outer loop
      vertex 0 1.45 0
      vertex 0.142124 1.44302 8
      vertex 0 1.45 8
    endloop
  endfacet
  facet normal -0.0490725 -0.998795 -0
    outer loop
      vertex 0.142124 1.44302 8
      vertex 0 1.45 0
      vertex 0.142124 1.44302 0
    endloop
  endfacet
  facet normal 0.740955 0.671555 0
    outer loop
      vertex -1.0253 -1.0253 8
      vertex -1.12086 -0.919869 0
      vertex -1.12086 -0.919869 8
    endloop
  endfacet
  facet normal 0.740955 0.671555 0
    outer loop
      vertex -1.12086 -0.919869 0
      vertex -1.0253 -1.0253 8
      vertex -1.0253 -1.0253 0
    endloop
  endfacet
  facet normal -0.740955 -0.671555 0
    outer loop
      vertex 1.12086 0.919869 0
      vertex 1.0253 1.0253 8
      vertex 1.0253 1.0253 0
    endloop
  endfacet
  facet normal -0.740955 -0.671555 0
    outer loop
      vertex 1.0253 1.0253 8
      vertex 1.12086 0.919869 0
      vertex 1.12086 0.919869 8
    endloop
  endfacet
  facet normal 0.671555 -0.740955 0
    outer loop
      vertex -1.0253 1.0253 0
      vertex -0.919869 1.12086 8
      vertex -1.0253 1.0253 8
    endloop
  endfacet
  facet normal 0.671555 -0.740955 0
    outer loop
      vertex -0.919869 1.12086 8
      vertex -1.0253 1.0253 0
      vertex -0.919869 1.12086 0
    endloop
  endfacet
  facet normal 0.336892 -0.941543 0
    outer loop
      vertex -0.554891 1.33962 0
      vertex -0.420913 1.38756 8
      vertex -0.554891 1.33962 8
    endloop
  endfacet
  facet normal 0.336892 -0.941543 0
    outer loop
      vertex -0.420913 1.38756 8
      vertex -0.554891 1.33962 0
      vertex -0.420913 1.38756 0
    endloop
  endfacet
  facet normal -0.903992 -0.42755 0
    outer loop
      vertex 1.33962 0.554891 0
      vertex 1.27879 0.683525 8
      vertex 1.27879 0.683525 0
    endloop
  endfacet
  facet normal -0.903992 -0.42755 0
    outer loop
      vertex 1.27879 0.683525 8
      vertex 1.33962 0.554891 0
      vertex 1.33962 0.554891 8
    endloop
  endfacet
  facet normal -0.42755 -0.903992 0
    outer loop
      vertex 0.554891 1.33962 0
      vertex 0.683525 1.27879 8
      vertex 0.554891 1.33962 8
    endloop
  endfacet
  facet normal -0.42755 -0.903992 -0
    outer loop
      vertex 0.683525 1.27879 8
      vertex 0.554891 1.33962 0
      vertex 0.683525 1.27879 0
    endloop
  endfacet
  facet normal -0.595699 -0.803208 0
    outer loop
      vertex 0.805576 1.20563 0
      vertex 0.919869 1.12086 8
      vertex 0.805576 1.20563 8
    endloop
  endfacet
  facet normal -0.595699 -0.803208 -0
    outer loop
      vertex 0.919869 1.12086 8
      vertex 0.805576 1.20563 0
      vertex 0.919869 1.12086 0
    endloop
  endfacet
  facet normal 0.903992 -0.42755 0
    outer loop
      vertex -1.33962 0.554891 8
      vertex -1.27879 0.683525 0
      vertex -1.27879 0.683525 8
    endloop
  endfacet
  facet normal 0.903992 -0.42755 0
    outer loop
      vertex -1.27879 0.683525 0
      vertex -1.33962 0.554891 8
      vertex -1.33962 0.554891 0
    endloop
  endfacet
  facet normal 0.146727 -0.989177 0
    outer loop
      vertex -0.282881 1.42214 0
      vertex -0.142124 1.44302 8
      vertex -0.282881 1.42214 8
    endloop
  endfacet
  facet normal 0.146727 -0.989177 0
    outer loop
      vertex -0.142124 1.44302 8
      vertex -0.282881 1.42214 0
      vertex -0.142124 1.44302 0
    endloop
  endfacet
  facet normal -0.970031 0.242982 0
    outer loop
      vertex 1.38756 -0.420913 0
      vertex 1.42214 -0.282881 8
      vertex 1.42214 -0.282881 0
    endloop
  endfacet
  facet normal -0.970031 0.242982 0
    outer loop
      vertex 1.42214 -0.282881 8
      vertex 1.38756 -0.420913 0
      vertex 1.38756 -0.420913 8
    endloop
  endfacet
  facet normal -0.970031 -0.242982 0
    outer loop
      vertex 1.42214 0.282881 0
      vertex 1.38756 0.420913 8
      vertex 1.38756 0.420913 0
    endloop
  endfacet
  facet normal -0.970031 -0.242982 0
    outer loop
      vertex 1.38756 0.420913 8
      vertex 1.42214 0.282881 0
      vertex 1.42214 0.282881 8
    endloop
  endfacet
  facet normal -0.989177 -0.146727 0
    outer loop
      vertex 1.44302 0.142124 0
      vertex 1.42214 0.282881 8
      vertex 1.42214 0.282881 0
    endloop
  endfacet
  facet normal -0.989177 -0.146727 0
    outer loop
      vertex 1.42214 0.282881 8
      vertex 1.44302 0.142124 0
      vertex 1.44302 0.142124 8
    endloop
  endfacet
  facet normal -0.941543 -0.336892 0
    outer loop
      vertex 1.38756 0.420913 0
      vertex 1.33962 0.554891 8
      vertex 1.33962 0.554891 0
    endloop
  endfacet
  facet normal -0.941543 -0.336892 0
    outer loop
      vertex 1.33962 0.554891 8
      vertex 1.38756 0.420913 0
      vertex 1.38756 0.420913 8
    endloop
  endfacet
  facet normal -0.803208 -0.595699 0
    outer loop
      vertex 1.20563 0.805576 0
      vertex 1.12086 0.919869 8
      vertex 1.12086 0.919869 0
    endloop
  endfacet
  facet normal -0.803208 -0.595699 0
    outer loop
      vertex 1.12086 0.919869 8
      vertex 1.20563 0.805576 0
      vertex 1.20563 0.805576 8
    endloop
  endfacet
  facet normal -0.857726 -0.514106 0
    outer loop
      vertex 1.27879 0.683525 0
      vertex 1.20563 0.805576 8
      vertex 1.20563 0.805576 0
    endloop
  endfacet
  facet normal -0.857726 -0.514106 0
    outer loop
      vertex 1.20563 0.805576 8
      vertex 1.27879 0.683525 0
      vertex 1.27879 0.683525 8
    endloop
  endfacet
  facet normal -0.242982 -0.970031 0
    outer loop
      vertex 0.282881 1.42214 0
      vertex 0.420913 1.38756 8
      vertex 0.282881 1.42214 8
    endloop
  endfacet
  facet normal -0.242982 -0.970031 -0
    outer loop
      vertex 0.420913 1.38756 8
      vertex 0.282881 1.42214 0
      vertex 0.420913 1.38756 0
    endloop
  endfacet
  facet normal -0.336892 -0.941543 0
    outer loop
      vertex 0.420913 1.38756 0
      vertex 0.554891 1.33962 8
      vertex 0.420913 1.38756 8
    endloop
  endfacet
  facet normal -0.336892 -0.941543 -0
    outer loop
      vertex 0.554891 1.33962 8
      vertex 0.420913 1.38756 0
      vertex 0.554891 1.33962 0
    endloop
  endfacet
  facet normal -0.146727 -0.989177 0
    outer loop
      vertex 0.142124 1.44302 0
      vertex 0.282881 1.42214 8
      vertex 0.142124 1.44302 8
    endloop
  endfacet
  facet normal -0.146727 -0.989177 -0
    outer loop
      vertex 0.282881 1.42214 8
      vertex 0.142124 1.44302 0
      vertex 0.282881 1.42214 0
    endloop
  endfacet
  facet normal -0.514106 -0.857726 0
    outer loop
      vertex 0.683525 1.27879 0
      vertex 0.805576 1.20563 8
      vertex 0.683525 1.27879 8
    endloop
  endfacet
  facet normal -0.514106 -0.857726 -0
    outer loop
      vertex 0.805576 1.20563 8
      vertex 0.683525 1.27879 0
      vertex 0.805576 1.20563 0
    endloop
  endfacet
  facet normal -0.671555 -0.740955 0
    outer loop
      vertex 0.919869 1.12086 0
      vertex 1.0253 1.0253 8
      vertex 0.919869 1.12086 8
    endloop
  endfacet
  facet normal -0.671555 -0.740955 -0
    outer loop
      vertex 1.0253 1.0253 8
      vertex 0.919869 1.12086 0
      vertex 1.0253 1.0253 0
    endloop
  endfacet
  facet normal 0.970031 -0.242982 0
    outer loop
      vertex -1.42214 0.282881 8
      vertex -1.38756 0.420913 0
      vertex -1.38756 0.420913 8
    endloop
  endfacet
  facet normal 0.970031 -0.242982 0
    outer loop
      vertex -1.38756 0.420913 0
      vertex -1.42214 0.282881 8
      vertex -1.42214 0.282881 0
    endloop
  endfacet
  facet normal 0.803208 -0.595699 0
    outer loop
      vertex -1.20563 0.805576 8
      vertex -1.12086 0.919869 0
      vertex -1.12086 0.919869 8
    endloop
  endfacet
  facet normal 0.803208 -0.595699 0
    outer loop
      vertex -1.12086 0.919869 0
      vertex -1.20563 0.805576 8
      vertex -1.20563 0.805576 0
    endloop
  endfacet
  facet normal 0.740955 -0.671555 0
    outer loop
      vertex -1.12086 0.919869 8
      vertex -1.0253 1.0253 0
      vertex -1.0253 1.0253 8
    endloop
  endfacet
  facet normal 0.740955 -0.671555 0
    outer loop
      vertex -1.0253 1.0253 0
      vertex -1.12086 0.919869 8
      vertex -1.12086 0.919869 0
    endloop
  endfacet
  facet normal 0.857726 -0.514106 0
    outer loop
      vertex -1.27879 0.683525 8
      vertex -1.20563 0.805576 0
      vertex -1.20563 0.805576 8
    endloop
  endfacet
  facet normal 0.857726 -0.514106 0
    outer loop
      vertex -1.20563 0.805576 0
      vertex -1.27879 0.683525 8
      vertex -1.27879 0.683525 0
    endloop
  endfacet
  facet normal 0.941543 -0.336892 0
    outer loop
      vertex -1.38756 0.420913 8
      vertex -1.33962 0.554891 0
      vertex -1.33962 0.554891 8
    endloop
  endfacet
  facet normal 0.941543 -0.336892 0
    outer loop
      vertex -1.33962 0.554891 0
      vertex -1.38756 0.420913 8
      vertex -1.38756 0.420913 0
    endloop
  endfacet
  facet normal 0.989177 -0.146727 0
    outer loop
      vertex -1.44302 0.142124 8
      vertex -1.42214 0.282881 0
      vertex -1.42214 0.282881 8
    endloop
  endfacet
  facet normal 0.989177 -0.146727 0
    outer loop
      vertex -1.42214 0.282881 0
      vertex -1.44302 0.142124 8
      vertex -1.44302 0.142124 0
    endloop
  endfacet
  facet normal 0.514106 -0.857726 0
    outer loop
      vertex -0.805576 1.20563 0
      vertex -0.683525 1.27879 8
      vertex -0.805576 1.20563 8
    endloop
  endfacet
  facet normal 0.514106 -0.857726 0
    outer loop
      vertex -0.683525 1.27879 8
      vertex -0.805576 1.20563 0
      vertex -0.683525 1.27879 0
    endloop
  endfacet
  facet normal 0.42755 -0.903992 0
    outer loop
      vertex -0.683525 1.27879 0
      vertex -0.554891 1.33962 8
      vertex -0.683525 1.27879 8
    endloop
  endfacet
  facet normal 0.42755 -0.903992 0
    outer loop
      vertex -0.554891 1.33962 8
      vertex -0.683525 1.27879 0
      vertex -0.554891 1.33962 0
    endloop
  endfacet
  facet normal 0.595699 -0.803208 0
    outer loop
      vertex -0.919869 1.12086 0
      vertex -0.805576 1.20563 8
      vertex -0.919869 1.12086 8
    endloop
  endfacet
  facet normal 0.595699 -0.803208 0
    outer loop
      vertex -0.805576 1.20563 8
      vertex -0.919869 1.12086 0
      vertex -0.805576 1.20563 0
    endloop
  endfacet
  facet normal 0.242982 -0.970031 0
    outer loop
      vertex -0.420913 1.38756 0
      vertex -0.282881 1.42214 8
      vertex -0.420913 1.38756 8
    endloop
  endfacet
  facet normal 0.242982 -0.970031 0
    outer loop
      vertex -0.282881 1.42214 8
      vertex -0.420913 1.38756 0
      vertex -0.282881 1.42214 0
    endloop
  endfacet
  facet normal 0.0490725 -0.998795 0
    outer loop
      vertex -0.142124 1.44302 0
      vertex 0 1.45 8
      vertex -0.142124 1.44302 8
    endloop
  endfacet
  facet normal 0.0490725 -0.998795 0
    outer loop
      vertex 0 1.45 8
      vertex -0.142124 1.44302 0
      vertex 0 1.45 0
    endloop
  endfacet
  facet normal -0.998795 0.0490725 0
    outer loop
      vertex 1.44302 -0.142124 0
      vertex 1.45 0 8
      vertex 1.45 0 0
    endloop
  endfacet
  facet normal -0.998795 0.0490725 0
    outer loop
      vertex 1.45 0 8
      vertex 1.44302 -0.142124 0
      vertex 1.44302 -0.142124 8
    endloop
  endfacet
  facet normal -0.0490725 0.998795 0
    outer loop
      vertex 0.142124 -1.44302 0
      vertex 0 -1.45 8
      vertex 0.142124 -1.44302 8
    endloop
  endfacet
  facet normal -0.0490725 0.998795 0
    outer loop
      vertex 0 -1.45 8
      vertex 0.142124 -1.44302 0
      vertex 0 -1.45 0
    endloop
  endfacet
  facet normal -0.242982 0.970031 0
    outer loop
      vertex 0.420913 -1.38756 0
      vertex 0.282881 -1.42214 8
      vertex 0.420913 -1.38756 8
    endloop
  endfacet
  facet normal -0.242982 0.970031 0
    outer loop
      vertex 0.282881 -1.42214 8
      vertex 0.420913 -1.38756 0
      vertex 0.282881 -1.42214 0
    endloop
  endfacet
  facet normal -0.595699 0.803208 0
    outer loop
      vertex 0.919869 -1.12086 0
      vertex 0.805576 -1.20563 8
      vertex 0.919869 -1.12086 8
    endloop
  endfacet
  facet normal -0.595699 0.803208 0
    outer loop
      vertex 0.805576 -1.20563 8
      vertex 0.919869 -1.12086 0
      vertex 0.805576 -1.20563 0
    endloop
  endfacet
  facet normal -0.42755 0.903992 0
    outer loop
      vertex 0.683525 -1.27879 0
      vertex 0.554891 -1.33962 8
      vertex 0.683525 -1.27879 8
    endloop
  endfacet
  facet normal -0.42755 0.903992 0
    outer loop
      vertex 0.554891 -1.33962 8
      vertex 0.683525 -1.27879 0
      vertex 0.554891 -1.33962 0
    endloop
  endfacet
  facet normal -0.740955 0.671555 0
    outer loop
      vertex 1.0253 -1.0253 0
      vertex 1.12086 -0.919869 8
      vertex 1.12086 -0.919869 0
    endloop
  endfacet
  facet normal -0.740955 0.671555 0
    outer loop
      vertex 1.12086 -0.919869 8
      vertex 1.0253 -1.0253 0
      vertex 1.0253 -1.0253 8
    endloop
  endfacet
  facet normal 0.671555 0.740955 -0
    outer loop
      vertex -0.919869 -1.12086 0
      vertex -1.0253 -1.0253 8
      vertex -0.919869 -1.12086 8
    endloop
  endfacet
  facet normal 0.671555 0.740955 0
    outer loop
      vertex -1.0253 -1.0253 8
      vertex -0.919869 -1.12086 0
      vertex -1.0253 -1.0253 0
    endloop
  endfacet
  facet normal 0.514106 0.857726 -0
    outer loop
      vertex -0.683525 -1.27879 0
      vertex -0.805576 -1.20563 8
      vertex -0.683525 -1.27879 8
    endloop
  endfacet
  facet normal 0.514106 0.857726 0
    outer loop
      vertex -0.805576 -1.20563 8
      vertex -0.683525 -1.27879 0
      vertex -0.805576 -1.20563 0
    endloop
  endfacet
  facet normal 0.336892 0.941543 -0
    outer loop
      vertex -0.420913 -1.38756 0
      vertex -0.554891 -1.33962 8
      vertex -0.420913 -1.38756 8
    endloop
  endfacet
  facet normal 0.336892 0.941543 0
    outer loop
      vertex -0.554891 -1.33962 8
      vertex -0.420913 -1.38756 0
      vertex -0.554891 -1.33962 0
    endloop
  endfacet
  facet normal 0.146727 0.989177 -0
    outer loop
      vertex -0.142124 -1.44302 0
      vertex -0.282881 -1.42214 8
      vertex -0.142124 -1.44302 8
    endloop
  endfacet
  facet normal 0.146727 0.989177 0
    outer loop
      vertex -0.282881 -1.42214 8
      vertex -0.142124 -1.44302 0
      vertex -0.282881 -1.42214 0
    endloop
  endfacet
  facet normal 0.903992 0.42755 0
    outer loop
      vertex -1.27879 -0.683525 8
      vertex -1.33962 -0.554891 0
      vertex -1.33962 -0.554891 8
    endloop
  endfacet
  facet normal 0.903992 0.42755 0
    outer loop
      vertex -1.33962 -0.554891 0
      vertex -1.27879 -0.683525 8
      vertex -1.27879 -0.683525 0
    endloop
  endfacet
  facet normal 0.803208 0.595699 0
    outer loop
      vertex -1.12086 -0.919869 8
      vertex -1.20563 -0.805576 0
      vertex -1.20563 -0.805576 8
    endloop
  endfacet
  facet normal 0.803208 0.595699 0
    outer loop
      vertex -1.20563 -0.805576 0
      vertex -1.12086 -0.919869 8
      vertex -1.12086 -0.919869 0
    endloop
  endfacet
  facet normal 0.970031 0.242982 0
    outer loop
      vertex -1.38756 -0.420913 8
      vertex -1.42214 -0.282881 0
      vertex -1.42214 -0.282881 8
    endloop
  endfacet
  facet normal 0.970031 0.242982 0
    outer loop
      vertex -1.42214 -0.282881 0
      vertex -1.38756 -0.420913 8
      vertex -1.38756 -0.420913 0
    endloop
  endfacet
  facet normal 0.998795 0.0490725 0
    outer loop
      vertex -1.44302 -0.142124 8
      vertex -1.45 0 0
      vertex -1.45 0 8
    endloop
  endfacet
  facet normal 0.998795 0.0490725 0
    outer loop
      vertex -1.45 0 0
      vertex -1.44302 -0.142124 8
      vertex -1.44302 -0.142124 0
    endloop
  endfacet
  facet normal -0.146727 0.989177 0
    outer loop
      vertex 0.282881 -1.42214 0
      vertex 0.142124 -1.44302 8
      vertex 0.282881 -1.42214 8
    endloop
  endfacet
  facet normal -0.146727 0.989177 0
    outer loop
      vertex 0.142124 -1.44302 8
      vertex 0.282881 -1.42214 0
      vertex 0.142124 -1.44302 0
    endloop
  endfacet
  facet normal -0.336892 0.941543 0
    outer loop
      vertex 0.554891 -1.33962 0
      vertex 0.420913 -1.38756 8
      vertex 0.554891 -1.33962 8
    endloop
  endfacet
  facet normal -0.336892 0.941543 0
    outer loop
      vertex 0.420913 -1.38756 8
      vertex 0.554891 -1.33962 0
      vertex 0.420913 -1.38756 0
    endloop
  endfacet
  facet normal -0.671555 0.740955 0
    outer loop
      vertex 1.0253 -1.0253 0
      vertex 0.919869 -1.12086 8
      vertex 1.0253 -1.0253 8
    endloop
  endfacet
  facet normal -0.671555 0.740955 0
    outer loop
      vertex 0.919869 -1.12086 8
      vertex 1.0253 -1.0253 0
      vertex 0.919869 -1.12086 0
    endloop
  endfacet
  facet normal -0.514106 0.857726 0
    outer loop
      vertex 0.805576 -1.20563 0
      vertex 0.683525 -1.27879 8
      vertex 0.805576 -1.20563 8
    endloop
  endfacet
  facet normal -0.514106 0.857726 0
    outer loop
      vertex 0.683525 -1.27879 8
      vertex 0.805576 -1.20563 0
      vertex 0.683525 -1.27879 0
    endloop
  endfacet
  facet normal 0.595699 0.803208 -0
    outer loop
      vertex -0.805576 -1.20563 0
      vertex -0.919869 -1.12086 8
      vertex -0.805576 -1.20563 8
    endloop
  endfacet
  facet normal 0.595699 0.803208 0
    outer loop
      vertex -0.919869 -1.12086 8
      vertex -0.805576 -1.20563 0
      vertex -0.919869 -1.12086 0
    endloop
  endfacet
  facet normal 0.42755 0.903992 -0
    outer loop
      vertex -0.554891 -1.33962 0
      vertex -0.683525 -1.27879 8
      vertex -0.554891 -1.33962 8
    endloop
  endfacet
  facet normal 0.42755 0.903992 0
    outer loop
      vertex -0.683525 -1.27879 8
      vertex -0.554891 -1.33962 0
      vertex -0.683525 -1.27879 0
    endloop
  endfacet
  facet normal 0.242982 0.970031 -0
    outer loop
      vertex -0.282881 -1.42214 0
      vertex -0.420913 -1.38756 8
      vertex -0.282881 -1.42214 8
    endloop
  endfacet
  facet normal 0.242982 0.970031 0
    outer loop
      vertex -0.420913 -1.38756 8
      vertex -0.282881 -1.42214 0
      vertex -0.420913 -1.38756 0
    endloop
  endfacet
  facet normal 0.0490725 0.998795 -0
    outer loop
      vertex 0 -1.45 0
      vertex -0.142124 -1.44302 8
      vertex 0 -1.45 8
    endloop
  endfacet
  facet normal 0.0490725 0.998795 0
    outer loop
      vertex -0.142124 -1.44302 8
      vertex 0 -1.45 0
      vertex -0.142124 -1.44302 0
    endloop
  endfacet
  facet normal 0.857726 0.514106 0
    outer loop
      vertex -1.20563 -0.805576 8
      vertex -1.27879 -0.683525 0
      vertex -1.27879 -0.683525 8
    endloop
  endfacet
  facet normal 0.857726 0.514106 0
    outer loop
      vertex -1.27879 -0.683525 0
      vertex -1.20563 -0.805576 8
      vertex -1.20563 -0.805576 0
    endloop
  endfacet
  facet normal 0.941543 0.336892 0
    outer loop
      vertex -1.33962 -0.554891 8
      vertex -1.38756 -0.420913 0
      vertex -1.38756 -0.420913 8
    endloop
  endfacet
  facet normal 0.941543 0.336892 0
    outer loop
      vertex -1.38756 -0.420913 0
      vertex -1.33962 -0.554891 8
      vertex -1.33962 -0.554891 0
    endloop
  endfacet
  facet normal 0.989177 0.146727 0
    outer loop
      vertex -1.42214 -0.282881 8
      vertex -1.44302 -0.142124 0
      vertex -1.44302 -0.142124 8
    endloop
  endfacet
  facet normal 0.989177 0.146727 0
    outer loop
      vertex -1.44302 -0.142124 0
      vertex -1.42214 -0.282881 8
      vertex -1.42214 -0.282881 0
    endloop
  endfacet
  facet normal -0.803208 0.595699 0
    outer loop
      vertex 1.12086 -0.919869 0
      vertex 1.20563 -0.805576 8
      vertex 1.20563 -0.805576 0
    endloop
  endfacet
  facet normal -0.803208 0.595699 0
    outer loop
      vertex 1.20563 -0.805576 8
      vertex 1.12086 -0.919869 0
      vertex 1.12086 -0.919869 8
    endloop
  endfacet
  facet normal -0.903992 0.42755 0
    outer loop
      vertex 1.27879 -0.683525 0
      vertex 1.33962 -0.554891 8
      vertex 1.33962 -0.554891 0
    endloop
  endfacet
  facet normal -0.903992 0.42755 0
    outer loop
      vertex 1.33962 -0.554891 8
      vertex 1.27879 -0.683525 0
      vertex 1.27879 -0.683525 8
    endloop
  endfacet
  facet normal -0.989177 0.146727 0
    outer loop
      vertex 1.42214 -0.282881 0
      vertex 1.44302 -0.142124 8
      vertex 1.44302 -0.142124 0
    endloop
  endfacet
  facet normal -0.989177 0.146727 0
    outer loop
      vertex 1.44302 -0.142124 8
      vertex 1.42214 -0.282881 0
      vertex 1.42214 -0.282881 8
    endloop
  endfacet
  facet normal -0.857726 0.514106 0
    outer loop
      vertex 1.20563 -0.805576 0
      vertex 1.27879 -0.683525 8
      vertex 1.27879 -0.683525 0
    endloop
  endfacet
  facet normal -0.857726 0.514106 0
    outer loop
      vertex 1.27879 -0.683525 8
      vertex 1.20563 -0.805576 0
      vertex 1.20563 -0.805576 8
    endloop
  endfacet
  facet normal -0.941543 0.336892 0
    outer loop
      vertex 1.33962 -0.554891 0
      vertex 1.38756 -0.420913 8
      vertex 1.38756 -0.420913 0
    endloop
  endfacet
  facet normal -0.941543 0.336892 0
    outer loop
      vertex 1.38756 -0.420913 8
      vertex 1.33962 -0.554891 0
      vertex 1.33962 -0.554891 8
    endloop
  endfacet
endsolid OpenSCAD_Model
