solid OpenSCAD_Model
  facet normal -0 0 1
    outer loop
      vertex 2 30 12
      vertex 16 26 12
      vertex 16 30 12
    endloop
  endfacet
  facet normal 0 0 1
    outer loop
      vertex 16 26 12
      vertex 2 30 12
      vertex 2 26 12
    endloop
  endfacet
  facet normal 0 0 1
    outer loop
      vertex 18 53 12
      vertex 2 50 12
      vertex 16 50 12
    endloop
  endfacet
  facet normal 0 0 1
    outer loop
      vertex -3 53 12
      vertex 2 30 12
      vertex 2 50 12
    endloop
  endfacet
  facet normal 0 0 1
    outer loop
      vertex 2 30 12
      vertex -3 53 12
      vertex 2 26 12
    endloop
  endfacet
  facet normal -0 0 1
    outer loop
      vertex -2.69939e-031 53 12
      vertex 2 50 12
      vertex 0 53 12
    endloop
  endfacet
  facet normal -0 0 1
    outer loop
      vertex 0 53 12
      vertex 2 50 12
      vertex 18 53 12
    endloop
  endfacet
  facet normal -0 0 1
    outer loop
      vertex 20 30 12
      vertex 34 26 12
      vertex 34 30 12
    endloop
  endfacet
  facet normal 0 0 1
    outer loop
      vertex 34 26 12
      vertex 20 30 12
      vertex 20 26 12
    endloop
  endfacet
  facet normal 0 0 1
    outer loop
      vertex 36 53 12
      vertex 20 50 12
      vertex 34 50 12
    endloop
  endfacet
  facet normal 0 0 1
    outer loop
      vertex 16 30 12
      vertex 20 30 12
      vertex 20 50 12
    endloop
  endfacet
  facet normal 0 0 1
    outer loop
      vertex 20 30 12
      vertex 16 30 12
      vertex 20 26 12
    endloop
  endfacet
  facet normal 0 0 1
    outer loop
      vertex 16 50 12
      vertex 20 50 12
      vertex 18 53 12
    endloop
  endfacet
  facet normal -0 0 1
    outer loop
      vertex 18 53 12
      vertex 20 50 12
      vertex 36 53 12
    endloop
  endfacet
  facet normal -0 0 1
    outer loop
      vertex 38 30 12
      vertex 52 26 12
      vertex 52 30 12
    endloop
  endfacet
  facet normal 0 0 1
    outer loop
      vertex 52 26 12
      vertex 38 30 12
      vertex 38 26 12
    endloop
  endfacet
  facet normal 0 0 1
    outer loop
      vertex 54 53 12
      vertex 38 50 12
      vertex 52 50 12
    endloop
  endfacet
  facet normal 0 0 1
    outer loop
      vertex 34 30 12
      vertex 38 30 12
      vertex 38 50 12
    endloop
  endfacet
  facet normal 0 0 1
    outer loop
      vertex 38 30 12
      vertex 34 30 12
      vertex 38 26 12
    endloop
  endfacet
  facet normal 0 0 1
    outer loop
      vertex 34 50 12
      vertex 38 50 12
      vertex 36 53 12
    endloop
  endfacet
  facet normal -0 0 1
    outer loop
      vertex 36 53 12
      vertex 38 50 12
      vertex 54 53 12
    endloop
  endfacet
  facet normal -0 0 1
    outer loop
      vertex 56 30 12
      vertex 70 26 12
      vertex 70 30 12
    endloop
  endfacet
  facet normal 0 0 1
    outer loop
      vertex 70 26 12
      vertex 56 30 12
      vertex 56 26 12
    endloop
  endfacet
  facet normal 0 0 1
    outer loop
      vertex 72 53 12
      vertex 56 50 12
      vertex 70 50 12
    endloop
  endfacet
  facet normal 0 0 1
    outer loop
      vertex 52 30 12
      vertex 56 30 12
      vertex 56 50 12
    endloop
  endfacet
  facet normal 0 0 1
    outer loop
      vertex 56 30 12
      vertex 52 30 12
      vertex 56 26 12
    endloop
  endfacet
  facet normal 0 0 1
    outer loop
      vertex 52 50 12
      vertex 56 50 12
      vertex 54 53 12
    endloop
  endfacet
  facet normal -0 0 1
    outer loop
      vertex 54 53 12
      vertex 56 50 12
      vertex 72 53 12
    endloop
  endfacet
  facet normal -0 0 1
    outer loop
      vertex 74 30 12
      vertex 88 26 12
      vertex 88 30 12
    endloop
  endfacet
  facet normal 0 0 1
    outer loop
      vertex 88 26 12
      vertex 74 30 12
      vertex 74 26 12
    endloop
  endfacet
  facet normal 0 0 1
    outer loop
      vertex 90 53 12
      vertex 74 50 12
      vertex 88 50 12
    endloop
  endfacet
  facet normal 0 0 1
    outer loop
      vertex 70 30 12
      vertex 74 30 12
      vertex 74 50 12
    endloop
  endfacet
  facet normal 0 0 1
    outer loop
      vertex 74 30 12
      vertex 70 30 12
      vertex 74 26 12
    endloop
  endfacet
  facet normal 0 0 1
    outer loop
      vertex 70 50 12
      vertex 74 50 12
      vertex 72 53 12
    endloop
  endfacet
  facet normal -0 0 1
    outer loop
      vertex 72 53 12
      vertex 74 50 12
      vertex 90 53 12
    endloop
  endfacet
  facet normal 0 0 1
    outer loop
      vertex 88 50 12
      vertex 93 53 12
      vertex 90 53 12
    endloop
  endfacet
  facet normal 0 0 1
    outer loop
      vertex 93 53 12
      vertex 88 50 12
      vertex 88 30 12
    endloop
  endfacet
  facet normal 0 0 1
    outer loop
      vertex 88 26 12
      vertex 93 53 12
      vertex 88 30 12
    endloop
  endfacet
  facet normal 0 0 1
    outer loop
      vertex 93 53 12
      vertex 88 26 12
      vertex 93 0 12
    endloop
  endfacet
  facet normal -0 0 1
    outer loop
      vertex 88 5 12
      vertex 93 0 12
      vertex 88 26 12
    endloop
  endfacet
  facet normal -0 0 1
    outer loop
      vertex 74 5 12
      vertex 93 0 12
      vertex 88 5 12
    endloop
  endfacet
  facet normal 0 0 1
    outer loop
      vertex 74 50 12
      vertex 70 50 12
      vertex 70 30 12
    endloop
  endfacet
  facet normal 0 0 1
    outer loop
      vertex 70 26 12
      vertex 74 26 12
      vertex 70 30 12
    endloop
  endfacet
  facet normal 0 0 1
    outer loop
      vertex 74 26 12
      vertex 70 26 12
      vertex 74 5 12
    endloop
  endfacet
  facet normal 0 0 1
    outer loop
      vertex 70 5 12
      vertex 74 5 12
      vertex 70 26 12
    endloop
  endfacet
  facet normal -0 0 1
    outer loop
      vertex 70 5 12
      vertex 93 0 12
      vertex 74 5 12
    endloop
  endfacet
  facet normal -0 0 1
    outer loop
      vertex 56 5 12
      vertex 93 0 12
      vertex 70 5 12
    endloop
  endfacet
  facet normal 0 0 1
    outer loop
      vertex 56 50 12
      vertex 52 50 12
      vertex 52 30 12
    endloop
  endfacet
  facet normal 0 0 1
    outer loop
      vertex 52 26 12
      vertex 56 26 12
      vertex 52 30 12
    endloop
  endfacet
  facet normal 0 0 1
    outer loop
      vertex 56 26 12
      vertex 52 26 12
      vertex 56 5 12
    endloop
  endfacet
  facet normal 0 0 1
    outer loop
      vertex 52 5 12
      vertex 56 5 12
      vertex 52 26 12
    endloop
  endfacet
  facet normal -0 0 1
    outer loop
      vertex 52 5 12
      vertex 93 0 12
      vertex 56 5 12
    endloop
  endfacet
  facet normal -0 0 1
    outer loop
      vertex 38 5 12
      vertex 93 0 12
      vertex 52 5 12
    endloop
  endfacet
  facet normal 0 0 1
    outer loop
      vertex 38 50 12
      vertex 34 50 12
      vertex 34 30 12
    endloop
  endfacet
  facet normal 0 0 1
    outer loop
      vertex 34 26 12
      vertex 38 26 12
      vertex 34 30 12
    endloop
  endfacet
  facet normal 0 0 1
    outer loop
      vertex 38 26 12
      vertex 34 26 12
      vertex 38 5 12
    endloop
  endfacet
  facet normal 0 0 1
    outer loop
      vertex 34 5 12
      vertex 38 5 12
      vertex 34 26 12
    endloop
  endfacet
  facet normal 0 0 1
    outer loop
      vertex -3 0 12
      vertex 38 5 12
      vertex 34 5 12
    endloop
  endfacet
  facet normal 0 0 1
    outer loop
      vertex -3 0 12
      vertex 34 5 12
      vertex 20 5 12
    endloop
  endfacet
  facet normal 0 0 1
    outer loop
      vertex 20 50 12
      vertex 16 50 12
      vertex 16 30 12
    endloop
  endfacet
  facet normal 0 0 1
    outer loop
      vertex 16 26 12
      vertex 20 26 12
      vertex 16 30 12
    endloop
  endfacet
  facet normal 0 0 1
    outer loop
      vertex 20 26 12
      vertex 16 26 12
      vertex 20 5 12
    endloop
  endfacet
  facet normal 0 0 1
    outer loop
      vertex 16 5 12
      vertex 20 5 12
      vertex 16 26 12
    endloop
  endfacet
  facet normal 0 0 1
    outer loop
      vertex -3 0 12
      vertex 20 5 12
      vertex 16 5 12
    endloop
  endfacet
  facet normal 0 0 1
    outer loop
      vertex -3 0 12
      vertex 16 5 12
      vertex 2 5 12
    endloop
  endfacet
  facet normal -0 0 1
    outer loop
      vertex -3 53 12
      vertex 2 50 12
      vertex -2.69939e-031 53 12
    endloop
  endfacet
  facet normal 0 0 1
    outer loop
      vertex -3 0 12
      vertex 2 26 12
      vertex -3 53 12
    endloop
  endfacet
  facet normal 0 0 1
    outer loop
      vertex 38 5 12
      vertex -3 0 12
      vertex 93 0 12
    endloop
  endfacet
  facet normal 0 0 1
    outer loop
      vertex 2 26 12
      vertex -3 0 12
      vertex 2 5 12
    endloop
  endfacet
  facet normal -1 0 0
    outer loop
      vertex 90 30 0
      vertex 90 53 12
      vertex 90 53 0
    endloop
  endfacet
  facet normal -1 -0 0
    outer loop
      vertex 90 53 12
      vertex 90 30 0
      vertex 90 30 12
    endloop
  endfacet
  facet normal 0 0 -1
    outer loop
      vertex 93 0 0
      vertex 90 53 0
      vertex 93 53 0
    endloop
  endfacet
  facet normal 0 0 -1
    outer loop
      vertex 93 0 0
      vertex 72 53 0
      vertex 90 53 0
    endloop
  endfacet
  facet normal 0 0 -1
    outer loop
      vertex 93 0 0
      vertex 54 53 0
      vertex 72 53 0
    endloop
  endfacet
  facet normal 0 0 -1
    outer loop
      vertex 93 0 0
      vertex 36 53 0
      vertex 54 53 0
    endloop
  endfacet
  facet normal 0 0 -1
    outer loop
      vertex -3 0 0
      vertex 36 53 0
      vertex 93 0 0
    endloop
  endfacet
  facet normal -0 0 -1
    outer loop
      vertex 36 53 0
      vertex -3 0 0
      vertex 18 53 0
    endloop
  endfacet
  facet normal 0 0 0
    outer loop
      vertex 18 53 0
      vertex -2.69939e-031 53 0
      vertex 0 53 0
    endloop
  endfacet
  facet normal -0 0 -1
    outer loop
      vertex 18 53 0
      vertex -3 0 0
      vertex -2.69939e-031 53 0
    endloop
  endfacet
  facet normal -0 0 -1
    outer loop
      vertex -2.69939e-031 53 0
      vertex -3 0 0
      vertex -3 53 0
    endloop
  endfacet
  facet normal 0 -1 0
    outer loop
      vertex -3 0 0
      vertex 93 0 12
      vertex -3 0 12
    endloop
  endfacet
  facet normal 0 -1 -0
    outer loop
      vertex 93 0 12
      vertex -3 0 0
      vertex 93 0 0
    endloop
  endfacet
  facet normal -1 0 0
    outer loop
      vertex -3 0 0
      vertex -3 53 12
      vertex -3 53 0
    endloop
  endfacet
  facet normal -1 -0 0
    outer loop
      vertex -3 53 12
      vertex -3 0 0
      vertex -3 0 12
    endloop
  endfacet
  facet normal 0 1 -0
    outer loop
      vertex -2.69939e-031 53 0
      vertex -3 53 12
      vertex -2.69939e-031 53 12
    endloop
  endfacet
  facet normal 0 1 0
    outer loop
      vertex -3 53 12
      vertex -2.69939e-031 53 0
      vertex -3 53 0
    endloop
  endfacet
  facet normal 1 -0 0
    outer loop
      vertex 93 0 12
      vertex 93 53 0
      vertex 93 53 12
    endloop
  endfacet
  facet normal 1 0 0
    outer loop
      vertex 93 53 0
      vertex 93 0 12
      vertex 93 0 0
    endloop
  endfacet
  facet normal 0 1 -0
    outer loop
      vertex 93 53 0
      vertex 90 53 12
      vertex 93 53 12
    endloop
  endfacet
  facet normal 0 1 0
    outer loop
      vertex 90 53 12
      vertex 93 53 0
      vertex 90 53 0
    endloop
  endfacet
  facet normal 1 -0 0
    outer loop
      vertex 2 5 12
      vertex 2 13.5 2
      vertex 2 26 12
    endloop
  endfacet
  facet normal 1 0 0
    outer loop
      vertex 2 13.5 2
      vertex 2 5 12
      vertex 2 5 2
    endloop
  endfacet
  facet normal -1 0 0
    outer loop
      vertex 16 5 12
      vertex 16 13.5 2
      vertex 16 5 2
    endloop
  endfacet
  facet normal -1 0 0
    outer loop
      vertex 16 13.5 2
      vertex 16 5 12
      vertex 16 26 12
    endloop
  endfacet
  facet normal -0 0 1
    outer loop
      vertex 2 13.5 2
      vertex 16 5 2
      vertex 16 13.5 2
    endloop
  endfacet
  facet normal 0 0 1
    outer loop
      vertex 16 5 2
      vertex 2 13.5 2
      vertex 2 5 2
    endloop
  endfacet
  facet normal 0 1 -0
    outer loop
      vertex 16 5 2
      vertex 2 5 12
      vertex 16 5 12
    endloop
  endfacet
  facet normal 0 1 0
    outer loop
      vertex 2 5 12
      vertex 16 5 2
      vertex 2 5 2
    endloop
  endfacet
  facet normal 0 -0.624695 0.780869
    outer loop
      vertex 2 26 12
      vertex 16 13.5 2
      vertex 16 26 12
    endloop
  endfacet
  facet normal 0 -0.624695 0.780869
    outer loop
      vertex 16 13.5 2
      vertex 2 26 12
      vertex 2 13.5 2
    endloop
  endfacet
  facet normal 1 -0 0
    outer loop
      vertex 20 5 12
      vertex 20 13.5 2
      vertex 20 26 12
    endloop
  endfacet
  facet normal 1 0 0
    outer loop
      vertex 20 13.5 2
      vertex 20 5 12
      vertex 20 5 2
    endloop
  endfacet
  facet normal -1 0 0
    outer loop
      vertex 34 5 12
      vertex 34 13.5 2
      vertex 34 5 2
    endloop
  endfacet
  facet normal -1 0 0
    outer loop
      vertex 34 13.5 2
      vertex 34 5 12
      vertex 34 26 12
    endloop
  endfacet
  facet normal -0 0 1
    outer loop
      vertex 20 13.5 2
      vertex 34 5 2
      vertex 34 13.5 2
    endloop
  endfacet
  facet normal 0 0 1
    outer loop
      vertex 34 5 2
      vertex 20 13.5 2
      vertex 20 5 2
    endloop
  endfacet
  facet normal 0 1 -0
    outer loop
      vertex 34 5 2
      vertex 20 5 12
      vertex 34 5 12
    endloop
  endfacet
  facet normal 0 1 0
    outer loop
      vertex 20 5 12
      vertex 34 5 2
      vertex 20 5 2
    endloop
  endfacet
  facet normal 0 -0.624695 0.780869
    outer loop
      vertex 20 26 12
      vertex 34 13.5 2
      vertex 34 26 12
    endloop
  endfacet
  facet normal 0 -0.624695 0.780869
    outer loop
      vertex 34 13.5 2
      vertex 20 26 12
      vertex 20 13.5 2
    endloop
  endfacet
  facet normal 1 -0 0
    outer loop
      vertex 38 5 12
      vertex 38 13.5 2
      vertex 38 26 12
    endloop
  endfacet
  facet normal 1 0 0
    outer loop
      vertex 38 13.5 2
      vertex 38 5 12
      vertex 38 5 2
    endloop
  endfacet
  facet normal -1 0 0
    outer loop
      vertex 52 5 12
      vertex 52 13.5 2
      vertex 52 5 2
    endloop
  endfacet
  facet normal -1 0 0
    outer loop
      vertex 52 13.5 2
      vertex 52 5 12
      vertex 52 26 12
    endloop
  endfacet
  facet normal -0 0 1
    outer loop
      vertex 38 13.5 2
      vertex 52 5 2
      vertex 52 13.5 2
    endloop
  endfacet
  facet normal 0 0 1
    outer loop
      vertex 52 5 2
      vertex 38 13.5 2
      vertex 38 5 2
    endloop
  endfacet
  facet normal 0 1 -0
    outer loop
      vertex 52 5 2
      vertex 38 5 12
      vertex 52 5 12
    endloop
  endfacet
  facet normal 0 1 0
    outer loop
      vertex 38 5 12
      vertex 52 5 2
      vertex 38 5 2
    endloop
  endfacet
  facet normal 0 -0.624695 0.780869
    outer loop
      vertex 38 26 12
      vertex 52 13.5 2
      vertex 52 26 12
    endloop
  endfacet
  facet normal 0 -0.624695 0.780869
    outer loop
      vertex 52 13.5 2
      vertex 38 26 12
      vertex 38 13.5 2
    endloop
  endfacet
  facet normal 1 -0 0
    outer loop
      vertex 56 5 12
      vertex 56 13.5 2
      vertex 56 26 12
    endloop
  endfacet
  facet normal 1 0 0
    outer loop
      vertex 56 13.5 2
      vertex 56 5 12
      vertex 56 5 2
    endloop
  endfacet
  facet normal -1 0 0
    outer loop
      vertex 70 5 12
      vertex 70 13.5 2
      vertex 70 5 2
    endloop
  endfacet
  facet normal -1 0 0
    outer loop
      vertex 70 13.5 2
      vertex 70 5 12
      vertex 70 26 12
    endloop
  endfacet
  facet normal -0 0 1
    outer loop
      vertex 56 13.5 2
      vertex 70 5 2
      vertex 70 13.5 2
    endloop
  endfacet
  facet normal 0 0 1
    outer loop
      vertex 70 5 2
      vertex 56 13.5 2
      vertex 56 5 2
    endloop
  endfacet
  facet normal 0 1 -0
    outer loop
      vertex 70 5 2
      vertex 56 5 12
      vertex 70 5 12
    endloop
  endfacet
  facet normal 0 1 0
    outer loop
      vertex 56 5 12
      vertex 70 5 2
      vertex 56 5 2
    endloop
  endfacet
  facet normal 0 -0.624695 0.780869
    outer loop
      vertex 56 26 12
      vertex 70 13.5 2
      vertex 70 26 12
    endloop
  endfacet
  facet normal 0 -0.624695 0.780869
    outer loop
      vertex 70 13.5 2
      vertex 56 26 12
      vertex 56 13.5 2
    endloop
  endfacet
  facet normal 1 -0 0
    outer loop
      vertex 74 5 12
      vertex 74 13.5 2
      vertex 74 26 12
    endloop
  endfacet
  facet normal 1 0 0
    outer loop
      vertex 74 13.5 2
      vertex 74 5 12
      vertex 74 5 2
    endloop
  endfacet
  facet normal -1 0 0
    outer loop
      vertex 88 5 12
      vertex 88 13.5 2
      vertex 88 5 2
    endloop
  endfacet
  facet normal -1 0 0
    outer loop
      vertex 88 13.5 2
      vertex 88 5 12
      vertex 88 26 12
    endloop
  endfacet
  facet normal -0 0 1
    outer loop
      vertex 74 13.5 2
      vertex 88 5 2
      vertex 88 13.5 2
    endloop
  endfacet
  facet normal 0 0 1
    outer loop
      vertex 88 5 2
      vertex 74 13.5 2
      vertex 74 5 2
    endloop
  endfacet
  facet normal 0 1 -0
    outer loop
      vertex 88 5 2
      vertex 74 5 12
      vertex 88 5 12
    endloop
  endfacet
  facet normal 0 1 0
    outer loop
      vertex 74 5 12
      vertex 88 5 2
      vertex 74 5 2
    endloop
  endfacet
  facet normal 0 -0.624695 0.780869
    outer loop
      vertex 74 26 12
      vertex 88 13.5 2
      vertex 88 26 12
    endloop
  endfacet
  facet normal 0 -0.624695 0.780869
    outer loop
      vertex 88 13.5 2
      vertex 74 26 12
      vertex 74 13.5 2
    endloop
  endfacet
  facet normal 0 1 0
    outer loop
      vertex 0 53 12
      vertex 0 53 0
      vertex -2.69939e-031 53 0
    endloop
  endfacet
  facet normal 0 1 0
    outer loop
      vertex 0 53 12
      vertex -2.69939e-031 53 0
      vertex -2.69939e-031 53 12
    endloop
  endfacet
  facet normal 0 1 -0
    outer loop
      vertex 18 53 0
      vertex 0 53 12
      vertex 18 53 12
    endloop
  endfacet
  facet normal 0 1 0
    outer loop
      vertex 0 53 12
      vertex 18 53 0
      vertex 0 53 0
    endloop
  endfacet
  facet normal -1 0 0
    outer loop
      vertex 16 42.5 2
      vertex 16 50 12
      vertex 16 50 2
    endloop
  endfacet
  facet normal -1 -0 0
    outer loop
      vertex 16 50 12
      vertex 16 42.5 2
      vertex 16 30 12
    endloop
  endfacet
  facet normal 1 0 0
    outer loop
      vertex 2 50 12
      vertex 2 42.5 2
      vertex 2 50 2
    endloop
  endfacet
  facet normal 1 0 -0
    outer loop
      vertex 2 42.5 2
      vertex 2 50 12
      vertex 2 30 12
    endloop
  endfacet
  facet normal -0 0 1
    outer loop
      vertex 2 50 2
      vertex 16 42.5 2
      vertex 16 50 2
    endloop
  endfacet
  facet normal 0 0 1
    outer loop
      vertex 16 42.5 2
      vertex 2 50 2
      vertex 2 42.5 2
    endloop
  endfacet
  facet normal -0 0.624695 0.780869
    outer loop
      vertex 2 42.5 2
      vertex 16 30 12
      vertex 16 42.5 2
    endloop
  endfacet
  facet normal 0 0.624695 0.780869
    outer loop
      vertex 16 30 12
      vertex 2 42.5 2
      vertex 2 30 12
    endloop
  endfacet
  facet normal 0 -1 0
    outer loop
      vertex 2 50 2
      vertex 16 50 12
      vertex 2 50 12
    endloop
  endfacet
  facet normal 0 -1 -0
    outer loop
      vertex 16 50 12
      vertex 2 50 2
      vertex 16 50 2
    endloop
  endfacet
  facet normal 0 1 -0
    outer loop
      vertex 36 53 0
      vertex 18 53 12
      vertex 36 53 12
    endloop
  endfacet
  facet normal 0 1 0
    outer loop
      vertex 18 53 12
      vertex 36 53 0
      vertex 18 53 0
    endloop
  endfacet
  facet normal -1 0 0
    outer loop
      vertex 34 42.5 2
      vertex 34 50 12
      vertex 34 50 2
    endloop
  endfacet
  facet normal -1 -0 0
    outer loop
      vertex 34 50 12
      vertex 34 42.5 2
      vertex 34 30 12
    endloop
  endfacet
  facet normal 1 0 0
    outer loop
      vertex 20 50 12
      vertex 20 42.5 2
      vertex 20 50 2
    endloop
  endfacet
  facet normal 1 0 -0
    outer loop
      vertex 20 42.5 2
      vertex 20 50 12
      vertex 20 30 12
    endloop
  endfacet
  facet normal -0 0 1
    outer loop
      vertex 20 50 2
      vertex 34 42.5 2
      vertex 34 50 2
    endloop
  endfacet
  facet normal 0 0 1
    outer loop
      vertex 34 42.5 2
      vertex 20 50 2
      vertex 20 42.5 2
    endloop
  endfacet
  facet normal -0 0.624695 0.780869
    outer loop
      vertex 20 42.5 2
      vertex 34 30 12
      vertex 34 42.5 2
    endloop
  endfacet
  facet normal 0 0.624695 0.780869
    outer loop
      vertex 34 30 12
      vertex 20 42.5 2
      vertex 20 30 12
    endloop
  endfacet
  facet normal 0 -1 0
    outer loop
      vertex 20 50 2
      vertex 34 50 12
      vertex 20 50 12
    endloop
  endfacet
  facet normal 0 -1 -0
    outer loop
      vertex 34 50 12
      vertex 20 50 2
      vertex 34 50 2
    endloop
  endfacet
  facet normal 0 1 -0
    outer loop
      vertex 54 53 0
      vertex 36 53 12
      vertex 54 53 12
    endloop
  endfacet
  facet normal 0 1 0
    outer loop
      vertex 36 53 12
      vertex 54 53 0
      vertex 36 53 0
    endloop
  endfacet
  facet normal -1 0 0
    outer loop
      vertex 52 42.5 2
      vertex 52 50 12
      vertex 52 50 2
    endloop
  endfacet
  facet normal -1 -0 0
    outer loop
      vertex 52 50 12
      vertex 52 42.5 2
      vertex 52 30 12
    endloop
  endfacet
  facet normal 1 0 0
    outer loop
      vertex 38 50 12
      vertex 38 42.5 2
      vertex 38 50 2
    endloop
  endfacet
  facet normal 1 0 -0
    outer loop
      vertex 38 42.5 2
      vertex 38 50 12
      vertex 38 30 12
    endloop
  endfacet
  facet normal -0 0 1
    outer loop
      vertex 38 50 2
      vertex 52 42.5 2
      vertex 52 50 2
    endloop
  endfacet
  facet normal 0 0 1
    outer loop
      vertex 52 42.5 2
      vertex 38 50 2
      vertex 38 42.5 2
    endloop
  endfacet
  facet normal -0 0.624695 0.780869
    outer loop
      vertex 38 42.5 2
      vertex 52 30 12
      vertex 52 42.5 2
    endloop
  endfacet
  facet normal 0 0.624695 0.780869
    outer loop
      vertex 52 30 12
      vertex 38 42.5 2
      vertex 38 30 12
    endloop
  endfacet
  facet normal 0 -1 0
    outer loop
      vertex 38 50 2
      vertex 52 50 12
      vertex 38 50 12
    endloop
  endfacet
  facet normal 0 -1 -0
    outer loop
      vertex 52 50 12
      vertex 38 50 2
      vertex 52 50 2
    endloop
  endfacet
  facet normal 0 1 -0
    outer loop
      vertex 72 53 0
      vertex 54 53 12
      vertex 72 53 12
    endloop
  endfacet
  facet normal 0 1 0
    outer loop
      vertex 54 53 12
      vertex 72 53 0
      vertex 54 53 0
    endloop
  endfacet
  facet normal -1 0 0
    outer loop
      vertex 70 42.5 2
      vertex 70 50 12
      vertex 70 50 2
    endloop
  endfacet
  facet normal -1 -0 0
    outer loop
      vertex 70 50 12
      vertex 70 42.5 2
      vertex 70 30 12
    endloop
  endfacet
  facet normal 1 0 0
    outer loop
      vertex 56 50 12
      vertex 56 42.5 2
      vertex 56 50 2
    endloop
  endfacet
  facet normal 1 0 -0
    outer loop
      vertex 56 42.5 2
      vertex 56 50 12
      vertex 56 30 12
    endloop
  endfacet
  facet normal -0 0 1
    outer loop
      vertex 56 50 2
      vertex 70 42.5 2
      vertex 70 50 2
    endloop
  endfacet
  facet normal 0 0 1
    outer loop
      vertex 70 42.5 2
      vertex 56 50 2
      vertex 56 42.5 2
    endloop
  endfacet
  facet normal -0 0.624695 0.780869
    outer loop
      vertex 56 42.5 2
      vertex 70 30 12
      vertex 70 42.5 2
    endloop
  endfacet
  facet normal 0 0.624695 0.780869
    outer loop
      vertex 70 30 12
      vertex 56 42.5 2
      vertex 56 30 12
    endloop
  endfacet
  facet normal 0 -1 0
    outer loop
      vertex 56 50 2
      vertex 70 50 12
      vertex 56 50 12
    endloop
  endfacet
  facet normal 0 -1 -0
    outer loop
      vertex 70 50 12
      vertex 56 50 2
      vertex 70 50 2
    endloop
  endfacet
  facet normal 1 -0 0
    outer loop
      vertex 90 30 12
      vertex 90 53 0
      vertex 90 53 12
    endloop
  endfacet
  facet normal 1 0 0
    outer loop
      vertex 90 53 0
      vertex 90 30 12
      vertex 90 30 0
    endloop
  endfacet
  facet normal 0 1 -0
    outer loop
      vertex 90 53 0
      vertex 72 53 12
      vertex 90 53 12
    endloop
  endfacet
  facet normal 0 1 0
    outer loop
      vertex 72 53 12
      vertex 90 53 0
      vertex 72 53 0
    endloop
  endfacet
  facet normal -1 0 0
    outer loop
      vertex 88 42.5 2
      vertex 88 50 12
      vertex 88 50 2
    endloop
  endfacet
  facet normal -1 -0 0
    outer loop
      vertex 88 50 12
      vertex 88 42.5 2
      vertex 88 30 12
    endloop
  endfacet
  facet normal 1 0 0
    outer loop
      vertex 74 50 12
      vertex 74 42.5 2
      vertex 74 50 2
    endloop
  endfacet
  facet normal 1 0 -0
    outer loop
      vertex 74 42.5 2
      vertex 74 50 12
      vertex 74 30 12
    endloop
  endfacet
  facet normal -0 0 1
    outer loop
      vertex 74 50 2
      vertex 88 42.5 2
      vertex 88 50 2
    endloop
  endfacet
  facet normal 0 0 1
    outer loop
      vertex 88 42.5 2
      vertex 74 50 2
      vertex 74 42.5 2
    endloop
  endfacet
  facet normal -0 0.624695 0.780869
    outer loop
      vertex 74 42.5 2
      vertex 88 30 12
      vertex 88 42.5 2
    endloop
  endfacet
  facet normal 0 0.624695 0.780869
    outer loop
      vertex 88 30 12
      vertex 74 42.5 2
      vertex 74 30 12
    endloop
  endfacet
  facet normal 0 -1 0
    outer loop
      vertex 74 50 2
      vertex 88 50 12
      vertex 74 50 12
    endloop
  endfacet
  facet normal 0 -1 -0
    outer loop
      vertex 88 50 12
      vertex 74 50 2
      vertex 88 50 2
    endloop
  endfacet
endsolid OpenSCAD_Model
