solid OpenSCAD_Model
  facet normal 0.671559 0.740951 -0
    outer loop
      vertex 2.12132 2.12132 0
      vertex 1.90318 2.31903 4
      vertex 2.12132 2.12132 4
    endloop
  endfacet
  facet normal 0.671559 0.740951 0
    outer loop
      vertex 1.90318 2.31903 4
      vertex 2.12132 2.12132 0
      vertex 1.90318 2.31903 0
    endloop
  endfacet
  facet normal 0.998795 -0.0490692 0
    outer loop
      vertex 2.98555 -0.294051 4
      vertex 3 0 0
      vertex 3 0 4
    endloop
  endfacet
  facet normal 0.998795 -0.0490692 0
    outer loop
      vertex 3 0 0
      vertex 2.98555 -0.294051 4
      vertex 2.98555 -0.294051 0
    endloop
  endfacet
  facet normal -0.336892 0.941543 0
    outer loop
      vertex -0.870853 2.87082 0
      vertex -1.14805 2.77164 4
      vertex -0.870853 2.87082 4
    endloop
  endfacet
  facet normal -0.336892 0.941543 0
    outer loop
      vertex -1.14805 2.77164 4
      vertex -0.870853 2.87082 0
      vertex -1.14805 2.77164 0
    endloop
  endfacet
  facet normal -0.90399 0.427554 0
    outer loop
      vertex -2.77164 1.14805 0
      vertex -2.64576 1.41419 4
      vertex -2.64576 1.41419 0
    endloop
  endfacet
  facet normal -0.90399 0.427554 0
    outer loop
      vertex -2.64576 1.41419 4
      vertex -2.77164 1.14805 0
      vertex -2.77164 1.14805 4
    endloop
  endfacet
  facet normal 0.90399 0.427554 0
    outer loop
      vertex 2.77164 1.14805 4
      vertex 2.64576 1.41419 0
      vertex 2.64576 1.41419 4
    endloop
  endfacet
  facet normal 0.90399 0.427554 0
    outer loop
      vertex 2.64576 1.41419 0
      vertex 2.77164 1.14805 4
      vertex 2.77164 1.14805 0
    endloop
  endfacet
  facet normal 0.857729 0.514102 0
    outer loop
      vertex 2.64576 1.41419 4
      vertex 2.49441 1.66671 0
      vertex 2.49441 1.66671 4
    endloop
  endfacet
  facet normal 0.857729 0.514102 0
    outer loop
      vertex 2.49441 1.66671 0
      vertex 2.64576 1.41419 4
      vertex 2.64576 1.41419 0
    endloop
  endfacet
  facet normal 0.427554 0.90399 -0
    outer loop
      vertex 1.41419 2.64576 0
      vertex 1.14805 2.77164 4
      vertex 1.41419 2.64576 4
    endloop
  endfacet
  facet normal 0.427554 0.90399 0
    outer loop
      vertex 1.14805 2.77164 4
      vertex 1.41419 2.64576 0
      vertex 1.14805 2.77164 0
    endloop
  endfacet
  facet normal 0.146731 0.989176 -0
    outer loop
      vertex 0.585271 2.94236 0
      vertex 0.294051 2.98555 4
      vertex 0.585271 2.94236 4
    endloop
  endfacet
  facet normal 0.146731 0.989176 0
    outer loop
      vertex 0.294051 2.98555 4
      vertex 0.585271 2.94236 0
      vertex 0.294051 2.98555 0
    endloop
  endfacet
  facet normal -0.989176 0.146731 0
    outer loop
      vertex -2.98555 0.294051 0
      vertex -2.94236 0.585271 4
      vertex -2.94236 0.585271 0
    endloop
  endfacet
  facet normal -0.989176 0.146731 0
    outer loop
      vertex -2.94236 0.585271 4
      vertex -2.98555 0.294051 0
      vertex -2.98555 0.294051 4
    endloop
  endfacet
  facet normal -0.740951 0.671559 0
    outer loop
      vertex -2.31903 1.90318 0
      vertex -2.12132 2.12132 4
      vertex -2.12132 2.12132 0
    endloop
  endfacet
  facet normal -0.740951 0.671559 0
    outer loop
      vertex -2.12132 2.12132 4
      vertex -2.31903 1.90318 0
      vertex -2.31903 1.90318 4
    endloop
  endfacet
  facet normal -0.146731 0.989176 0
    outer loop
      vertex -0.294051 2.98555 0
      vertex -0.585271 2.94236 4
      vertex -0.294051 2.98555 4
    endloop
  endfacet
  facet normal -0.146731 0.989176 0
    outer loop
      vertex -0.585271 2.94236 4
      vertex -0.294051 2.98555 0
      vertex -0.585271 2.94236 0
    endloop
  endfacet
  facet normal 0.941543 -0.336892 0
    outer loop
      vertex 2.77164 -1.14805 4
      vertex 2.87082 -0.870853 0
      vertex 2.87082 -0.870853 4
    endloop
  endfacet
  facet normal 0.941543 -0.336892 0
    outer loop
      vertex 2.87082 -0.870853 0
      vertex 2.77164 -1.14805 4
      vertex 2.77164 -1.14805 0
    endloop
  endfacet
  facet normal -0.146731 -0.989176 0
    outer loop
      vertex -0.585271 -2.94236 0
      vertex -0.294051 -2.98555 4
      vertex -0.585271 -2.94236 4
    endloop
  endfacet
  facet normal -0.146731 -0.989176 -0
    outer loop
      vertex -0.294051 -2.98555 4
      vertex -0.585271 -2.94236 0
      vertex -0.294051 -2.98555 0
    endloop
  endfacet
  facet normal -0.671559 -0.740951 0
    outer loop
      vertex -2.12132 -2.12132 0
      vertex -1.90318 -2.31903 4
      vertex -2.12132 -2.12132 4
    endloop
  endfacet
  facet normal -0.671559 -0.740951 -0
    outer loop
      vertex -1.90318 -2.31903 4
      vertex -2.12132 -2.12132 0
      vertex -1.90318 -2.31903 0
    endloop
  endfacet
  facet normal 0 0 -1
    outer loop
      vertex 2.98555 -0.294051 0
      vertex 2.98555 0.294051 0
      vertex 3 0 0
    endloop
  endfacet
  facet normal 0 0 -1
    outer loop
      vertex 2.94236 -0.585271 0
      vertex 2.98555 0.294051 0
      vertex 2.98555 -0.294051 0
    endloop
  endfacet
  facet normal 0 0 -1
    outer loop
      vertex 2.94236 -0.585271 0
      vertex 2.94236 0.585271 0
      vertex 2.98555 0.294051 0
    endloop
  endfacet
  facet normal 0 0 -1
    outer loop
      vertex 2.87082 -0.870853 0
      vertex 2.94236 0.585271 0
      vertex 2.94236 -0.585271 0
    endloop
  endfacet
  facet normal 0 0 -1
    outer loop
      vertex 2.87082 -0.870853 0
      vertex 2.87082 0.870853 0
      vertex 2.94236 0.585271 0
    endloop
  endfacet
  facet normal 0 0 -1
    outer loop
      vertex 2.77164 -1.14805 0
      vertex 2.87082 0.870853 0
      vertex 2.87082 -0.870853 0
    endloop
  endfacet
  facet normal 0 0 -1
    outer loop
      vertex 2.77164 -1.14805 0
      vertex 2.77164 1.14805 0
      vertex 2.87082 0.870853 0
    endloop
  endfacet
  facet normal 0 0 -1
    outer loop
      vertex 2.64576 -1.41419 0
      vertex 2.77164 1.14805 0
      vertex 2.77164 -1.14805 0
    endloop
  endfacet
  facet normal 0 0 -1
    outer loop
      vertex 2.64576 -1.41419 0
      vertex 2.64576 1.41419 0
      vertex 2.77164 1.14805 0
    endloop
  endfacet
  facet normal 0 0 -1
    outer loop
      vertex 2.49441 -1.66671 0
      vertex 2.64576 1.41419 0
      vertex 2.64576 -1.41419 0
    endloop
  endfacet
  facet normal 0 0 -1
    outer loop
      vertex 2.49441 -1.66671 0
      vertex 2.49441 1.66671 0
      vertex 2.64576 1.41419 0
    endloop
  endfacet
  facet normal 0 0 -1
    outer loop
      vertex 2.31903 -1.90318 0
      vertex 2.49441 1.66671 0
      vertex 2.49441 -1.66671 0
    endloop
  endfacet
  facet normal 0 0 -1
    outer loop
      vertex 2.31903 -1.90318 0
      vertex 2.31903 1.90318 0
      vertex 2.49441 1.66671 0
    endloop
  endfacet
  facet normal 0 0 -1
    outer loop
      vertex 2.12132 -2.12132 0
      vertex 2.31903 1.90318 0
      vertex 2.31903 -1.90318 0
    endloop
  endfacet
  facet normal 0 0 -1
    outer loop
      vertex 2.12132 -2.12132 0
      vertex 2.12132 2.12132 0
      vertex 2.31903 1.90318 0
    endloop
  endfacet
  facet normal 0 0 -1
    outer loop
      vertex 1.90318 -2.31903 0
      vertex 2.12132 2.12132 0
      vertex 2.12132 -2.12132 0
    endloop
  endfacet
  facet normal 0 0 -1
    outer loop
      vertex 1.90318 -2.31903 0
      vertex 1.90318 2.31903 0
      vertex 2.12132 2.12132 0
    endloop
  endfacet
  facet normal 0 0 -1
    outer loop
      vertex 1.66671 -2.49441 0
      vertex 1.90318 2.31903 0
      vertex 1.90318 -2.31903 0
    endloop
  endfacet
  facet normal 0 0 -1
    outer loop
      vertex 1.66671 -2.49441 0
      vertex 1.66671 2.49441 0
      vertex 1.90318 2.31903 0
    endloop
  endfacet
  facet normal 0 0 -1
    outer loop
      vertex 1.41419 -2.64576 0
      vertex 1.66671 2.49441 0
      vertex 1.66671 -2.49441 0
    endloop
  endfacet
  facet normal 0 0 -1
    outer loop
      vertex 1.41419 -2.64576 0
      vertex 1.41419 2.64576 0
      vertex 1.66671 2.49441 0
    endloop
  endfacet
  facet normal 0 0 -1
    outer loop
      vertex 1.14805 -2.77164 0
      vertex 1.41419 2.64576 0
      vertex 1.41419 -2.64576 0
    endloop
  endfacet
  facet normal 0 0 -1
    outer loop
      vertex 1.14805 -2.77164 0
      vertex 1.14805 2.77164 0
      vertex 1.41419 2.64576 0
    endloop
  endfacet
  facet normal 0 0 -1
    outer loop
      vertex 0.870853 -2.87082 0
      vertex 1.14805 2.77164 0
      vertex 1.14805 -2.77164 0
    endloop
  endfacet
  facet normal 0 0 -1
    outer loop
      vertex 0.870853 -2.87082 0
      vertex 0.870853 2.87082 0
      vertex 1.14805 2.77164 0
    endloop
  endfacet
  facet normal 0 0 -1
    outer loop
      vertex 0.585271 -2.94236 0
      vertex 0.870853 2.87082 0
      vertex 0.870853 -2.87082 0
    endloop
  endfacet
  facet normal 0 0 -1
    outer loop
      vertex 0.585271 -2.94236 0
      vertex 0.585271 2.94236 0
      vertex 0.870853 2.87082 0
    endloop
  endfacet
  facet normal 0 0 -1
    outer loop
      vertex 0.294051 -2.98555 0
      vertex 0.585271 2.94236 0
      vertex 0.585271 -2.94236 0
    endloop
  endfacet
  facet normal 0 0 -1
    outer loop
      vertex 0.294051 -2.98555 0
      vertex 0.294051 2.98555 0
      vertex 0.585271 2.94236 0
    endloop
  endfacet
  facet normal 0 0 -1
    outer loop
      vertex 0 -3 0
      vertex 0.294051 2.98555 0
      vertex 0.294051 -2.98555 0
    endloop
  endfacet
  facet normal 0 0 -1
    outer loop
      vertex 0 -3 0
      vertex 0 3 0
      vertex 0.294051 2.98555 0
    endloop
  endfacet
  facet normal 0 0 -1
    outer loop
      vertex -0.294051 -2.98555 0
      vertex 0 3 0
      vertex 0 -3 0
    endloop
  endfacet
  facet normal 0 0 -1
    outer loop
      vertex -0.294051 -2.98555 0
      vertex -0.294051 2.98555 0
      vertex 0 3 0
    endloop
  endfacet
  facet normal 0 0 -1
    outer loop
      vertex -0.585271 -2.94236 0
      vertex -0.294051 2.98555 0
      vertex -0.294051 -2.98555 0
    endloop
  endfacet
  facet normal 0 0 -1
    outer loop
      vertex -0.585271 -2.94236 0
      vertex -0.585271 2.94236 0
      vertex -0.294051 2.98555 0
    endloop
  endfacet
  facet normal 0 0 -1
    outer loop
      vertex -0.870853 -2.87082 0
      vertex -0.585271 2.94236 0
      vertex -0.585271 -2.94236 0
    endloop
  endfacet
  facet normal 0 0 -1
    outer loop
      vertex -0.870853 -2.87082 0
      vertex -0.870853 2.87082 0
      vertex -0.585271 2.94236 0
    endloop
  endfacet
  facet normal 0 0 -1
    outer loop
      vertex -1.14805 -2.77164 0
      vertex -0.870853 2.87082 0
      vertex -0.870853 -2.87082 0
    endloop
  endfacet
  facet normal 0 0 -1
    outer loop
      vertex -1.14805 -2.77164 0
      vertex -1.14805 2.77164 0
      vertex -0.870853 2.87082 0
    endloop
  endfacet
  facet normal 0 0 -1
    outer loop
      vertex -1.41419 -2.64576 0
      vertex -1.14805 2.77164 0
      vertex -1.14805 -2.77164 0
    endloop
  endfacet
  facet normal 0 0 -1
    outer loop
      vertex -1.41419 -2.64576 0
      vertex -1.41419 2.64576 0
      vertex -1.14805 2.77164 0
    endloop
  endfacet
  facet normal 0 0 -1
    outer loop
      vertex -1.66671 -2.49441 0
      vertex -1.41419 2.64576 0
      vertex -1.41419 -2.64576 0
    endloop
  endfacet
  facet normal 0 0 -1
    outer loop
      vertex -1.66671 -2.49441 0
      vertex -1.66671 2.49441 0
      vertex -1.41419 2.64576 0
    endloop
  endfacet
  facet normal 0 0 -1
    outer loop
      vertex -1.90318 -2.31903 0
      vertex -1.66671 2.49441 0
      vertex -1.66671 -2.49441 0
    endloop
  endfacet
  facet normal 0 0 -1
    outer loop
      vertex -1.90318 -2.31903 0
      vertex -1.90318 2.31903 0
      vertex -1.66671 2.49441 0
    endloop
  endfacet
  facet normal 0 0 -1
    outer loop
      vertex -2.12132 -2.12132 0
      vertex -1.90318 2.31903 0
      vertex -1.90318 -2.31903 0
    endloop
  endfacet
  facet normal 0 0 -1
    outer loop
      vertex -2.12132 -2.12132 0
      vertex -2.12132 2.12132 0
      vertex -1.90318 2.31903 0
    endloop
  endfacet
  facet normal 0 0 -1
    outer loop
      vertex -2.31903 -1.90318 0
      vertex -2.12132 2.12132 0
      vertex -2.12132 -2.12132 0
    endloop
  endfacet
  facet normal 0 0 -1
    outer loop
      vertex -2.31903 -1.90318 0
      vertex -2.31903 1.90318 0
      vertex -2.12132 2.12132 0
    endloop
  endfacet
  facet normal 0 0 -1
    outer loop
      vertex -2.49441 -1.66671 0
      vertex -2.31903 1.90318 0
      vertex -2.31903 -1.90318 0
    endloop
  endfacet
  facet normal 0 0 -1
    outer loop
      vertex -2.49441 -1.66671 0
      vertex -2.49441 1.66671 0
      vertex -2.31903 1.90318 0
    endloop
  endfacet
  facet normal 0 0 -1
    outer loop
      vertex -2.64576 -1.41419 0
      vertex -2.49441 1.66671 0
      vertex -2.49441 -1.66671 0
    endloop
  endfacet
  facet normal 0 0 -1
    outer loop
      vertex -2.64576 -1.41419 0
      vertex -2.64576 1.41419 0
      vertex -2.49441 1.66671 0
    endloop
  endfacet
  facet normal 0 0 -1
    outer loop
      vertex -2.77164 -1.14805 0
      vertex -2.64576 1.41419 0
      vertex -2.64576 -1.41419 0
    endloop
  endfacet
  facet normal 0 0 -1
    outer loop
      vertex -2.77164 -1.14805 0
      vertex -2.77164 1.14805 0
      vertex -2.64576 1.41419 0
    endloop
  endfacet
  facet normal 0 0 -1
    outer loop
      vertex -2.87082 -0.870853 0
      vertex -2.77164 1.14805 0
      vertex -2.77164 -1.14805 0
    endloop
  endfacet
  facet normal 0 0 -1
    outer loop
      vertex -2.87082 -0.870853 0
      vertex -2.87082 0.870853 0
      vertex -2.77164 1.14805 0
    endloop
  endfacet
  facet normal 0 0 -1
    outer loop
      vertex -2.94236 -0.585271 0
      vertex -2.87082 0.870853 0
      vertex -2.87082 -0.870853 0
    endloop
  endfacet
  facet normal 0 0 -1
    outer loop
      vertex -2.94236 -0.585271 0
      vertex -2.94236 0.585271 0
      vertex -2.87082 0.870853 0
    endloop
  endfacet
  facet normal 0 0 -1
    outer loop
      vertex -2.98555 -0.294051 0
      vertex -2.94236 0.585271 0
      vertex -2.94236 -0.585271 0
    endloop
  endfacet
  facet normal 0 0 -1
    outer loop
      vertex -2.98555 -0.294051 0
      vertex -2.98555 0.294051 0
      vertex -2.94236 0.585271 0
    endloop
  endfacet
  facet normal 0 -0 -1
    outer loop
      vertex -2.98555 0.294051 0
      vertex -2.98555 -0.294051 0
      vertex -3 0 0
    endloop
  endfacet
  facet normal 0.989176 0.146731 0
    outer loop
      vertex 2.98555 0.294051 4
      vertex 2.94236 0.585271 0
      vertex 2.94236 0.585271 4
    endloop
  endfacet
  facet normal 0.989176 0.146731 0
    outer loop
      vertex 2.94236 0.585271 0
      vertex 2.98555 0.294051 4
      vertex 2.98555 0.294051 0
    endloop
  endfacet
  facet normal 0.970032 0.242978 0
    outer loop
      vertex 2.94236 0.585271 4
      vertex 2.87082 0.870853 0
      vertex 2.87082 0.870853 4
    endloop
  endfacet
  facet normal 0.970032 0.242978 0
    outer loop
      vertex 2.87082 0.870853 0
      vertex 2.94236 0.585271 4
      vertex 2.94236 0.585271 0
    endloop
  endfacet
  facet normal 0.941543 0.336892 0
    outer loop
      vertex 2.87082 0.870853 4
      vertex 2.77164 1.14805 0
      vertex 2.77164 1.14805 4
    endloop
  endfacet
  facet normal 0.941543 0.336892 0
    outer loop
      vertex 2.77164 1.14805 0
      vertex 2.87082 0.870853 4
      vertex 2.87082 0.870853 0
    endloop
  endfacet
  facet normal 0.803207 0.5957 0
    outer loop
      vertex 2.49441 1.66671 4
      vertex 2.31903 1.90318 0
      vertex 2.31903 1.90318 4
    endloop
  endfacet
  facet normal 0.803207 0.5957 0
    outer loop
      vertex 2.31903 1.90318 0
      vertex 2.49441 1.66671 4
      vertex 2.49441 1.66671 0
    endloop
  endfacet
  facet normal 0.740951 0.671559 0
    outer loop
      vertex 2.31903 1.90318 4
      vertex 2.12132 2.12132 0
      vertex 2.12132 2.12132 4
    endloop
  endfacet
  facet normal 0.740951 0.671559 0
    outer loop
      vertex 2.12132 2.12132 0
      vertex 2.31903 1.90318 4
      vertex 2.31903 1.90318 0
    endloop
  endfacet
  facet normal 0.5957 0.803207 -0
    outer loop
      vertex 1.90318 2.31903 0
      vertex 1.66671 2.49441 4
      vertex 1.90318 2.31903 4
    endloop
  endfacet
  facet normal 0.5957 0.803207 0
    outer loop
      vertex 1.66671 2.49441 4
      vertex 1.90318 2.31903 0
      vertex 1.66671 2.49441 0
    endloop
  endfacet
  facet normal 0.0490692 0.998795 -0
    outer loop
      vertex 0.294051 2.98555 0
      vertex 0 3 4
      vertex 0.294051 2.98555 4
    endloop
  endfacet
  facet normal 0.0490692 0.998795 0
    outer loop
      vertex 0 3 4
      vertex 0.294051 2.98555 0
      vertex 0 3 0
    endloop
  endfacet
  facet normal 0.514102 0.857729 -0
    outer loop
      vertex 1.66671 2.49441 0
      vertex 1.41419 2.64576 4
      vertex 1.66671 2.49441 4
    endloop
  endfacet
  facet normal 0.514102 0.857729 0
    outer loop
      vertex 1.41419 2.64576 4
      vertex 1.66671 2.49441 0
      vertex 1.41419 2.64576 0
    endloop
  endfacet
  facet normal 0.336892 0.941543 -0
    outer loop
      vertex 1.14805 2.77164 0
      vertex 0.870853 2.87082 4
      vertex 1.14805 2.77164 4
    endloop
  endfacet
  facet normal 0.336892 0.941543 0
    outer loop
      vertex 0.870853 2.87082 4
      vertex 1.14805 2.77164 0
      vertex 0.870853 2.87082 0
    endloop
  endfacet
  facet normal 0.242978 0.970032 -0
    outer loop
      vertex 0.870853 2.87082 0
      vertex 0.585271 2.94236 4
      vertex 0.870853 2.87082 4
    endloop
  endfacet
  facet normal 0.242978 0.970032 0
    outer loop
      vertex 0.585271 2.94236 4
      vertex 0.870853 2.87082 0
      vertex 0.585271 2.94236 0
    endloop
  endfacet
  facet normal -0.998795 0.0490692 0
    outer loop
      vertex -3 0 0
      vertex -2.98555 0.294051 4
      vertex -2.98555 0.294051 0
    endloop
  endfacet
  facet normal -0.998795 0.0490692 0
    outer loop
      vertex -2.98555 0.294051 4
      vertex -3 0 0
      vertex -3 0 4
    endloop
  endfacet
  facet normal 0 0 1
    outer loop
      vertex 1.45 0 4
      vertex 3 0 4
      vertex 2.98555 0.294051 4
    endloop
  endfacet
  facet normal 0 0 1
    outer loop
      vertex 1.44302 0.142124 4
      vertex 2.98555 0.294051 4
      vertex 2.94236 0.585271 4
    endloop
  endfacet
  facet normal 0 0 1
    outer loop
      vertex 3 0 4
      vertex 1.45 0 4
      vertex 2.98555 -0.294051 4
    endloop
  endfacet
  facet normal 0 0 1
    outer loop
      vertex 1.42214 0.282881 4
      vertex 2.94236 0.585271 4
      vertex 2.87082 0.870853 4
    endloop
  endfacet
  facet normal -0 0 1
    outer loop
      vertex 1.44302 -0.142124 4
      vertex 2.98555 -0.294051 4
      vertex 1.45 0 4
    endloop
  endfacet
  facet normal 0 0 1
    outer loop
      vertex 1.38756 0.420913 4
      vertex 2.87082 0.870853 4
      vertex 2.77164 1.14805 4
    endloop
  endfacet
  facet normal 0 0 1
    outer loop
      vertex 2.98555 -0.294051 4
      vertex 1.44302 -0.142124 4
      vertex 2.94236 -0.585271 4
    endloop
  endfacet
  facet normal 0 0 1
    outer loop
      vertex 1.33962 0.554891 4
      vertex 2.77164 1.14805 4
      vertex 2.64576 1.41419 4
    endloop
  endfacet
  facet normal -0 0 1
    outer loop
      vertex 1.42214 -0.282881 4
      vertex 2.94236 -0.585271 4
      vertex 1.44302 -0.142124 4
    endloop
  endfacet
  facet normal 0 0 1
    outer loop
      vertex 1.27879 0.683525 4
      vertex 2.64576 1.41419 4
      vertex 2.49441 1.66671 4
    endloop
  endfacet
  facet normal 0 0 1
    outer loop
      vertex 2.94236 -0.585271 4
      vertex 1.42214 -0.282881 4
      vertex 2.87082 -0.870853 4
    endloop
  endfacet
  facet normal 0 0 1
    outer loop
      vertex 1.20563 0.805576 4
      vertex 2.49441 1.66671 4
      vertex 2.31903 1.90318 4
    endloop
  endfacet
  facet normal -0 0 1
    outer loop
      vertex 1.38756 -0.420913 4
      vertex 2.87082 -0.870853 4
      vertex 1.42214 -0.282881 4
    endloop
  endfacet
  facet normal 0 0 1
    outer loop
      vertex 1.12086 0.919869 4
      vertex 2.31903 1.90318 4
      vertex 2.12132 2.12132 4
    endloop
  endfacet
  facet normal 0 0 1
    outer loop
      vertex 2.87082 -0.870853 4
      vertex 1.38756 -0.420913 4
      vertex 2.77164 -1.14805 4
    endloop
  endfacet
  facet normal 0 0 1
    outer loop
      vertex 1.0253 1.0253 4
      vertex 2.12132 2.12132 4
      vertex 1.90318 2.31903 4
    endloop
  endfacet
  facet normal -0 0 1
    outer loop
      vertex 1.33962 -0.554891 4
      vertex 2.77164 -1.14805 4
      vertex 1.38756 -0.420913 4
    endloop
  endfacet
  facet normal 0 0 1
    outer loop
      vertex 0.919869 1.12086 4
      vertex 1.90318 2.31903 4
      vertex 1.66671 2.49441 4
    endloop
  endfacet
  facet normal 0 0 1
    outer loop
      vertex 2.77164 -1.14805 4
      vertex 1.33962 -0.554891 4
      vertex 2.64576 -1.41419 4
    endloop
  endfacet
  facet normal -0 0 1
    outer loop
      vertex 1.27879 -0.683525 4
      vertex 2.64576 -1.41419 4
      vertex 1.33962 -0.554891 4
    endloop
  endfacet
  facet normal 0 0 1
    outer loop
      vertex 2.98555 0.294051 4
      vertex 1.44302 0.142124 4
      vertex 1.45 0 4
    endloop
  endfacet
  facet normal 0 0 1
    outer loop
      vertex 2.94236 0.585271 4
      vertex 1.42214 0.282881 4
      vertex 1.44302 0.142124 4
    endloop
  endfacet
  facet normal 0 0 1
    outer loop
      vertex 0.805576 1.20563 4
      vertex 1.66671 2.49441 4
      vertex 1.41419 2.64576 4
    endloop
  endfacet
  facet normal 0 0 1
    outer loop
      vertex 2.87082 0.870853 4
      vertex 1.38756 0.420913 4
      vertex 1.42214 0.282881 4
    endloop
  endfacet
  facet normal 0 0 1
    outer loop
      vertex 2.77164 1.14805 4
      vertex 1.33962 0.554891 4
      vertex 1.38756 0.420913 4
    endloop
  endfacet
  facet normal 0 0 1
    outer loop
      vertex 2.64576 1.41419 4
      vertex 1.27879 0.683525 4
      vertex 1.33962 0.554891 4
    endloop
  endfacet
  facet normal 0 0 1
    outer loop
      vertex 2.49441 1.66671 4
      vertex 1.20563 0.805576 4
      vertex 1.27879 0.683525 4
    endloop
  endfacet
  facet normal 0 0 1
    outer loop
      vertex 0.683525 1.27879 4
      vertex 1.41419 2.64576 4
      vertex 1.14805 2.77164 4
    endloop
  endfacet
  facet normal 0 0 1
    outer loop
      vertex 2.31903 1.90318 4
      vertex 1.12086 0.919869 4
      vertex 1.20563 0.805576 4
    endloop
  endfacet
  facet normal 0 0 1
    outer loop
      vertex 2.12132 2.12132 4
      vertex 1.0253 1.0253 4
      vertex 1.12086 0.919869 4
    endloop
  endfacet
  facet normal 0 0 1
    outer loop
      vertex 1.90318 2.31903 4
      vertex 0.919869 1.12086 4
      vertex 1.0253 1.0253 4
    endloop
  endfacet
  facet normal 0 0 1
    outer loop
      vertex 0.554891 1.33962 4
      vertex 1.14805 2.77164 4
      vertex 0.870853 2.87082 4
    endloop
  endfacet
  facet normal 0 0 1
    outer loop
      vertex 1.66671 2.49441 4
      vertex 0.805576 1.20563 4
      vertex 0.919869 1.12086 4
    endloop
  endfacet
  facet normal 0 0 1
    outer loop
      vertex 1.41419 2.64576 4
      vertex 0.683525 1.27879 4
      vertex 0.805576 1.20563 4
    endloop
  endfacet
  facet normal 0 0 1
    outer loop
      vertex 0.420913 1.38756 4
      vertex 0.870853 2.87082 4
      vertex 0.585271 2.94236 4
    endloop
  endfacet
  facet normal 0 0 1
    outer loop
      vertex 1.14805 2.77164 4
      vertex 0.554891 1.33962 4
      vertex 0.683525 1.27879 4
    endloop
  endfacet
  facet normal 0 0 1
    outer loop
      vertex 0.870853 2.87082 4
      vertex 0.420913 1.38756 4
      vertex 0.554891 1.33962 4
    endloop
  endfacet
  facet normal 0 0 1
    outer loop
      vertex 0.282881 1.42214 4
      vertex 0.585271 2.94236 4
      vertex 0.294051 2.98555 4
    endloop
  endfacet
  facet normal 0 0 1
    outer loop
      vertex 0.585271 2.94236 4
      vertex 0.282881 1.42214 4
      vertex 0.420913 1.38756 4
    endloop
  endfacet
  facet normal 0 0 1
    outer loop
      vertex 0.294051 2.98555 4
      vertex 0.142124 1.44302 4
      vertex 0.282881 1.42214 4
    endloop
  endfacet
  facet normal 0 0 1
    outer loop
      vertex 0 3 4
      vertex 0.142124 1.44302 4
      vertex 0.294051 2.98555 4
    endloop
  endfacet
  facet normal 0 0 1
    outer loop
      vertex 0 3 4
      vertex 0 1.45 4
      vertex 0.142124 1.44302 4
    endloop
  endfacet
  facet normal 0 0 1
    outer loop
      vertex 0 3 4
      vertex -0.142124 1.44302 4
      vertex 0 1.45 4
    endloop
  endfacet
  facet normal -0 0 1
    outer loop
      vertex -0.294051 2.98555 4
      vertex -0.142124 1.44302 4
      vertex 0 3 4
    endloop
  endfacet
  facet normal 0 0 1
    outer loop
      vertex -0.142124 1.44302 4
      vertex -0.294051 2.98555 4
      vertex -0.282881 1.42214 4
    endloop
  endfacet
  facet normal -0 0 1
    outer loop
      vertex -0.585271 2.94236 4
      vertex -0.282881 1.42214 4
      vertex -0.294051 2.98555 4
    endloop
  endfacet
  facet normal 0 0 1
    outer loop
      vertex -0.282881 1.42214 4
      vertex -0.585271 2.94236 4
      vertex -0.420913 1.38756 4
    endloop
  endfacet
  facet normal -0 0 1
    outer loop
      vertex -0.870853 2.87082 4
      vertex -0.420913 1.38756 4
      vertex -0.585271 2.94236 4
    endloop
  endfacet
  facet normal 0 0 1
    outer loop
      vertex -0.420913 1.38756 4
      vertex -0.870853 2.87082 4
      vertex -0.554891 1.33962 4
    endloop
  endfacet
  facet normal -0 0 1
    outer loop
      vertex -1.14805 2.77164 4
      vertex -0.554891 1.33962 4
      vertex -0.870853 2.87082 4
    endloop
  endfacet
  facet normal 0 0 1
    outer loop
      vertex -0.554891 1.33962 4
      vertex -1.14805 2.77164 4
      vertex -0.683525 1.27879 4
    endloop
  endfacet
  facet normal -0 0 1
    outer loop
      vertex -1.41419 2.64576 4
      vertex -0.683525 1.27879 4
      vertex -1.14805 2.77164 4
    endloop
  endfacet
  facet normal 0 0 1
    outer loop
      vertex -0.683525 1.27879 4
      vertex -1.41419 2.64576 4
      vertex -0.805576 1.20563 4
    endloop
  endfacet
  facet normal -0 0 1
    outer loop
      vertex -1.66671 2.49441 4
      vertex -0.805576 1.20563 4
      vertex -1.41419 2.64576 4
    endloop
  endfacet
  facet normal 0 0 1
    outer loop
      vertex -0.805576 1.20563 4
      vertex -1.66671 2.49441 4
      vertex -0.919869 1.12086 4
    endloop
  endfacet
  facet normal -0 0 1
    outer loop
      vertex -1.90318 2.31903 4
      vertex -0.919869 1.12086 4
      vertex -1.66671 2.49441 4
    endloop
  endfacet
  facet normal 0 0 1
    outer loop
      vertex -0.919869 1.12086 4
      vertex -1.90318 2.31903 4
      vertex -1.0253 1.0253 4
    endloop
  endfacet
  facet normal -0 0 1
    outer loop
      vertex -2.12132 2.12132 4
      vertex -1.0253 1.0253 4
      vertex -1.90318 2.31903 4
    endloop
  endfacet
  facet normal 0 0 1
    outer loop
      vertex -1.0253 1.0253 4
      vertex -2.12132 2.12132 4
      vertex -1.12086 0.919869 4
    endloop
  endfacet
  facet normal -0 0 1
    outer loop
      vertex -2.31903 1.90318 4
      vertex -1.12086 0.919869 4
      vertex -2.12132 2.12132 4
    endloop
  endfacet
  facet normal 0 0 1
    outer loop
      vertex -1.12086 0.919869 4
      vertex -2.31903 1.90318 4
      vertex -1.20563 0.805576 4
    endloop
  endfacet
  facet normal -0 0 1
    outer loop
      vertex -2.49441 1.66671 4
      vertex -1.20563 0.805576 4
      vertex -2.31903 1.90318 4
    endloop
  endfacet
  facet normal 0 0 1
    outer loop
      vertex -1.20563 0.805576 4
      vertex -2.49441 1.66671 4
      vertex -1.27879 0.683525 4
    endloop
  endfacet
  facet normal -0 0 1
    outer loop
      vertex -2.64576 1.41419 4
      vertex -1.27879 0.683525 4
      vertex -2.49441 1.66671 4
    endloop
  endfacet
  facet normal 0 0 1
    outer loop
      vertex 2.64576 -1.41419 4
      vertex 1.27879 -0.683525 4
      vertex 2.49441 -1.66671 4
    endloop
  endfacet
  facet normal -0 0 1
    outer loop
      vertex 1.20563 -0.805576 4
      vertex 2.49441 -1.66671 4
      vertex 1.27879 -0.683525 4
    endloop
  endfacet
  facet normal 0 0 1
    outer loop
      vertex 2.49441 -1.66671 4
      vertex 1.20563 -0.805576 4
      vertex 2.31903 -1.90318 4
    endloop
  endfacet
  facet normal -0 0 1
    outer loop
      vertex 1.12086 -0.919869 4
      vertex 2.31903 -1.90318 4
      vertex 1.20563 -0.805576 4
    endloop
  endfacet
  facet normal 0 0 1
    outer loop
      vertex 2.31903 -1.90318 4
      vertex 1.12086 -0.919869 4
      vertex 2.12132 -2.12132 4
    endloop
  endfacet
  facet normal -0 0 1
    outer loop
      vertex 1.0253 -1.0253 4
      vertex 2.12132 -2.12132 4
      vertex 1.12086 -0.919869 4
    endloop
  endfacet
  facet normal 0 0 1
    outer loop
      vertex 2.12132 -2.12132 4
      vertex 1.0253 -1.0253 4
      vertex 1.90318 -2.31903 4
    endloop
  endfacet
  facet normal -0 0 1
    outer loop
      vertex 0.919869 -1.12086 4
      vertex 1.90318 -2.31903 4
      vertex 1.0253 -1.0253 4
    endloop
  endfacet
  facet normal 0 0 1
    outer loop
      vertex 1.90318 -2.31903 4
      vertex 0.919869 -1.12086 4
      vertex 1.66671 -2.49441 4
    endloop
  endfacet
  facet normal -0 0 1
    outer loop
      vertex 0.805576 -1.20563 4
      vertex 1.66671 -2.49441 4
      vertex 0.919869 -1.12086 4
    endloop
  endfacet
  facet normal 0 0 1
    outer loop
      vertex 1.66671 -2.49441 4
      vertex 0.805576 -1.20563 4
      vertex 1.41419 -2.64576 4
    endloop
  endfacet
  facet normal -0 0 1
    outer loop
      vertex 0.683525 -1.27879 4
      vertex 1.41419 -2.64576 4
      vertex 0.805576 -1.20563 4
    endloop
  endfacet
  facet normal 0 0 1
    outer loop
      vertex 1.41419 -2.64576 4
      vertex 0.683525 -1.27879 4
      vertex 1.14805 -2.77164 4
    endloop
  endfacet
  facet normal -0 0 1
    outer loop
      vertex 0.554891 -1.33962 4
      vertex 1.14805 -2.77164 4
      vertex 0.683525 -1.27879 4
    endloop
  endfacet
  facet normal 0 0 1
    outer loop
      vertex 1.14805 -2.77164 4
      vertex 0.554891 -1.33962 4
      vertex 0.870853 -2.87082 4
    endloop
  endfacet
  facet normal -0 0 1
    outer loop
      vertex 0.420913 -1.38756 4
      vertex 0.870853 -2.87082 4
      vertex 0.554891 -1.33962 4
    endloop
  endfacet
  facet normal 0 0 1
    outer loop
      vertex 0.870853 -2.87082 4
      vertex 0.420913 -1.38756 4
      vertex 0.585271 -2.94236 4
    endloop
  endfacet
  facet normal -0 0 1
    outer loop
      vertex 0.282881 -1.42214 4
      vertex 0.585271 -2.94236 4
      vertex 0.420913 -1.38756 4
    endloop
  endfacet
  facet normal 0 0 1
    outer loop
      vertex 0.585271 -2.94236 4
      vertex 0.282881 -1.42214 4
      vertex 0.294051 -2.98555 4
    endloop
  endfacet
  facet normal -0 0 1
    outer loop
      vertex 0.142124 -1.44302 4
      vertex 0.294051 -2.98555 4
      vertex 0.282881 -1.42214 4
    endloop
  endfacet
  facet normal -0 0 1
    outer loop
      vertex 0 -1.45 4
      vertex 0.294051 -2.98555 4
      vertex 0.142124 -1.44302 4
    endloop
  endfacet
  facet normal 0 0 1
    outer loop
      vertex 0 -1.45 4
      vertex 0 -3 4
      vertex 0.294051 -2.98555 4
    endloop
  endfacet
  facet normal 0 0 1
    outer loop
      vertex -0.142124 -1.44302 4
      vertex 0 -3 4
      vertex 0 -1.45 4
    endloop
  endfacet
  facet normal 0 0 1
    outer loop
      vertex -0.294051 -2.98555 4
      vertex -0.142124 -1.44302 4
      vertex -0.282881 -1.42214 4
    endloop
  endfacet
  facet normal 0 0 1
    outer loop
      vertex -0.142124 -1.44302 4
      vertex -0.294051 -2.98555 4
      vertex 0 -3 4
    endloop
  endfacet
  facet normal 0 0 1
    outer loop
      vertex -0.585271 -2.94236 4
      vertex -0.282881 -1.42214 4
      vertex -0.420913 -1.38756 4
    endloop
  endfacet
  facet normal 0 0 1
    outer loop
      vertex -0.870853 -2.87082 4
      vertex -0.420913 -1.38756 4
      vertex -0.554891 -1.33962 4
    endloop
  endfacet
  facet normal 0 0 1
    outer loop
      vertex -0.282881 -1.42214 4
      vertex -0.585271 -2.94236 4
      vertex -0.294051 -2.98555 4
    endloop
  endfacet
  facet normal 0 0 1
    outer loop
      vertex -1.14805 -2.77164 4
      vertex -0.554891 -1.33962 4
      vertex -0.683525 -1.27879 4
    endloop
  endfacet
  facet normal 0 0 1
    outer loop
      vertex -1.41419 -2.64576 4
      vertex -0.683525 -1.27879 4
      vertex -0.805576 -1.20563 4
    endloop
  endfacet
  facet normal 0 0 1
    outer loop
      vertex -0.420913 -1.38756 4
      vertex -0.870853 -2.87082 4
      vertex -0.585271 -2.94236 4
    endloop
  endfacet
  facet normal 0 0 1
    outer loop
      vertex -1.66671 -2.49441 4
      vertex -0.805576 -1.20563 4
      vertex -0.919869 -1.12086 4
    endloop
  endfacet
  facet normal 0 0 1
    outer loop
      vertex -1.90318 -2.31903 4
      vertex -0.919869 -1.12086 4
      vertex -1.0253 -1.0253 4
    endloop
  endfacet
  facet normal 0 0 1
    outer loop
      vertex -2.12132 -2.12132 4
      vertex -1.0253 -1.0253 4
      vertex -1.12086 -0.919869 4
    endloop
  endfacet
  facet normal 0 0 1
    outer loop
      vertex -0.554891 -1.33962 4
      vertex -1.14805 -2.77164 4
      vertex -0.870853 -2.87082 4
    endloop
  endfacet
  facet normal 0 0 1
    outer loop
      vertex -2.31903 -1.90318 4
      vertex -1.12086 -0.919869 4
      vertex -1.20563 -0.805576 4
    endloop
  endfacet
  facet normal 0 0 1
    outer loop
      vertex -2.49441 -1.66671 4
      vertex -1.20563 -0.805576 4
      vertex -1.27879 -0.683525 4
    endloop
  endfacet
  facet normal 0 0 1
    outer loop
      vertex -2.64576 -1.41419 4
      vertex -1.27879 -0.683525 4
      vertex -1.33962 -0.554891 4
    endloop
  endfacet
  facet normal 0 0 1
    outer loop
      vertex -2.77164 -1.14805 4
      vertex -1.33962 -0.554891 4
      vertex -1.38756 -0.420913 4
    endloop
  endfacet
  facet normal 0 0 1
    outer loop
      vertex -0.683525 -1.27879 4
      vertex -1.41419 -2.64576 4
      vertex -1.14805 -2.77164 4
    endloop
  endfacet
  facet normal 0 0 1
    outer loop
      vertex -2.87082 -0.870853 4
      vertex -1.38756 -0.420913 4
      vertex -1.42214 -0.282881 4
    endloop
  endfacet
  facet normal 0 0 1
    outer loop
      vertex -2.94236 -0.585271 4
      vertex -1.42214 -0.282881 4
      vertex -1.44302 -0.142124 4
    endloop
  endfacet
  facet normal 0 0 1
    outer loop
      vertex -2.98555 -0.294051 4
      vertex -1.44302 -0.142124 4
      vertex -1.45 0 4
    endloop
  endfacet
  facet normal 0 0 1
    outer loop
      vertex -1.27879 0.683525 4
      vertex -2.64576 1.41419 4
      vertex -1.33962 0.554891 4
    endloop
  endfacet
  facet normal 0 0 1
    outer loop
      vertex -0.805576 -1.20563 4
      vertex -1.66671 -2.49441 4
      vertex -1.41419 -2.64576 4
    endloop
  endfacet
  facet normal -0 0 1
    outer loop
      vertex -2.77164 1.14805 4
      vertex -1.33962 0.554891 4
      vertex -2.64576 1.41419 4
    endloop
  endfacet
  facet normal 0 0 1
    outer loop
      vertex -0.919869 -1.12086 4
      vertex -1.90318 -2.31903 4
      vertex -1.66671 -2.49441 4
    endloop
  endfacet
  facet normal 0 0 1
    outer loop
      vertex -1.33962 0.554891 4
      vertex -2.77164 1.14805 4
      vertex -1.38756 0.420913 4
    endloop
  endfacet
  facet normal 0 0 1
    outer loop
      vertex -1.0253 -1.0253 4
      vertex -2.12132 -2.12132 4
      vertex -1.90318 -2.31903 4
    endloop
  endfacet
  facet normal -0 0 1
    outer loop
      vertex -2.87082 0.870853 4
      vertex -1.38756 0.420913 4
      vertex -2.77164 1.14805 4
    endloop
  endfacet
  facet normal 0 0 1
    outer loop
      vertex -1.12086 -0.919869 4
      vertex -2.31903 -1.90318 4
      vertex -2.12132 -2.12132 4
    endloop
  endfacet
  facet normal 0 0 1
    outer loop
      vertex -1.38756 0.420913 4
      vertex -2.87082 0.870853 4
      vertex -1.42214 0.282881 4
    endloop
  endfacet
  facet normal 0 0 1
    outer loop
      vertex -1.20563 -0.805576 4
      vertex -2.49441 -1.66671 4
      vertex -2.31903 -1.90318 4
    endloop
  endfacet
  facet normal -0 0 1
    outer loop
      vertex -2.94236 0.585271 4
      vertex -1.42214 0.282881 4
      vertex -2.87082 0.870853 4
    endloop
  endfacet
  facet normal 0 0 1
    outer loop
      vertex -1.27879 -0.683525 4
      vertex -2.64576 -1.41419 4
      vertex -2.49441 -1.66671 4
    endloop
  endfacet
  facet normal 0 0 1
    outer loop
      vertex -1.42214 0.282881 4
      vertex -2.94236 0.585271 4
      vertex -1.44302 0.142124 4
    endloop
  endfacet
  facet normal 0 0 1
    outer loop
      vertex -1.33962 -0.554891 4
      vertex -2.77164 -1.14805 4
      vertex -2.64576 -1.41419 4
    endloop
  endfacet
  facet normal -0 0 1
    outer loop
      vertex -2.98555 0.294051 4
      vertex -1.44302 0.142124 4
      vertex -2.94236 0.585271 4
    endloop
  endfacet
  facet normal 0 0 1
    outer loop
      vertex -1.38756 -0.420913 4
      vertex -2.87082 -0.870853 4
      vertex -2.77164 -1.14805 4
    endloop
  endfacet
  facet normal 0 0 1
    outer loop
      vertex -1.44302 0.142124 4
      vertex -2.98555 0.294051 4
      vertex -1.45 0 4
    endloop
  endfacet
  facet normal 0 0 1
    outer loop
      vertex -1.42214 -0.282881 4
      vertex -2.94236 -0.585271 4
      vertex -2.87082 -0.870853 4
    endloop
  endfacet
  facet normal 0 0 1
    outer loop
      vertex -3 0 4
      vertex -1.45 0 4
      vertex -2.98555 0.294051 4
    endloop
  endfacet
  facet normal 0 0 1
    outer loop
      vertex -1.44302 -0.142124 4
      vertex -2.98555 -0.294051 4
      vertex -2.94236 -0.585271 4
    endloop
  endfacet
  facet normal 0 0 1
    outer loop
      vertex -1.45 0 4
      vertex -3 0 4
      vertex -2.98555 -0.294051 4
    endloop
  endfacet
  facet normal -0.941543 0.336892 0
    outer loop
      vertex -2.87082 0.870853 0
      vertex -2.77164 1.14805 4
      vertex -2.77164 1.14805 0
    endloop
  endfacet
  facet normal -0.941543 0.336892 0
    outer loop
      vertex -2.77164 1.14805 4
      vertex -2.87082 0.870853 0
      vertex -2.87082 0.870853 4
    endloop
  endfacet
  facet normal -0.970032 0.242978 0
    outer loop
      vertex -2.94236 0.585271 0
      vertex -2.87082 0.870853 4
      vertex -2.87082 0.870853 0
    endloop
  endfacet
  facet normal -0.970032 0.242978 0
    outer loop
      vertex -2.87082 0.870853 4
      vertex -2.94236 0.585271 0
      vertex -2.94236 0.585271 4
    endloop
  endfacet
  facet normal -0.857729 0.514102 0
    outer loop
      vertex -2.64576 1.41419 0
      vertex -2.49441 1.66671 4
      vertex -2.49441 1.66671 0
    endloop
  endfacet
  facet normal -0.857729 0.514102 0
    outer loop
      vertex -2.49441 1.66671 4
      vertex -2.64576 1.41419 0
      vertex -2.64576 1.41419 4
    endloop
  endfacet
  facet normal -0.803207 0.5957 0
    outer loop
      vertex -2.49441 1.66671 0
      vertex -2.31903 1.90318 4
      vertex -2.31903 1.90318 0
    endloop
  endfacet
  facet normal -0.803207 0.5957 0
    outer loop
      vertex -2.31903 1.90318 4
      vertex -2.49441 1.66671 0
      vertex -2.49441 1.66671 4
    endloop
  endfacet
  facet normal -0.242978 0.970032 0
    outer loop
      vertex -0.585271 2.94236 0
      vertex -0.870853 2.87082 4
      vertex -0.585271 2.94236 4
    endloop
  endfacet
  facet normal -0.242978 0.970032 0
    outer loop
      vertex -0.870853 2.87082 4
      vertex -0.585271 2.94236 0
      vertex -0.870853 2.87082 0
    endloop
  endfacet
  facet normal -0.0490692 0.998795 0
    outer loop
      vertex 0 3 0
      vertex -0.294051 2.98555 4
      vertex 0 3 4
    endloop
  endfacet
  facet normal -0.0490692 0.998795 0
    outer loop
      vertex -0.294051 2.98555 4
      vertex 0 3 0
      vertex -0.294051 2.98555 0
    endloop
  endfacet
  facet normal -0.514102 0.857729 0
    outer loop
      vertex -1.41419 2.64576 0
      vertex -1.66671 2.49441 4
      vertex -1.41419 2.64576 4
    endloop
  endfacet
  facet normal -0.514102 0.857729 0
    outer loop
      vertex -1.66671 2.49441 4
      vertex -1.41419 2.64576 0
      vertex -1.66671 2.49441 0
    endloop
  endfacet
  facet normal -0.5957 0.803207 0
    outer loop
      vertex -1.66671 2.49441 0
      vertex -1.90318 2.31903 4
      vertex -1.66671 2.49441 4
    endloop
  endfacet
  facet normal -0.5957 0.803207 0
    outer loop
      vertex -1.90318 2.31903 4
      vertex -1.66671 2.49441 0
      vertex -1.90318 2.31903 0
    endloop
  endfacet
  facet normal -0.427554 0.90399 0
    outer loop
      vertex -1.14805 2.77164 0
      vertex -1.41419 2.64576 4
      vertex -1.14805 2.77164 4
    endloop
  endfacet
  facet normal -0.427554 0.90399 0
    outer loop
      vertex -1.41419 2.64576 4
      vertex -1.14805 2.77164 0
      vertex -1.41419 2.64576 0
    endloop
  endfacet
  facet normal -0.671559 0.740951 0
    outer loop
      vertex -1.90318 2.31903 0
      vertex -2.12132 2.12132 4
      vertex -1.90318 2.31903 4
    endloop
  endfacet
  facet normal -0.671559 0.740951 0
    outer loop
      vertex -2.12132 2.12132 4
      vertex -1.90318 2.31903 0
      vertex -2.12132 2.12132 0
    endloop
  endfacet
  facet normal 0.998795 0.0490692 0
    outer loop
      vertex 3 0 4
      vertex 2.98555 0.294051 0
      vertex 2.98555 0.294051 4
    endloop
  endfacet
  facet normal 0.998795 0.0490692 0
    outer loop
      vertex 2.98555 0.294051 0
      vertex 3 0 4
      vertex 3 0 0
    endloop
  endfacet
  facet normal 0.970032 -0.242978 0
    outer loop
      vertex 2.87082 -0.870853 4
      vertex 2.94236 -0.585271 0
      vertex 2.94236 -0.585271 4
    endloop
  endfacet
  facet normal 0.970032 -0.242978 0
    outer loop
      vertex 2.94236 -0.585271 0
      vertex 2.87082 -0.870853 4
      vertex 2.87082 -0.870853 0
    endloop
  endfacet
  facet normal 0.0490692 -0.998795 0
    outer loop
      vertex 0 -3 0
      vertex 0.294051 -2.98555 4
      vertex 0 -3 4
    endloop
  endfacet
  facet normal 0.0490692 -0.998795 0
    outer loop
      vertex 0.294051 -2.98555 4
      vertex 0 -3 0
      vertex 0.294051 -2.98555 0
    endloop
  endfacet
  facet normal 0.740951 -0.671559 0
    outer loop
      vertex 2.12132 -2.12132 4
      vertex 2.31903 -1.90318 0
      vertex 2.31903 -1.90318 4
    endloop
  endfacet
  facet normal 0.740951 -0.671559 0
    outer loop
      vertex 2.31903 -1.90318 0
      vertex 2.12132 -2.12132 4
      vertex 2.12132 -2.12132 0
    endloop
  endfacet
  facet normal 0.242978 -0.970032 0
    outer loop
      vertex 0.585271 -2.94236 0
      vertex 0.870853 -2.87082 4
      vertex 0.585271 -2.94236 4
    endloop
  endfacet
  facet normal 0.242978 -0.970032 0
    outer loop
      vertex 0.870853 -2.87082 4
      vertex 0.585271 -2.94236 0
      vertex 0.870853 -2.87082 0
    endloop
  endfacet
  facet normal 0.671559 -0.740951 0
    outer loop
      vertex 1.90318 -2.31903 0
      vertex 2.12132 -2.12132 4
      vertex 1.90318 -2.31903 4
    endloop
  endfacet
  facet normal 0.671559 -0.740951 0
    outer loop
      vertex 2.12132 -2.12132 4
      vertex 1.90318 -2.31903 0
      vertex 2.12132 -2.12132 0
    endloop
  endfacet
  facet normal 0.5957 -0.803207 0
    outer loop
      vertex 1.66671 -2.49441 0
      vertex 1.90318 -2.31903 4
      vertex 1.66671 -2.49441 4
    endloop
  endfacet
  facet normal 0.5957 -0.803207 0
    outer loop
      vertex 1.90318 -2.31903 4
      vertex 1.66671 -2.49441 0
      vertex 1.90318 -2.31903 0
    endloop
  endfacet
  facet normal 0.427554 -0.90399 0
    outer loop
      vertex 1.14805 -2.77164 0
      vertex 1.41419 -2.64576 4
      vertex 1.14805 -2.77164 4
    endloop
  endfacet
  facet normal 0.427554 -0.90399 0
    outer loop
      vertex 1.41419 -2.64576 4
      vertex 1.14805 -2.77164 0
      vertex 1.41419 -2.64576 0
    endloop
  endfacet
  facet normal -0.336892 -0.941543 0
    outer loop
      vertex -1.14805 -2.77164 0
      vertex -0.870853 -2.87082 4
      vertex -1.14805 -2.77164 4
    endloop
  endfacet
  facet normal -0.336892 -0.941543 -0
    outer loop
      vertex -0.870853 -2.87082 4
      vertex -1.14805 -2.77164 0
      vertex -0.870853 -2.87082 0
    endloop
  endfacet
  facet normal -0.514102 -0.857729 0
    outer loop
      vertex -1.66671 -2.49441 0
      vertex -1.41419 -2.64576 4
      vertex -1.66671 -2.49441 4
    endloop
  endfacet
  facet normal -0.514102 -0.857729 -0
    outer loop
      vertex -1.41419 -2.64576 4
      vertex -1.66671 -2.49441 0
      vertex -1.41419 -2.64576 0
    endloop
  endfacet
  facet normal -0.970032 -0.242978 0
    outer loop
      vertex -2.87082 -0.870853 0
      vertex -2.94236 -0.585271 4
      vertex -2.94236 -0.585271 0
    endloop
  endfacet
  facet normal -0.970032 -0.242978 0
    outer loop
      vertex -2.94236 -0.585271 4
      vertex -2.87082 -0.870853 0
      vertex -2.87082 -0.870853 4
    endloop
  endfacet
  facet normal -0.998795 -0.0490692 0
    outer loop
      vertex -2.98555 -0.294051 0
      vertex -3 0 4
      vertex -3 0 0
    endloop
  endfacet
  facet normal -0.998795 -0.0490692 0
    outer loop
      vertex -3 0 4
      vertex -2.98555 -0.294051 0
      vertex -2.98555 -0.294051 4
    endloop
  endfacet
  facet normal -0.803207 -0.5957 0
    outer loop
      vertex -2.31903 -1.90318 0
      vertex -2.49441 -1.66671 4
      vertex -2.49441 -1.66671 0
    endloop
  endfacet
  facet normal -0.803207 -0.5957 0
    outer loop
      vertex -2.49441 -1.66671 4
      vertex -2.31903 -1.90318 0
      vertex -2.31903 -1.90318 4
    endloop
  endfacet
  facet normal -0.857729 -0.514102 0
    outer loop
      vertex -2.49441 -1.66671 0
      vertex -2.64576 -1.41419 4
      vertex -2.64576 -1.41419 0
    endloop
  endfacet
  facet normal -0.857729 -0.514102 0
    outer loop
      vertex -2.64576 -1.41419 4
      vertex -2.49441 -1.66671 0
      vertex -2.49441 -1.66671 4
    endloop
  endfacet
  facet normal -0.90399 -0.427554 0
    outer loop
      vertex -2.64576 -1.41419 0
      vertex -2.77164 -1.14805 4
      vertex -2.77164 -1.14805 0
    endloop
  endfacet
  facet normal -0.90399 -0.427554 0
    outer loop
      vertex -2.77164 -1.14805 4
      vertex -2.64576 -1.41419 0
      vertex -2.64576 -1.41419 4
    endloop
  endfacet
  facet normal 0.989176 -0.146731 0
    outer loop
      vertex 2.94236 -0.585271 4
      vertex 2.98555 -0.294051 0
      vertex 2.98555 -0.294051 4
    endloop
  endfacet
  facet normal 0.989176 -0.146731 0
    outer loop
      vertex 2.98555 -0.294051 0
      vertex 2.94236 -0.585271 4
      vertex 2.94236 -0.585271 0
    endloop
  endfacet
  facet normal 0.857729 -0.514102 0
    outer loop
      vertex 2.49441 -1.66671 4
      vertex 2.64576 -1.41419 0
      vertex 2.64576 -1.41419 4
    endloop
  endfacet
  facet normal 0.857729 -0.514102 0
    outer loop
      vertex 2.64576 -1.41419 0
      vertex 2.49441 -1.66671 4
      vertex 2.49441 -1.66671 0
    endloop
  endfacet
  facet normal 0.146731 -0.989176 0
    outer loop
      vertex 0.294051 -2.98555 0
      vertex 0.585271 -2.94236 4
      vertex 0.294051 -2.98555 4
    endloop
  endfacet
  facet normal 0.146731 -0.989176 0
    outer loop
      vertex 0.585271 -2.94236 4
      vertex 0.294051 -2.98555 0
      vertex 0.585271 -2.94236 0
    endloop
  endfacet
  facet normal 0.336892 -0.941543 0
    outer loop
      vertex 0.870853 -2.87082 0
      vertex 1.14805 -2.77164 4
      vertex 0.870853 -2.87082 4
    endloop
  endfacet
  facet normal 0.336892 -0.941543 0
    outer loop
      vertex 1.14805 -2.77164 4
      vertex 0.870853 -2.87082 0
      vertex 1.14805 -2.77164 0
    endloop
  endfacet
  facet normal 0.514102 -0.857729 0
    outer loop
      vertex 1.41419 -2.64576 0
      vertex 1.66671 -2.49441 4
      vertex 1.41419 -2.64576 4
    endloop
  endfacet
  facet normal 0.514102 -0.857729 0
    outer loop
      vertex 1.66671 -2.49441 4
      vertex 1.41419 -2.64576 0
      vertex 1.66671 -2.49441 0
    endloop
  endfacet
  facet normal -0.0490692 -0.998795 0
    outer loop
      vertex -0.294051 -2.98555 0
      vertex 0 -3 4
      vertex -0.294051 -2.98555 4
    endloop
  endfacet
  facet normal -0.0490692 -0.998795 -0
    outer loop
      vertex 0 -3 4
      vertex -0.294051 -2.98555 0
      vertex 0 -3 0
    endloop
  endfacet
  facet normal -0.242978 -0.970032 0
    outer loop
      vertex -0.870853 -2.87082 0
      vertex -0.585271 -2.94236 4
      vertex -0.870853 -2.87082 4
    endloop
  endfacet
  facet normal -0.242978 -0.970032 -0
    outer loop
      vertex -0.585271 -2.94236 4
      vertex -0.870853 -2.87082 0
      vertex -0.585271 -2.94236 0
    endloop
  endfacet
  facet normal -0.427554 -0.90399 0
    outer loop
      vertex -1.41419 -2.64576 0
      vertex -1.14805 -2.77164 4
      vertex -1.41419 -2.64576 4
    endloop
  endfacet
  facet normal -0.427554 -0.90399 -0
    outer loop
      vertex -1.14805 -2.77164 4
      vertex -1.41419 -2.64576 0
      vertex -1.14805 -2.77164 0
    endloop
  endfacet
  facet normal -0.5957 -0.803207 0
    outer loop
      vertex -1.90318 -2.31903 0
      vertex -1.66671 -2.49441 4
      vertex -1.90318 -2.31903 4
    endloop
  endfacet
  facet normal -0.5957 -0.803207 -0
    outer loop
      vertex -1.66671 -2.49441 4
      vertex -1.90318 -2.31903 0
      vertex -1.66671 -2.49441 0
    endloop
  endfacet
  facet normal -0.941543 -0.336892 0
    outer loop
      vertex -2.77164 -1.14805 0
      vertex -2.87082 -0.870853 4
      vertex -2.87082 -0.870853 0
    endloop
  endfacet
  facet normal -0.941543 -0.336892 0
    outer loop
      vertex -2.87082 -0.870853 4
      vertex -2.77164 -1.14805 0
      vertex -2.77164 -1.14805 4
    endloop
  endfacet
  facet normal -0.989176 -0.146731 0
    outer loop
      vertex -2.94236 -0.585271 0
      vertex -2.98555 -0.294051 4
      vertex -2.98555 -0.294051 0
    endloop
  endfacet
  facet normal -0.989176 -0.146731 0
    outer loop
      vertex -2.98555 -0.294051 4
      vertex -2.94236 -0.585271 0
      vertex -2.94236 -0.585271 4
    endloop
  endfacet
  facet normal -0.740951 -0.671559 0
    outer loop
      vertex -2.12132 -2.12132 0
      vertex -2.31903 -1.90318 4
      vertex -2.31903 -1.90318 0
    endloop
  endfacet
  facet normal -0.740951 -0.671559 0
    outer loop
      vertex -2.31903 -1.90318 4
      vertex -2.12132 -2.12132 0
      vertex -2.12132 -2.12132 4
    endloop
  endfacet
  facet normal 0.90399 -0.427554 0
    outer loop
      vertex 2.64576 -1.41419 4
      vertex 2.77164 -1.14805 0
      vertex 2.77164 -1.14805 4
    endloop
  endfacet
  facet normal 0.90399 -0.427554 0
    outer loop
      vertex 2.77164 -1.14805 0
      vertex 2.64576 -1.41419 4
      vertex 2.64576 -1.41419 0
    endloop
  endfacet
  facet normal 0.803207 -0.5957 0
    outer loop
      vertex 2.31903 -1.90318 4
      vertex 2.49441 -1.66671 0
      vertex 2.49441 -1.66671 4
    endloop
  endfacet
  facet normal 0.803207 -0.5957 0
    outer loop
      vertex 2.49441 -1.66671 0
      vertex 2.31903 -1.90318 4
      vertex 2.31903 -1.90318 0
    endloop
  endfacet
  facet normal -0.671555 -0.740955 0
    outer loop
      vertex 0.919869 1.12086 1
      vertex 1.0253 1.0253 4
      vertex 0.919869 1.12086 4
    endloop
  endfacet
  facet normal -0.671555 -0.740955 -0
    outer loop
      vertex 1.0253 1.0253 4
      vertex 0.919869 1.12086 1
      vertex 1.0253 1.0253 1
    endloop
  endfacet
  facet normal -0.998795 0.0490725 0
    outer loop
      vertex 1.44302 -0.142124 1
      vertex 1.45 0 4
      vertex 1.45 0 1
    endloop
  endfacet
  facet normal -0.998795 0.0490725 0
    outer loop
      vertex 1.45 0 4
      vertex 1.44302 -0.142124 1
      vertex 1.44302 -0.142124 4
    endloop
  endfacet
  facet normal 0.336892 -0.941543 0
    outer loop
      vertex -0.554891 1.33962 1
      vertex -0.420913 1.38756 4
      vertex -0.554891 1.33962 4
    endloop
  endfacet
  facet normal 0.336892 -0.941543 0
    outer loop
      vertex -0.420913 1.38756 4
      vertex -0.554891 1.33962 1
      vertex -0.420913 1.38756 1
    endloop
  endfacet
  facet normal 0.903992 -0.42755 0
    outer loop
      vertex -1.33962 0.554891 4
      vertex -1.27879 0.683525 1
      vertex -1.27879 0.683525 4
    endloop
  endfacet
  facet normal 0.903992 -0.42755 0
    outer loop
      vertex -1.27879 0.683525 1
      vertex -1.33962 0.554891 4
      vertex -1.33962 0.554891 1
    endloop
  endfacet
  facet normal -0.903992 -0.42755 0
    outer loop
      vertex 1.33962 0.554891 1
      vertex 1.27879 0.683525 4
      vertex 1.27879 0.683525 1
    endloop
  endfacet
  facet normal -0.903992 -0.42755 0
    outer loop
      vertex 1.27879 0.683525 4
      vertex 1.33962 0.554891 1
      vertex 1.33962 0.554891 4
    endloop
  endfacet
  facet normal -0.857726 -0.514106 0
    outer loop
      vertex 1.27879 0.683525 1
      vertex 1.20563 0.805576 4
      vertex 1.20563 0.805576 1
    endloop
  endfacet
  facet normal -0.857726 -0.514106 0
    outer loop
      vertex 1.20563 0.805576 4
      vertex 1.27879 0.683525 1
      vertex 1.27879 0.683525 4
    endloop
  endfacet
  facet normal -0.740955 -0.671555 0
    outer loop
      vertex 1.12086 0.919869 1
      vertex 1.0253 1.0253 4
      vertex 1.0253 1.0253 1
    endloop
  endfacet
  facet normal -0.740955 -0.671555 0
    outer loop
      vertex 1.0253 1.0253 4
      vertex 1.12086 0.919869 1
      vertex 1.12086 0.919869 4
    endloop
  endfacet
  facet normal -0.42755 -0.903992 0
    outer loop
      vertex 0.554891 1.33962 1
      vertex 0.683525 1.27879 4
      vertex 0.554891 1.33962 4
    endloop
  endfacet
  facet normal -0.42755 -0.903992 -0
    outer loop
      vertex 0.683525 1.27879 4
      vertex 0.554891 1.33962 1
      vertex 0.683525 1.27879 1
    endloop
  endfacet
  facet normal -0.146727 -0.989177 0
    outer loop
      vertex 0.142124 1.44302 1
      vertex 0.282881 1.42214 4
      vertex 0.142124 1.44302 4
    endloop
  endfacet
  facet normal -0.146727 -0.989177 -0
    outer loop
      vertex 0.282881 1.42214 4
      vertex 0.142124 1.44302 1
      vertex 0.282881 1.42214 1
    endloop
  endfacet
  facet normal 0.989177 -0.146727 0
    outer loop
      vertex -1.44302 0.142124 4
      vertex -1.42214 0.282881 1
      vertex -1.42214 0.282881 4
    endloop
  endfacet
  facet normal 0.989177 -0.146727 0
    outer loop
      vertex -1.42214 0.282881 1
      vertex -1.44302 0.142124 4
      vertex -1.44302 0.142124 1
    endloop
  endfacet
  facet normal 0.740955 -0.671555 0
    outer loop
      vertex -1.12086 0.919869 4
      vertex -1.0253 1.0253 1
      vertex -1.0253 1.0253 4
    endloop
  endfacet
  facet normal 0.740955 -0.671555 0
    outer loop
      vertex -1.0253 1.0253 1
      vertex -1.12086 0.919869 4
      vertex -1.12086 0.919869 1
    endloop
  endfacet
  facet normal 0.146727 -0.989177 0
    outer loop
      vertex -0.282881 1.42214 1
      vertex -0.142124 1.44302 4
      vertex -0.282881 1.42214 4
    endloop
  endfacet
  facet normal 0.146727 -0.989177 0
    outer loop
      vertex -0.142124 1.44302 4
      vertex -0.282881 1.42214 1
      vertex -0.142124 1.44302 1
    endloop
  endfacet
  facet normal 0.146727 0.989177 -0
    outer loop
      vertex -0.142124 -1.44302 1
      vertex -0.282881 -1.42214 4
      vertex -0.142124 -1.44302 4
    endloop
  endfacet
  facet normal 0.146727 0.989177 0
    outer loop
      vertex -0.282881 -1.42214 4
      vertex -0.142124 -1.44302 1
      vertex -0.282881 -1.42214 1
    endloop
  endfacet
  facet normal 0.671555 0.740955 -0
    outer loop
      vertex -0.919869 -1.12086 1
      vertex -1.0253 -1.0253 4
      vertex -0.919869 -1.12086 4
    endloop
  endfacet
  facet normal 0.671555 0.740955 0
    outer loop
      vertex -1.0253 -1.0253 4
      vertex -0.919869 -1.12086 1
      vertex -1.0253 -1.0253 1
    endloop
  endfacet
  facet normal 0 0 1
    outer loop
      vertex 1.44302 0.142124 1
      vertex 1.44302 -0.142124 1
      vertex 1.45 0 1
    endloop
  endfacet
  facet normal 0 0 1
    outer loop
      vertex 1.42214 0.282881 1
      vertex 1.44302 -0.142124 1
      vertex 1.44302 0.142124 1
    endloop
  endfacet
  facet normal 0 0 1
    outer loop
      vertex 1.42214 0.282881 1
      vertex 1.42214 -0.282881 1
      vertex 1.44302 -0.142124 1
    endloop
  endfacet
  facet normal 0 0 1
    outer loop
      vertex 1.38756 0.420913 1
      vertex 1.42214 -0.282881 1
      vertex 1.42214 0.282881 1
    endloop
  endfacet
  facet normal 0 0 1
    outer loop
      vertex 1.38756 0.420913 1
      vertex 1.38756 -0.420913 1
      vertex 1.42214 -0.282881 1
    endloop
  endfacet
  facet normal 0 0 1
    outer loop
      vertex 1.33962 0.554891 1
      vertex 1.38756 -0.420913 1
      vertex 1.38756 0.420913 1
    endloop
  endfacet
  facet normal 0 0 1
    outer loop
      vertex 1.33962 0.554891 1
      vertex 1.33962 -0.554891 1
      vertex 1.38756 -0.420913 1
    endloop
  endfacet
  facet normal 0 0 1
    outer loop
      vertex 1.27879 0.683525 1
      vertex 1.33962 -0.554891 1
      vertex 1.33962 0.554891 1
    endloop
  endfacet
  facet normal 0 0 1
    outer loop
      vertex 1.27879 0.683525 1
      vertex 1.27879 -0.683525 1
      vertex 1.33962 -0.554891 1
    endloop
  endfacet
  facet normal 0 0 1
    outer loop
      vertex 1.20563 0.805576 1
      vertex 1.27879 -0.683525 1
      vertex 1.27879 0.683525 1
    endloop
  endfacet
  facet normal 0 0 1
    outer loop
      vertex 1.20563 0.805576 1
      vertex 1.20563 -0.805576 1
      vertex 1.27879 -0.683525 1
    endloop
  endfacet
  facet normal 0 0 1
    outer loop
      vertex 1.12086 0.919869 1
      vertex 1.20563 -0.805576 1
      vertex 1.20563 0.805576 1
    endloop
  endfacet
  facet normal 0 0 1
    outer loop
      vertex 1.12086 0.919869 1
      vertex 1.12086 -0.919869 1
      vertex 1.20563 -0.805576 1
    endloop
  endfacet
  facet normal 0 0 1
    outer loop
      vertex 1.0253 1.0253 1
      vertex 1.12086 -0.919869 1
      vertex 1.12086 0.919869 1
    endloop
  endfacet
  facet normal 0 0 1
    outer loop
      vertex 1.0253 1.0253 1
      vertex 1.0253 -1.0253 1
      vertex 1.12086 -0.919869 1
    endloop
  endfacet
  facet normal 0 0 1
    outer loop
      vertex 0.919869 1.12086 1
      vertex 1.0253 -1.0253 1
      vertex 1.0253 1.0253 1
    endloop
  endfacet
  facet normal 0 0 1
    outer loop
      vertex 0.919869 1.12086 1
      vertex 0.919869 -1.12086 1
      vertex 1.0253 -1.0253 1
    endloop
  endfacet
  facet normal 0 0 1
    outer loop
      vertex 0.805576 1.20563 1
      vertex 0.919869 -1.12086 1
      vertex 0.919869 1.12086 1
    endloop
  endfacet
  facet normal 0 0 1
    outer loop
      vertex 0.805576 1.20563 1
      vertex 0.805576 -1.20563 1
      vertex 0.919869 -1.12086 1
    endloop
  endfacet
  facet normal 0 0 1
    outer loop
      vertex 0.683525 1.27879 1
      vertex 0.805576 -1.20563 1
      vertex 0.805576 1.20563 1
    endloop
  endfacet
  facet normal 0 0 1
    outer loop
      vertex 0.683525 1.27879 1
      vertex 0.683525 -1.27879 1
      vertex 0.805576 -1.20563 1
    endloop
  endfacet
  facet normal 0 0 1
    outer loop
      vertex 0.554891 1.33962 1
      vertex 0.683525 -1.27879 1
      vertex 0.683525 1.27879 1
    endloop
  endfacet
  facet normal 0 0 1
    outer loop
      vertex 0.554891 1.33962 1
      vertex 0.554891 -1.33962 1
      vertex 0.683525 -1.27879 1
    endloop
  endfacet
  facet normal 0 0 1
    outer loop
      vertex 0.420913 1.38756 1
      vertex 0.554891 -1.33962 1
      vertex 0.554891 1.33962 1
    endloop
  endfacet
  facet normal 0 0 1
    outer loop
      vertex 0.420913 1.38756 1
      vertex 0.420913 -1.38756 1
      vertex 0.554891 -1.33962 1
    endloop
  endfacet
  facet normal 0 0 1
    outer loop
      vertex 0.282881 1.42214 1
      vertex 0.420913 -1.38756 1
      vertex 0.420913 1.38756 1
    endloop
  endfacet
  facet normal 0 0 1
    outer loop
      vertex 0.282881 1.42214 1
      vertex 0.282881 -1.42214 1
      vertex 0.420913 -1.38756 1
    endloop
  endfacet
  facet normal 0 0 1
    outer loop
      vertex 0.142124 1.44302 1
      vertex 0.282881 -1.42214 1
      vertex 0.282881 1.42214 1
    endloop
  endfacet
  facet normal 0 0 1
    outer loop
      vertex 0.142124 1.44302 1
      vertex 0.142124 -1.44302 1
      vertex 0.282881 -1.42214 1
    endloop
  endfacet
  facet normal 0 0 1
    outer loop
      vertex 0 1.45 1
      vertex 0.142124 -1.44302 1
      vertex 0.142124 1.44302 1
    endloop
  endfacet
  facet normal 0 0 1
    outer loop
      vertex 0 1.45 1
      vertex 0 -1.45 1
      vertex 0.142124 -1.44302 1
    endloop
  endfacet
  facet normal -0 0 1
    outer loop
      vertex -0.142124 1.44302 1
      vertex 0 -1.45 1
      vertex 0 1.45 1
    endloop
  endfacet
  facet normal 0 0 1
    outer loop
      vertex -0.142124 1.44302 1
      vertex -0.142124 -1.44302 1
      vertex 0 -1.45 1
    endloop
  endfacet
  facet normal -0 0 1
    outer loop
      vertex -0.282881 1.42214 1
      vertex -0.142124 -1.44302 1
      vertex -0.142124 1.44302 1
    endloop
  endfacet
  facet normal 0 0 1
    outer loop
      vertex -0.282881 1.42214 1
      vertex -0.282881 -1.42214 1
      vertex -0.142124 -1.44302 1
    endloop
  endfacet
  facet normal -0 0 1
    outer loop
      vertex -0.420913 1.38756 1
      vertex -0.282881 -1.42214 1
      vertex -0.282881 1.42214 1
    endloop
  endfacet
  facet normal 0 0 1
    outer loop
      vertex -0.420913 1.38756 1
      vertex -0.420913 -1.38756 1
      vertex -0.282881 -1.42214 1
    endloop
  endfacet
  facet normal -0 0 1
    outer loop
      vertex -0.554891 1.33962 1
      vertex -0.420913 -1.38756 1
      vertex -0.420913 1.38756 1
    endloop
  endfacet
  facet normal 0 0 1
    outer loop
      vertex -0.554891 1.33962 1
      vertex -0.554891 -1.33962 1
      vertex -0.420913 -1.38756 1
    endloop
  endfacet
  facet normal -0 0 1
    outer loop
      vertex -0.683525 1.27879 1
      vertex -0.554891 -1.33962 1
      vertex -0.554891 1.33962 1
    endloop
  endfacet
  facet normal 0 0 1
    outer loop
      vertex -0.683525 1.27879 1
      vertex -0.683525 -1.27879 1
      vertex -0.554891 -1.33962 1
    endloop
  endfacet
  facet normal -0 0 1
    outer loop
      vertex -0.805576 1.20563 1
      vertex -0.683525 -1.27879 1
      vertex -0.683525 1.27879 1
    endloop
  endfacet
  facet normal 0 0 1
    outer loop
      vertex -0.805576 1.20563 1
      vertex -0.805576 -1.20563 1
      vertex -0.683525 -1.27879 1
    endloop
  endfacet
  facet normal -0 0 1
    outer loop
      vertex -0.919869 1.12086 1
      vertex -0.805576 -1.20563 1
      vertex -0.805576 1.20563 1
    endloop
  endfacet
  facet normal 0 0 1
    outer loop
      vertex -0.919869 1.12086 1
      vertex -0.919869 -1.12086 1
      vertex -0.805576 -1.20563 1
    endloop
  endfacet
  facet normal -0 0 1
    outer loop
      vertex -1.0253 1.0253 1
      vertex -0.919869 -1.12086 1
      vertex -0.919869 1.12086 1
    endloop
  endfacet
  facet normal 0 0 1
    outer loop
      vertex -1.0253 1.0253 1
      vertex -1.0253 -1.0253 1
      vertex -0.919869 -1.12086 1
    endloop
  endfacet
  facet normal -0 0 1
    outer loop
      vertex -1.12086 0.919869 1
      vertex -1.0253 -1.0253 1
      vertex -1.0253 1.0253 1
    endloop
  endfacet
  facet normal 0 0 1
    outer loop
      vertex -1.12086 0.919869 1
      vertex -1.12086 -0.919869 1
      vertex -1.0253 -1.0253 1
    endloop
  endfacet
  facet normal -0 0 1
    outer loop
      vertex -1.20563 0.805576 1
      vertex -1.12086 -0.919869 1
      vertex -1.12086 0.919869 1
    endloop
  endfacet
  facet normal 0 0 1
    outer loop
      vertex -1.20563 0.805576 1
      vertex -1.20563 -0.805576 1
      vertex -1.12086 -0.919869 1
    endloop
  endfacet
  facet normal -0 0 1
    outer loop
      vertex -1.27879 0.683525 1
      vertex -1.20563 -0.805576 1
      vertex -1.20563 0.805576 1
    endloop
  endfacet
  facet normal 0 0 1
    outer loop
      vertex -1.27879 0.683525 1
      vertex -1.27879 -0.683525 1
      vertex -1.20563 -0.805576 1
    endloop
  endfacet
  facet normal -0 0 1
    outer loop
      vertex -1.33962 0.554891 1
      vertex -1.27879 -0.683525 1
      vertex -1.27879 0.683525 1
    endloop
  endfacet
  facet normal 0 0 1
    outer loop
      vertex -1.33962 0.554891 1
      vertex -1.33962 -0.554891 1
      vertex -1.27879 -0.683525 1
    endloop
  endfacet
  facet normal -0 0 1
    outer loop
      vertex -1.38756 0.420913 1
      vertex -1.33962 -0.554891 1
      vertex -1.33962 0.554891 1
    endloop
  endfacet
  facet normal 0 0 1
    outer loop
      vertex -1.38756 0.420913 1
      vertex -1.38756 -0.420913 1
      vertex -1.33962 -0.554891 1
    endloop
  endfacet
  facet normal -0 0 1
    outer loop
      vertex -1.42214 0.282881 1
      vertex -1.38756 -0.420913 1
      vertex -1.38756 0.420913 1
    endloop
  endfacet
  facet normal 0 0 1
    outer loop
      vertex -1.42214 0.282881 1
      vertex -1.42214 -0.282881 1
      vertex -1.38756 -0.420913 1
    endloop
  endfacet
  facet normal -0 0 1
    outer loop
      vertex -1.44302 0.142124 1
      vertex -1.42214 -0.282881 1
      vertex -1.42214 0.282881 1
    endloop
  endfacet
  facet normal 0 0 1
    outer loop
      vertex -1.44302 0.142124 1
      vertex -1.44302 -0.142124 1
      vertex -1.42214 -0.282881 1
    endloop
  endfacet
  facet normal 0 -0 1
    outer loop
      vertex -1.44302 -0.142124 1
      vertex -1.44302 0.142124 1
      vertex -1.45 0 1
    endloop
  endfacet
  facet normal 0.740955 0.671555 0
    outer loop
      vertex -1.0253 -1.0253 4
      vertex -1.12086 -0.919869 1
      vertex -1.12086 -0.919869 4
    endloop
  endfacet
  facet normal 0.740955 0.671555 0
    outer loop
      vertex -1.12086 -0.919869 1
      vertex -1.0253 -1.0253 4
      vertex -1.0253 -1.0253 1
    endloop
  endfacet
  facet normal -0.989177 -0.146727 0
    outer loop
      vertex 1.44302 0.142124 1
      vertex 1.42214 0.282881 4
      vertex 1.42214 0.282881 1
    endloop
  endfacet
  facet normal -0.989177 -0.146727 0
    outer loop
      vertex 1.42214 0.282881 4
      vertex 1.44302 0.142124 1
      vertex 1.44302 0.142124 4
    endloop
  endfacet
  facet normal -0.970031 -0.242982 0
    outer loop
      vertex 1.42214 0.282881 1
      vertex 1.38756 0.420913 4
      vertex 1.38756 0.420913 1
    endloop
  endfacet
  facet normal -0.970031 -0.242982 0
    outer loop
      vertex 1.38756 0.420913 4
      vertex 1.42214 0.282881 1
      vertex 1.42214 0.282881 4
    endloop
  endfacet
  facet normal -0.941543 -0.336892 0
    outer loop
      vertex 1.38756 0.420913 1
      vertex 1.33962 0.554891 4
      vertex 1.33962 0.554891 1
    endloop
  endfacet
  facet normal -0.941543 -0.336892 0
    outer loop
      vertex 1.33962 0.554891 4
      vertex 1.38756 0.420913 1
      vertex 1.38756 0.420913 4
    endloop
  endfacet
  facet normal -0.803208 -0.595699 0
    outer loop
      vertex 1.20563 0.805576 1
      vertex 1.12086 0.919869 4
      vertex 1.12086 0.919869 1
    endloop
  endfacet
  facet normal -0.803208 -0.595699 0
    outer loop
      vertex 1.12086 0.919869 4
      vertex 1.20563 0.805576 1
      vertex 1.20563 0.805576 4
    endloop
  endfacet
  facet normal -0.595699 -0.803208 0
    outer loop
      vertex 0.805576 1.20563 1
      vertex 0.919869 1.12086 4
      vertex 0.805576 1.20563 4
    endloop
  endfacet
  facet normal -0.595699 -0.803208 -0
    outer loop
      vertex 0.919869 1.12086 4
      vertex 0.805576 1.20563 1
      vertex 0.919869 1.12086 1
    endloop
  endfacet
  facet normal -0.0490725 -0.998795 0
    outer loop
      vertex 0 1.45 1
      vertex 0.142124 1.44302 4
      vertex 0 1.45 4
    endloop
  endfacet
  facet normal -0.0490725 -0.998795 -0
    outer loop
      vertex 0.142124 1.44302 4
      vertex 0 1.45 1
      vertex 0.142124 1.44302 1
    endloop
  endfacet
  facet normal -0.514106 -0.857726 0
    outer loop
      vertex 0.683525 1.27879 1
      vertex 0.805576 1.20563 4
      vertex 0.683525 1.27879 4
    endloop
  endfacet
  facet normal -0.514106 -0.857726 -0
    outer loop
      vertex 0.805576 1.20563 4
      vertex 0.683525 1.27879 1
      vertex 0.805576 1.20563 1
    endloop
  endfacet
  facet normal -0.336892 -0.941543 0
    outer loop
      vertex 0.420913 1.38756 1
      vertex 0.554891 1.33962 4
      vertex 0.420913 1.38756 4
    endloop
  endfacet
  facet normal -0.336892 -0.941543 -0
    outer loop
      vertex 0.554891 1.33962 4
      vertex 0.420913 1.38756 1
      vertex 0.554891 1.33962 1
    endloop
  endfacet
  facet normal -0.242982 -0.970031 0
    outer loop
      vertex 0.282881 1.42214 1
      vertex 0.420913 1.38756 4
      vertex 0.282881 1.42214 4
    endloop
  endfacet
  facet normal -0.242982 -0.970031 -0
    outer loop
      vertex 0.420913 1.38756 4
      vertex 0.282881 1.42214 1
      vertex 0.420913 1.38756 1
    endloop
  endfacet
  facet normal 0.998795 -0.0490725 0
    outer loop
      vertex -1.45 0 4
      vertex -1.44302 0.142124 1
      vertex -1.44302 0.142124 4
    endloop
  endfacet
  facet normal 0.998795 -0.0490725 0
    outer loop
      vertex -1.44302 0.142124 1
      vertex -1.45 0 4
      vertex -1.45 0 1
    endloop
  endfacet
  facet normal 0.941543 -0.336892 0
    outer loop
      vertex -1.38756 0.420913 4
      vertex -1.33962 0.554891 1
      vertex -1.33962 0.554891 4
    endloop
  endfacet
  facet normal 0.941543 -0.336892 0
    outer loop
      vertex -1.33962 0.554891 1
      vertex -1.38756 0.420913 4
      vertex -1.38756 0.420913 1
    endloop
  endfacet
  facet normal 0.970031 -0.242982 0
    outer loop
      vertex -1.42214 0.282881 4
      vertex -1.38756 0.420913 1
      vertex -1.38756 0.420913 4
    endloop
  endfacet
  facet normal 0.970031 -0.242982 0
    outer loop
      vertex -1.38756 0.420913 1
      vertex -1.42214 0.282881 4
      vertex -1.42214 0.282881 1
    endloop
  endfacet
  facet normal 0.857726 -0.514106 0
    outer loop
      vertex -1.27879 0.683525 4
      vertex -1.20563 0.805576 1
      vertex -1.20563 0.805576 4
    endloop
  endfacet
  facet normal 0.857726 -0.514106 0
    outer loop
      vertex -1.20563 0.805576 1
      vertex -1.27879 0.683525 4
      vertex -1.27879 0.683525 1
    endloop
  endfacet
  facet normal 0.803208 -0.595699 0
    outer loop
      vertex -1.20563 0.805576 4
      vertex -1.12086 0.919869 1
      vertex -1.12086 0.919869 4
    endloop
  endfacet
  facet normal 0.803208 -0.595699 0
    outer loop
      vertex -1.12086 0.919869 1
      vertex -1.20563 0.805576 4
      vertex -1.20563 0.805576 1
    endloop
  endfacet
  facet normal 0.242982 -0.970031 0
    outer loop
      vertex -0.420913 1.38756 1
      vertex -0.282881 1.42214 4
      vertex -0.420913 1.38756 4
    endloop
  endfacet
  facet normal 0.242982 -0.970031 0
    outer loop
      vertex -0.282881 1.42214 4
      vertex -0.420913 1.38756 1
      vertex -0.282881 1.42214 1
    endloop
  endfacet
  facet normal 0.0490725 -0.998795 0
    outer loop
      vertex -0.142124 1.44302 1
      vertex 0 1.45 4
      vertex -0.142124 1.44302 4
    endloop
  endfacet
  facet normal 0.0490725 -0.998795 0
    outer loop
      vertex 0 1.45 4
      vertex -0.142124 1.44302 1
      vertex 0 1.45 1
    endloop
  endfacet
  facet normal 0.514106 -0.857726 0
    outer loop
      vertex -0.805576 1.20563 1
      vertex -0.683525 1.27879 4
      vertex -0.805576 1.20563 4
    endloop
  endfacet
  facet normal 0.514106 -0.857726 0
    outer loop
      vertex -0.683525 1.27879 4
      vertex -0.805576 1.20563 1
      vertex -0.683525 1.27879 1
    endloop
  endfacet
  facet normal 0.595699 -0.803208 0
    outer loop
      vertex -0.919869 1.12086 1
      vertex -0.805576 1.20563 4
      vertex -0.919869 1.12086 4
    endloop
  endfacet
  facet normal 0.595699 -0.803208 0
    outer loop
      vertex -0.805576 1.20563 4
      vertex -0.919869 1.12086 1
      vertex -0.805576 1.20563 1
    endloop
  endfacet
  facet normal 0.42755 -0.903992 0
    outer loop
      vertex -0.683525 1.27879 1
      vertex -0.554891 1.33962 4
      vertex -0.683525 1.27879 4
    endloop
  endfacet
  facet normal 0.42755 -0.903992 0
    outer loop
      vertex -0.554891 1.33962 4
      vertex -0.683525 1.27879 1
      vertex -0.554891 1.33962 1
    endloop
  endfacet
  facet normal 0.671555 -0.740955 0
    outer loop
      vertex -1.0253 1.0253 1
      vertex -0.919869 1.12086 4
      vertex -1.0253 1.0253 4
    endloop
  endfacet
  facet normal 0.671555 -0.740955 0
    outer loop
      vertex -0.919869 1.12086 4
      vertex -1.0253 1.0253 1
      vertex -0.919869 1.12086 1
    endloop
  endfacet
  facet normal -0.998795 -0.0490725 0
    outer loop
      vertex 1.45 0 1
      vertex 1.44302 0.142124 4
      vertex 1.44302 0.142124 1
    endloop
  endfacet
  facet normal -0.998795 -0.0490725 0
    outer loop
      vertex 1.44302 0.142124 4
      vertex 1.45 0 1
      vertex 1.45 0 4
    endloop
  endfacet
  facet normal -0.0490725 0.998795 0
    outer loop
      vertex 0.142124 -1.44302 1
      vertex 0 -1.45 4
      vertex 0.142124 -1.44302 4
    endloop
  endfacet
  facet normal -0.0490725 0.998795 0
    outer loop
      vertex 0 -1.45 4
      vertex 0.142124 -1.44302 1
      vertex 0 -1.45 1
    endloop
  endfacet
  facet normal -0.857726 0.514106 0
    outer loop
      vertex 1.20563 -0.805576 1
      vertex 1.27879 -0.683525 4
      vertex 1.27879 -0.683525 1
    endloop
  endfacet
  facet normal -0.857726 0.514106 0
    outer loop
      vertex 1.27879 -0.683525 4
      vertex 1.20563 -0.805576 1
      vertex 1.20563 -0.805576 4
    endloop
  endfacet
  facet normal -0.903992 0.42755 0
    outer loop
      vertex 1.27879 -0.683525 1
      vertex 1.33962 -0.554891 4
      vertex 1.33962 -0.554891 1
    endloop
  endfacet
  facet normal -0.903992 0.42755 0
    outer loop
      vertex 1.33962 -0.554891 4
      vertex 1.27879 -0.683525 1
      vertex 1.27879 -0.683525 4
    endloop
  endfacet
  facet normal -0.242982 0.970031 0
    outer loop
      vertex 0.420913 -1.38756 1
      vertex 0.282881 -1.42214 4
      vertex 0.420913 -1.38756 4
    endloop
  endfacet
  facet normal -0.242982 0.970031 0
    outer loop
      vertex 0.282881 -1.42214 4
      vertex 0.420913 -1.38756 1
      vertex 0.282881 -1.42214 1
    endloop
  endfacet
  facet normal -0.595699 0.803208 0
    outer loop
      vertex 0.919869 -1.12086 1
      vertex 0.805576 -1.20563 4
      vertex 0.919869 -1.12086 4
    endloop
  endfacet
  facet normal -0.595699 0.803208 0
    outer loop
      vertex 0.805576 -1.20563 4
      vertex 0.919869 -1.12086 1
      vertex 0.805576 -1.20563 1
    endloop
  endfacet
  facet normal -0.42755 0.903992 0
    outer loop
      vertex 0.683525 -1.27879 1
      vertex 0.554891 -1.33962 4
      vertex 0.683525 -1.27879 4
    endloop
  endfacet
  facet normal -0.42755 0.903992 0
    outer loop
      vertex 0.554891 -1.33962 4
      vertex 0.683525 -1.27879 1
      vertex 0.554891 -1.33962 1
    endloop
  endfacet
  facet normal 0.336892 0.941543 -0
    outer loop
      vertex -0.420913 -1.38756 1
      vertex -0.554891 -1.33962 4
      vertex -0.420913 -1.38756 4
    endloop
  endfacet
  facet normal 0.336892 0.941543 0
    outer loop
      vertex -0.554891 -1.33962 4
      vertex -0.420913 -1.38756 1
      vertex -0.554891 -1.33962 1
    endloop
  endfacet
  facet normal 0.514106 0.857726 -0
    outer loop
      vertex -0.683525 -1.27879 1
      vertex -0.805576 -1.20563 4
      vertex -0.683525 -1.27879 4
    endloop
  endfacet
  facet normal 0.514106 0.857726 0
    outer loop
      vertex -0.805576 -1.20563 4
      vertex -0.683525 -1.27879 1
      vertex -0.805576 -1.20563 1
    endloop
  endfacet
  facet normal 0.970031 0.242982 0
    outer loop
      vertex -1.38756 -0.420913 4
      vertex -1.42214 -0.282881 1
      vertex -1.42214 -0.282881 4
    endloop
  endfacet
  facet normal 0.970031 0.242982 0
    outer loop
      vertex -1.42214 -0.282881 1
      vertex -1.38756 -0.420913 4
      vertex -1.38756 -0.420913 1
    endloop
  endfacet
  facet normal 0.998795 0.0490725 0
    outer loop
      vertex -1.44302 -0.142124 4
      vertex -1.45 0 1
      vertex -1.45 0 4
    endloop
  endfacet
  facet normal 0.998795 0.0490725 0
    outer loop
      vertex -1.45 0 1
      vertex -1.44302 -0.142124 4
      vertex -1.44302 -0.142124 1
    endloop
  endfacet
  facet normal 0.803208 0.595699 0
    outer loop
      vertex -1.12086 -0.919869 4
      vertex -1.20563 -0.805576 1
      vertex -1.20563 -0.805576 4
    endloop
  endfacet
  facet normal 0.803208 0.595699 0
    outer loop
      vertex -1.20563 -0.805576 1
      vertex -1.12086 -0.919869 4
      vertex -1.12086 -0.919869 1
    endloop
  endfacet
  facet normal 0.857726 0.514106 0
    outer loop
      vertex -1.20563 -0.805576 4
      vertex -1.27879 -0.683525 1
      vertex -1.27879 -0.683525 4
    endloop
  endfacet
  facet normal 0.857726 0.514106 0
    outer loop
      vertex -1.27879 -0.683525 1
      vertex -1.20563 -0.805576 4
      vertex -1.20563 -0.805576 1
    endloop
  endfacet
  facet normal 0.903992 0.42755 0
    outer loop
      vertex -1.27879 -0.683525 4
      vertex -1.33962 -0.554891 1
      vertex -1.33962 -0.554891 4
    endloop
  endfacet
  facet normal 0.903992 0.42755 0
    outer loop
      vertex -1.33962 -0.554891 1
      vertex -1.27879 -0.683525 4
      vertex -1.27879 -0.683525 1
    endloop
  endfacet
  facet normal -0.989177 0.146727 0
    outer loop
      vertex 1.42214 -0.282881 1
      vertex 1.44302 -0.142124 4
      vertex 1.44302 -0.142124 1
    endloop
  endfacet
  facet normal -0.989177 0.146727 0
    outer loop
      vertex 1.44302 -0.142124 4
      vertex 1.42214 -0.282881 1
      vertex 1.42214 -0.282881 4
    endloop
  endfacet
  facet normal -0.740955 0.671555 0
    outer loop
      vertex 1.0253 -1.0253 1
      vertex 1.12086 -0.919869 4
      vertex 1.12086 -0.919869 1
    endloop
  endfacet
  facet normal -0.740955 0.671555 0
    outer loop
      vertex 1.12086 -0.919869 4
      vertex 1.0253 -1.0253 1
      vertex 1.0253 -1.0253 4
    endloop
  endfacet
  facet normal -0.803208 0.595699 0
    outer loop
      vertex 1.12086 -0.919869 1
      vertex 1.20563 -0.805576 4
      vertex 1.20563 -0.805576 1
    endloop
  endfacet
  facet normal -0.803208 0.595699 0
    outer loop
      vertex 1.20563 -0.805576 4
      vertex 1.12086 -0.919869 1
      vertex 1.12086 -0.919869 4
    endloop
  endfacet
  facet normal -0.146727 0.989177 0
    outer loop
      vertex 0.282881 -1.42214 1
      vertex 0.142124 -1.44302 4
      vertex 0.282881 -1.42214 4
    endloop
  endfacet
  facet normal -0.146727 0.989177 0
    outer loop
      vertex 0.142124 -1.44302 4
      vertex 0.282881 -1.42214 1
      vertex 0.142124 -1.44302 1
    endloop
  endfacet
  facet normal -0.336892 0.941543 0
    outer loop
      vertex 0.554891 -1.33962 1
      vertex 0.420913 -1.38756 4
      vertex 0.554891 -1.33962 4
    endloop
  endfacet
  facet normal -0.336892 0.941543 0
    outer loop
      vertex 0.420913 -1.38756 4
      vertex 0.554891 -1.33962 1
      vertex 0.420913 -1.38756 1
    endloop
  endfacet
  facet normal -0.671555 0.740955 0
    outer loop
      vertex 1.0253 -1.0253 1
      vertex 0.919869 -1.12086 4
      vertex 1.0253 -1.0253 4
    endloop
  endfacet
  facet normal -0.671555 0.740955 0
    outer loop
      vertex 0.919869 -1.12086 4
      vertex 1.0253 -1.0253 1
      vertex 0.919869 -1.12086 1
    endloop
  endfacet
  facet normal -0.514106 0.857726 0
    outer loop
      vertex 0.805576 -1.20563 1
      vertex 0.683525 -1.27879 4
      vertex 0.805576 -1.20563 4
    endloop
  endfacet
  facet normal -0.514106 0.857726 0
    outer loop
      vertex 0.683525 -1.27879 4
      vertex 0.805576 -1.20563 1
      vertex 0.683525 -1.27879 1
    endloop
  endfacet
  facet normal 0.0490725 0.998795 -0
    outer loop
      vertex 0 -1.45 1
      vertex -0.142124 -1.44302 4
      vertex 0 -1.45 4
    endloop
  endfacet
  facet normal 0.0490725 0.998795 0
    outer loop
      vertex -0.142124 -1.44302 4
      vertex 0 -1.45 1
      vertex -0.142124 -1.44302 1
    endloop
  endfacet
  facet normal 0.242982 0.970031 -0
    outer loop
      vertex -0.282881 -1.42214 1
      vertex -0.420913 -1.38756 4
      vertex -0.282881 -1.42214 4
    endloop
  endfacet
  facet normal 0.242982 0.970031 0
    outer loop
      vertex -0.420913 -1.38756 4
      vertex -0.282881 -1.42214 1
      vertex -0.420913 -1.38756 1
    endloop
  endfacet
  facet normal 0.42755 0.903992 -0
    outer loop
      vertex -0.554891 -1.33962 1
      vertex -0.683525 -1.27879 4
      vertex -0.554891 -1.33962 4
    endloop
  endfacet
  facet normal 0.42755 0.903992 0
    outer loop
      vertex -0.683525 -1.27879 4
      vertex -0.554891 -1.33962 1
      vertex -0.683525 -1.27879 1
    endloop
  endfacet
  facet normal 0.595699 0.803208 -0
    outer loop
      vertex -0.805576 -1.20563 1
      vertex -0.919869 -1.12086 4
      vertex -0.805576 -1.20563 4
    endloop
  endfacet
  facet normal 0.595699 0.803208 0
    outer loop
      vertex -0.919869 -1.12086 4
      vertex -0.805576 -1.20563 1
      vertex -0.919869 -1.12086 1
    endloop
  endfacet
  facet normal 0.941543 0.336892 0
    outer loop
      vertex -1.33962 -0.554891 4
      vertex -1.38756 -0.420913 1
      vertex -1.38756 -0.420913 4
    endloop
  endfacet
  facet normal 0.941543 0.336892 0
    outer loop
      vertex -1.38756 -0.420913 1
      vertex -1.33962 -0.554891 4
      vertex -1.33962 -0.554891 1
    endloop
  endfacet
  facet normal 0.989177 0.146727 0
    outer loop
      vertex -1.42214 -0.282881 4
      vertex -1.44302 -0.142124 1
      vertex -1.44302 -0.142124 4
    endloop
  endfacet
  facet normal 0.989177 0.146727 0
    outer loop
      vertex -1.44302 -0.142124 1
      vertex -1.42214 -0.282881 4
      vertex -1.42214 -0.282881 1
    endloop
  endfacet
  facet normal -0.970031 0.242982 0
    outer loop
      vertex 1.38756 -0.420913 1
      vertex 1.42214 -0.282881 4
      vertex 1.42214 -0.282881 1
    endloop
  endfacet
  facet normal -0.970031 0.242982 0
    outer loop
      vertex 1.42214 -0.282881 4
      vertex 1.38756 -0.420913 1
      vertex 1.38756 -0.420913 4
    endloop
  endfacet
  facet normal -0.941543 0.336892 0
    outer loop
      vertex 1.33962 -0.554891 1
      vertex 1.38756 -0.420913 4
      vertex 1.38756 -0.420913 1
    endloop
  endfacet
  facet normal -0.941543 0.336892 0
    outer loop
      vertex 1.38756 -0.420913 4
      vertex 1.33962 -0.554891 1
      vertex 1.33962 -0.554891 4
    endloop
  endfacet
endsolid OpenSCAD_Model
